<svg width="390" height="390" viewBox="0 0 390 390" fill="none" xmlns="http://www.w3.org/2000/svg">
<circle cx="195" cy="195" r="195" fill="url(#paint0_linear_373_374)"/>
<g clip-path="url(#clip0_373_374)">
<path d="M165.734 223.708C159.249 223.662 156.916 221.388 157.147 214.7C157.271 211.074 157.975 207.464 158.468 203.398C154.969 203.854 151.407 204.166 147.913 204.796C135.683 207.008 124.413 211.576 114.506 219.109C112.455 220.671 110.641 222.848 109.47 225.126C108.822 226.391 109.161 228.885 110.06 230.063C112.054 232.665 114.475 235.051 117.096 237.038C122.568 241.186 128.658 244.223 135.169 246.573C139.47 248.125 143.838 249.979 147.533 252.601C155.652 258.352 156.505 267.437 150.164 275.113C144.83 281.571 137.743 284.659 129.526 285.073C120.775 285.514 113.575 289.124 107.244 294.896C103.267 298.521 99.3152 302.188 95.1476 305.588C89.2637 310.377 82.3828 312.435 74.8133 311.923C67.4802 311.426 63.7135 307.406 64.5306 300.17C65.2089 294.189 66.545 288.243 68.0352 282.39C70.6458 272.148 73.6006 261.998 76.3858 251.797C76.5605 251.157 76.5862 250.44 76.5194 249.774C75.1525 236.459 75.0651 223.226 79.1094 209.661C78.1381 210.311 77.6089 210.613 77.1361 210.992C73.6006 213.819 70.1473 216.759 66.509 219.457C64.7515 220.758 62.7577 221.936 60.6919 222.597C55.0186 224.409 50.1419 220.574 51.1337 214.746C51.7914 210.895 52.9682 206.716 55.2242 203.633C59.2787 198.097 64.0732 193.033 69.0116 188.234C73.9038 183.482 79.3817 179.334 84.5463 174.848C85.5432 173.982 86.3037 172.825 87.0797 171.734C88.0201 170.418 88.755 168.948 89.7622 167.689C101.026 153.555 112.995 140.199 128.303 130.1C135.77 125.174 143.201 119.827 147.805 111.874C149.994 108.09 152.194 106.272 156.942 106.18C163.196 106.057 167.662 102.021 170.138 96.2551C170.945 94.3705 171.834 93.9506 173.823 94.3705C181.1 95.9069 187.626 92.6499 190.766 85.9669C191.696 83.9902 192.461 83.4934 194.291 85.0758C197.945 88.2304 202.261 88.6811 206.187 86.1461C209.409 84.0619 212.061 81.0609 214.82 78.3212C215.735 77.4147 216.316 76.4725 217.75 77.343C229.132 84.2923 240.802 90.8421 249.924 100.864C254.554 105.949 258.526 111.465 261.419 117.733C261.851 118.665 262.632 119.663 263.516 120.124C276.671 126.997 287.627 136.527 297.401 147.558C305.444 156.637 313.63 165.594 321.826 174.541C322.556 175.34 323.769 175.759 324.827 176.179C327.515 177.245 330.475 177.818 332.905 179.283C339.504 183.257 340.932 190.769 336.312 196.925C334.647 199.142 332.448 201.022 330.269 202.773C324.077 207.751 320.002 213.937 318.969 221.885C318.815 223.068 318.933 224.507 319.483 225.521C321.734 229.674 321.677 234.226 320.978 238.482C320.603 240.776 318.147 243.117 316.05 244.663C312.196 247.511 307.566 247.68 302.997 246.619C300.346 246.005 297.663 245.221 295.222 244.054C280.988 237.238 266.275 231.717 251.085 227.431C243.793 225.372 237.097 222.059 231.008 217.547C230.735 217.348 230.448 217.107 230.134 217.04C223.479 215.55 216.825 214.034 210.144 212.672C209.317 212.503 208.202 212.989 207.421 213.486C198.248 219.283 189.111 225.142 179.959 230.97C179.455 231.287 178.89 231.517 178.34 231.748C173.88 233.617 170.868 232.777 168.232 228.721C167.225 227.175 166.567 225.403 165.734 223.708ZM289.421 169.333C295.418 167.294 296.523 162.091 297.463 156.274C299.503 158.609 301.209 160.591 302.951 162.537C304.714 164.508 306.405 166.562 308.337 168.354C310.176 170.06 312.283 171.478 314.272 173.025C302.566 159.633 292.011 145.264 277.704 134.484C278.069 135.252 278.537 135.933 279.092 136.532C283.162 140.88 287.273 145.192 291.317 149.555C291.898 150.18 292.216 151.045 292.658 151.798C291.805 151.931 290.937 152.238 290.099 152.172C282.247 151.506 276.373 157.406 277.889 164.391C278.675 168.027 282.864 172.098 287.817 169.942C288.352 169.737 288.886 169.532 289.421 169.333ZM313.774 222.489C314.092 223.211 314.431 223.703 314.524 224.24C315.027 227.149 315.963 230.089 315.829 232.972C315.608 237.714 312.253 239.983 307.674 238.702C305.336 238.047 302.951 236.966 301.06 235.476C298.121 233.166 295.587 230.35 292.884 227.748C292.525 227.405 292.16 227.067 291.795 226.729C291.625 226.883 291.456 227.037 291.286 227.19C293.742 230.795 296.199 234.406 298.84 238.282C297.674 237.75 296.666 237.361 295.726 236.848C291.117 234.349 287.668 230.58 284.405 226.586C282.303 224.01 279.991 221.603 277.848 219.063C276.039 216.917 274.287 216.876 272.324 219.017C276.944 223.687 281.543 228.332 286.445 233.284C282.822 232.06 279.518 230.959 276.229 229.828C268.31 227.108 260.345 224.497 252.503 221.577C250.073 220.671 247.961 218.92 245.705 217.557C245.844 217.266 245.977 216.974 246.116 216.682C248.901 217.353 251.661 218.244 254.487 218.633C257.396 219.032 260.428 219.381 263.3 218.981C270.659 217.962 275.69 213.077 280.186 207.715C290.361 195.593 303.527 188.762 318.82 185.592C321.744 184.988 324.678 185.003 327.016 186.304C322.838 186.939 318.306 187.154 314.077 188.403C309.904 189.637 306.045 191.916 302.047 193.734C302.155 193.98 302.263 194.221 302.371 194.467C305.346 193.734 308.296 192.879 311.302 192.295C315.582 191.466 319.879 190.621 324.211 190.175C328.676 189.719 330.613 192.48 328.964 196.643C328.342 198.215 327.35 199.639 326.518 201.129C325.742 202.517 324.951 203.9 324.164 205.282C326.718 203.72 329 202.046 331.045 200.12C332.643 198.61 334.18 196.935 335.331 195.076C337.936 190.882 337.191 186.729 333.26 183.753C331.451 182.386 329.344 181.218 327.186 180.543C318.075 177.685 309.37 179.682 301.065 183.559C295.577 186.119 290.217 189.059 285.099 192.295C280.361 195.296 275.993 198.886 271.522 202.292C270.613 202.983 269.965 204.023 269.199 204.898C269.086 204.791 268.973 204.683 268.86 204.576C269.616 203.219 270.366 201.856 271.121 200.499C270.988 200.407 270.854 200.31 270.721 200.218C269.384 201.488 268.048 202.758 266.476 204.248C266.666 203.485 266.8 202.952 266.933 202.42C266.723 202.348 266.512 202.281 266.301 202.21C265.356 204.381 264.41 206.557 263.465 208.729C263.192 208.693 262.92 208.662 262.647 208.626C262.771 206.476 262.899 204.325 263.023 202.174C261.959 203.72 261.049 205.421 260.515 207.233C259.955 209.144 260.227 210.931 262.262 212.083C264.302 213.235 266.327 213.681 268.177 211.96C269.924 210.342 271.481 208.519 273.12 206.783C276.337 203.377 279.498 199.91 282.807 196.592C283.727 195.665 285.089 195.173 286.317 194.436C282.427 198.855 278.696 203.096 274.965 207.336C275.155 207.51 275.351 207.689 275.541 207.863C276.707 206.962 277.874 206.061 279.04 205.154C279.225 205.369 279.415 205.584 279.6 205.8C276.286 209.087 273.167 212.6 269.6 215.586C266.676 218.034 262.627 217.819 259.765 215.811C257.067 213.922 255.885 210.665 257.02 206.895C257.699 204.652 258.85 202.491 260.119 200.499C260.921 199.245 261.27 198.292 260.808 196.792C258.912 190.651 258.588 184.368 259.873 178.069C260.51 174.94 261.491 171.878 262.442 168.308C258.305 173.465 258.238 179.247 257.776 184.957C256.209 180.916 257.277 176.948 257.94 172.979C257.637 172.943 257.339 172.902 257.036 172.866C256.399 177.142 255.767 181.423 255.114 185.797C253.423 181.623 253.3 174.09 255.083 168.38C258.238 158.256 264.271 150.41 273.917 145.474C267.298 146.513 261.671 149.509 256.799 154.067C256.666 153.893 256.532 153.718 256.399 153.549C259.045 150.564 261.687 147.573 264.461 144.439C260.016 137.336 254.04 131.693 245.89 128.605C232.349 123.479 218.335 123.765 204.255 125.046C212.148 125.302 220.119 124.902 227.632 128.241C226.475 128.671 225.329 128.948 224.163 129.055C213.094 130.069 201.989 130.797 190.956 132.118C177.975 133.675 165.339 136.701 153.807 143.21C149.085 145.873 144.568 148.818 141.813 153.718C140.046 156.858 139.264 160.135 141.382 163.397C143.694 166.956 147.445 167.719 151.253 168.242C149.259 167.079 147.127 166.188 145.123 165.072C142.795 163.781 141.233 161.825 141.736 159.014C142.43 155.147 143.838 151.701 147.6 149.596C153.915 146.057 160.709 144.27 167.852 143.528C168.643 143.446 169.65 143.036 170.097 142.432C176.978 133.142 186.783 131.703 195.642 139.118C201.927 144.383 207.852 150.072 213.931 155.588C216.485 157.902 217.462 160.688 216.629 164.124C215.787 167.607 214.512 171.135 214.522 174.638C214.548 180.133 211.223 181.224 206.958 182.053C197.369 183.917 187.888 184.45 178.802 180.051C176.387 178.883 174.244 177.157 171.495 175.37C171.377 177.065 170.945 178.602 171.274 179.954C171.593 181.295 172.677 182.453 173.417 183.677C169.887 182.842 168.967 180.717 169.568 174.346C166.798 174.044 164.018 173.639 161.228 173.496C160.441 173.455 159.388 173.967 158.859 174.571C156.885 176.835 156.073 179.457 157.266 182.396C158.463 185.346 160.868 186.145 163.874 185.904C161.793 187.205 159.835 186.831 157.872 185.781C157.23 185.438 156.49 184.982 155.832 185.039C154.028 185.192 152.25 185.597 150.339 185.92C149.45 189.294 151.13 190.641 156.058 189.643C154.157 191.573 152.322 192.213 150.282 191.23C148.144 190.201 147.707 188.188 148.021 185.986C148.124 185.249 148.581 184.404 148.355 183.805C147.558 181.654 146.536 179.585 145.606 177.501C141.839 179.657 141.788 180.932 145.318 187.328C144.172 187.108 142.913 186.887 142.091 186.171C138.684 183.205 139.984 177.403 144.357 175.698C145.123 175.396 145.904 175.135 146.68 174.853C146.592 174.597 146.505 174.346 146.418 174.09C142.194 175.078 137.954 175.995 133.756 177.07C130.035 178.018 128.319 182.012 130.611 185.054C131.787 186.616 133.961 187.435 135.575 188.521C135.261 188.634 134.311 188.9 133.427 189.32C132.569 189.73 131.042 190.39 131.099 190.764C131.279 192.055 131.936 193.314 132.594 194.492C132.81 194.881 133.56 194.974 134.203 195.26C131.017 196.315 128.833 194.282 129.095 190.754C129.156 189.919 129.583 188.67 129.197 188.311C126.607 185.93 126.53 182.934 127.003 179.267C124.593 180.379 122.63 181.331 120.626 182.197C118.966 182.914 118.899 184.137 119.423 185.566C120.23 187.789 121.977 188.332 125.328 187.446C125.436 187.666 125.544 187.881 125.647 188.101C123.951 188.88 122.255 189.658 120.477 190.477C120.749 193.263 123.046 193.11 125.472 193.202C123.226 195.399 121.13 194.943 118.272 193.314C118.632 195.081 118.524 196.423 119.146 197.089C119.871 197.867 121.237 198.051 122.353 198.507C118.915 200.033 117.167 198.953 115.975 194.605C112.07 195.127 111.191 194.559 109.141 190.001C98.8476 198.927 92.0952 210.06 87.4857 222.612C88.9656 220.282 90.1938 217.803 91.5505 215.391C92.9688 212.861 94.3717 210.301 96.0367 207.935C97.5732 205.743 99.4437 203.787 101.17 201.723C100.348 204.048 98.7859 205.835 97.8866 207.909C94.5207 215.652 91.0314 223.37 88.2411 231.323C85.4456 239.281 84.4332 247.598 86.1085 256.037C86.6583 258.813 88.7498 260.999 90.8362 260.994C93.1435 260.989 95.2042 259.422 95.5947 256.437C96.1292 252.324 96.6996 248.058 96.1651 244.003C94.7828 233.52 96.6842 224.307 104.706 216.881C105.323 216.313 105.991 215.791 106.633 215.253C102.378 221.757 100.667 224.543 100.055 230.749C99.3306 238.108 99.4231 245.549 99.1765 252.954C99.1765 253.005 99.3974 253.067 100.24 253.466C100.543 248.361 101.175 243.547 101.026 238.754C100.8 231.287 103.616 225.311 108.873 220.292C122.944 206.854 140.133 201.252 159.229 200.412C159.871 200.381 160.734 200.018 161.084 199.526C164.671 194.467 169.732 191.845 175.663 190.8C187.934 188.644 199.656 191.24 211.187 195.189C211.239 195.204 211.213 195.455 211.239 195.813C208.916 195.46 206.65 195.117 204.378 194.764C195.915 193.432 187.451 192.019 178.838 193.012C166.264 194.462 160 200.899 160.323 215.069C160.416 219.119 162.816 220.942 166.798 220.267C168.643 219.954 170.462 219.401 172.23 218.787C180.467 215.919 188.777 213.21 196.881 209.989C201.321 208.222 205.571 208.253 210.011 209.266C215.483 210.516 220.951 211.801 226.794 213.153C226.419 212.57 226.254 212.288 226.069 212.027C218.844 201.882 216.624 190.81 219.949 178.75C221.239 174.069 221.475 169.384 220.848 164.56C220.227 159.787 220 154.968 219.564 149.775C218.536 148.956 216.963 147.701 215.35 146.416C213.032 149.053 215.108 151.429 216.085 154.01C212.816 152.674 211.763 149.084 213.454 146.037C213.86 145.305 214.512 144.618 214.656 143.84C215.196 140.952 215.576 138.033 216.069 134.74C214.826 135.303 212.981 135.631 211.932 136.717C209.086 139.677 210.401 142.954 212.076 146.257C211.018 146.068 209.964 145.837 209.754 145.284C208.942 143.164 208.402 140.947 207.713 138.591C207.308 138.934 206.496 139.405 205.997 140.096C205.442 140.87 205.17 141.843 204.712 142.872C203.561 139.323 205.468 136.476 208.916 136.23C209.548 136.184 210.37 136.133 210.751 135.744C214.831 131.57 220.704 133.654 225.35 131.524C225.391 131.508 225.545 131.749 225.776 132.015C224.04 133.045 222.174 133.869 220.648 135.109C215.838 139.006 216.342 145.74 221.259 147.005C223.505 144.204 225.704 141.464 227.904 138.719C228.094 138.842 228.289 138.96 228.479 139.082C227.909 140.434 227.344 141.786 226.773 143.138C230.715 138.253 232.961 131.99 239.646 129.829C233.855 134.586 230.735 140.767 230.771 148.131C230.792 152.674 231.624 157.278 232.632 161.728C233.736 166.603 234.569 171.396 233.819 176.405C232.93 182.345 232.21 188.316 231.517 193.499C230.895 190.477 230.072 186.498 229.106 181.807C226.64 188.48 225.782 194.564 226.748 201.027C225.37 199.378 224.245 197.698 223.531 195.86C221.794 191.404 222.457 186.867 223.993 182.57C226.614 175.232 225.376 168.15 223.145 160.616C223.145 161.846 222.996 162.685 223.171 163.454C224.389 168.831 223.659 174.121 222.781 179.457C222.092 183.651 221.527 187.912 221.496 192.147C221.45 198.236 223.891 203.531 227.873 208.319C228.212 207.105 228.485 206.127 228.87 204.745C229.625 206.972 230.047 208.816 230.848 210.48C233.5 215.996 238.295 219.119 243.819 221.071C250.027 223.262 256.491 224.747 262.632 227.093C274.056 231.451 285.325 236.203 296.656 240.797C301.687 242.835 306.754 244.566 312.345 243.767C314.39 243.475 315.773 242.477 316.857 240.787C320.752 234.703 318.542 228.025 314.704 222.704C314.611 222.591 314.277 222.612 313.774 222.489ZM77.6551 257.507C77.4495 257.486 77.2389 257.461 77.0333 257.44C76.2728 260.815 75.5379 264.19 74.7568 267.559C72.3416 277.94 69.731 288.279 67.5522 298.711C66.2007 305.194 69.916 309.301 76.5759 309.286C82.5164 309.27 87.9019 307.324 92.5474 303.75C96.4683 300.734 100.148 297.39 103.771 294.02C109.711 288.499 116.325 284.295 124.429 282.779C126.782 282.339 129.167 282.037 131.505 281.53C138.082 280.106 144.121 277.663 148.345 272.076C152.579 266.474 152.322 260.825 146.813 256.518C143.257 253.738 139.028 251.52 134.763 249.984C124.747 246.389 115.168 242.348 108.683 233.315C111.011 238.994 115.384 242.538 120.708 245.18C127.055 248.335 133.375 251.536 139.64 254.854C143.334 256.81 146.073 259.801 145.667 264.19C145.241 268.748 141.993 271.646 138.252 273.945C138.201 273.976 138.011 273.797 138.011 273.792C139.347 271.574 140.672 269.367 141.978 267.206C138.915 269.541 136.032 271.743 133.149 273.945C132.969 273.771 132.795 273.602 132.615 273.428C132.774 274.104 132.939 274.78 133.206 275.917C126.741 270.827 120.672 266.049 114.598 261.266C114.454 261.46 114.31 261.65 114.166 261.844C117.815 266.73 123.298 270.181 125.364 276.378C124.644 275.881 123.92 275.384 123.447 275.057C122.44 276.101 121.751 277.366 120.708 277.817C115.215 280.178 109.439 280.772 106.114 274.324C104.922 272.02 102.979 270.099 101.381 268C101.191 268.133 101.006 268.271 100.816 268.404C103.329 274.242 105.842 280.086 108.241 285.652C107.496 286.072 106.838 286.343 106.299 286.768C104.906 287.88 103.56 289.058 102.203 290.215C101.114 291.147 100.307 290.778 99.7777 289.626C99.3512 288.699 99.1251 287.675 98.678 286.763C97.049 283.43 95.3686 280.121 93.7036 276.803C94.2792 283.394 98.4776 289.462 95.1888 296.278C95.1219 295.331 95.05 294.389 94.9524 293.016C94.197 294.455 93.7242 295.536 93.0921 296.519C92.0181 298.183 90.4456 299.715 88.4775 298.916C87.1465 298.373 85.6665 296.724 85.4044 295.351C84.8546 292.473 84.9471 289.447 84.9933 286.487C85.0293 284.203 85.4044 281.929 85.6305 279.65C85.5226 279.64 85.4147 279.63 85.3068 279.614C83.796 287.895 82.2903 296.181 80.7795 304.462C80.4763 304.426 80.1783 304.39 79.8751 304.349C79.7928 303.069 79.7055 301.794 79.5924 300.058C78.7702 301.548 78.2975 302.736 77.5472 303.704C75.8925 305.839 73.801 305.727 71.9716 303.75C70.3271 301.973 69.7824 299.945 70.0137 297.635C70.1833 295.94 70.3066 294.225 70.6663 292.566C72.8606 282.487 75.1422 272.424 77.3108 262.341C77.65 260.784 77.5523 259.125 77.6551 257.507ZM178.772 142.575C180.467 142.099 181.84 141.249 182.985 141.489C185.272 141.971 187.621 142.739 189.599 143.947C194.409 146.887 198.983 150.205 203.731 153.252C205.596 154.451 207.662 155.332 209.635 156.356C208.757 154.999 207.652 154.077 206.578 153.114C201.876 148.894 197.364 144.439 192.441 140.491C186.896 136.046 180.827 136.297 175.282 140.762C168.833 145.955 167.096 152.986 168.186 160.765C169.357 169.128 173.597 175.442 181.87 178.412C191.521 181.884 201.233 181.183 210.874 178.346C211.747 178.09 212.282 176.707 212.976 175.846C211.028 176.343 209.569 177.362 208.001 177.567C206.059 177.823 205.062 176.517 205.442 174.238C201.984 178.776 197.498 179.569 192.564 178.586C189.897 178.059 187.292 177.168 184.722 176.261C184.085 176.036 183.69 175.124 183.181 174.53C183.787 174.029 184.316 173.327 185.01 173.061C186.326 172.559 187.739 172.313 189.111 171.96C185.611 171.504 182.143 171.862 178.802 171.366C176.922 171.084 174.445 169.814 173.633 168.262C170.606 162.496 170.174 156.366 173.073 150.303C173.474 149.468 174.203 148.787 175.01 147.732C176.32 149.985 177.276 151.88 178.474 153.606C179.635 155.275 180.909 156.929 182.4 158.297C183.844 159.623 185.627 160.586 187.261 161.707C181.11 155.967 177.199 150.093 177.523 145.986C183.068 152.018 187.04 159.956 196.521 160.668C188.972 156.535 183.289 150.589 178.772 142.575ZM199.003 90.0586C201.126 93.0288 202.528 93.5153 206.341 91.8664C208.217 91.0572 209.312 91.4669 210.602 92.7062C212.811 94.8314 215.119 96.8594 217.385 98.9283C217.498 98.8156 217.616 98.703 217.729 98.5903C215.694 95.574 213.659 92.5577 211.634 89.5568C213.716 88.0153 215.648 86.4841 217.693 85.1322C218.166 84.8198 219.163 84.8812 219.702 85.168C222.719 86.7709 225.735 88.3943 228.634 90.1969C236.059 94.8212 243.202 99.8142 248.541 106.897C249.564 108.254 250.314 109.811 251.578 111.926C238.711 107.982 226.48 105.412 213.777 105.591C228.623 107.26 242.997 110.712 256.815 116.565C248.346 99.1639 233.207 89.1573 217.092 79.8831C212.482 85.8542 207.066 90.2737 199.003 90.0586ZM59.3044 207.566C59.0423 207.32 58.7802 207.07 58.5181 206.824C61.0362 203.628 63.1688 200.018 66.139 197.319C75.7948 188.526 85.7744 180.087 95.5896 171.473C98.4005 169.01 101.093 166.408 103.837 163.868C103.683 163.699 103.524 163.53 103.37 163.361C102.753 163.781 102.09 164.145 101.53 164.626C91.1085 173.475 80.6562 182.294 70.3066 191.225C65.0496 195.762 60.3733 200.873 57.0895 207.049C55.9436 209.2 55.0597 211.566 54.5356 213.937C53.9651 216.523 55.5273 218.136 58.1841 217.767C60.0803 217.501 61.9766 216.774 63.7186 215.939C71.6735 212.114 78.2666 206.394 84.8289 200.648C85.7899 199.808 86.7303 198.942 87.6758 198.087C87.5987 198.016 87.5268 197.944 87.4497 197.872C79.0374 203.285 70.6252 208.698 62.2129 214.111C62.0742 213.911 61.9406 213.712 61.8018 213.512C63.5233 211.622 65.2397 209.732 66.9612 207.848C66.8687 207.735 66.7711 207.628 66.6786 207.515C64.2428 208.918 61.807 210.316 58.9395 211.965C63.6518 203.096 72.2799 198.676 77.948 191.409C71.73 196.792 65.5172 202.179 59.3044 207.566ZM192.78 87.5493C189.558 93.0698 184.764 96.168 178.617 97.2332C179.65 99.6043 181.259 99.1895 182.965 98.493C184.83 97.73 186.989 96.04 188.51 96.4907C190.242 97.0028 191.403 99.425 192.826 101.007C192.893 101.079 193.094 101.033 193.458 101.059C192.446 99.2765 191.49 97.6071 190.504 95.8761C191.711 94.6164 192.867 93.4129 194.173 92.0507C198.227 95.912 202.189 99.6862 206.48 103.778C200.319 104.464 194.748 105.089 189.178 105.709C189.203 106 189.229 106.287 189.26 106.579C196.141 106.303 203.017 106.026 210.756 105.714C204.522 99.4148 198.751 93.5819 192.78 87.5493ZM316.852 199.854C316.456 200.161 316.04 200.448 315.67 200.786C310.69 205.38 307.463 210.91 306.271 217.634C305.264 223.314 302.417 224.865 297.211 222.873C297.042 222.807 296.81 222.904 296.543 222.935C298.696 225.526 301.091 227.769 304.58 227.17C308.054 226.571 308.583 223.344 309.323 220.553C311.194 213.476 312.89 206.337 316.852 199.854ZM160.611 108.054C166.454 107.593 170.956 105.094 173.438 99.2612C176.115 101.632 178.535 103.773 181.182 106.118C176.074 107.445 171.485 108.633 166.901 109.826C166.978 110.195 167.06 110.563 167.137 110.927C173.247 110.384 179.054 108.1 185.663 107.434C181.238 103.507 177.328 100.04 173.093 96.2807C170.185 102.134 166.284 106.067 160.611 108.054ZM170.246 222.069C170 222.207 169.753 222.341 169.506 222.479C170.251 224.041 170.971 225.613 171.752 227.159C172.805 229.249 174.553 229.904 176.68 229.116C178.433 228.47 180.169 227.687 181.752 226.704C185.519 224.353 189.183 221.834 192.909 219.411C195.668 217.619 198.458 215.873 201.239 214.106C200.154 213.978 199.286 214.26 198.52 214.71C192.919 217.993 187.343 221.321 181.742 224.604C180.272 225.464 178.782 226.335 177.209 226.97C176.593 227.221 175.719 226.837 174.959 226.74C175.272 226.13 175.457 225.398 175.925 224.942C176.829 224.051 177.888 223.319 178.885 222.52C178.756 222.356 178.628 222.192 178.499 222.028C176.541 223.267 174.578 224.512 172.585 225.772C171.731 224.44 170.991 223.252 170.246 222.069ZM286.8 214.285C287.093 214.444 287.381 214.603 287.674 214.761C293.372 205.938 303.033 202.624 311.261 197.283C304.565 199.27 297.864 201.283 292.298 205.723C290.526 207.136 288.948 208.882 287.617 210.716C286.959 211.627 287.052 213.077 286.8 214.285ZM156.772 173.322C154.121 173.783 151.695 172.636 150.128 175.176C148.91 177.152 148.689 179.196 149.943 181.157C151.15 183.042 152.954 183.968 155.565 183.799C153.889 180.138 154.624 176.866 156.772 173.322ZM315.541 216.318C318.131 210.291 320.845 203.966 323.686 197.355C317.114 201.733 313.84 210.024 315.541 216.318ZM150.339 112.207C153.823 109.616 156.372 111.372 159.234 112.402C154.064 115.014 149.162 117.492 144.259 119.971C144.331 120.099 144.403 120.222 144.475 120.35C150.832 117.697 157.183 115.039 164.26 112.084C160.955 110.988 158.319 110.092 155.662 109.247C153.35 108.51 151.68 109.252 150.339 112.207ZM163.92 147.978C157.081 148.894 149.557 151.849 147.466 154.394C153.458 153.754 158.962 152.535 163.92 147.978ZM116.505 184.86C114.079 185.863 112.507 187.149 112.358 189.566C112.219 191.809 113.714 192.454 115.59 192.597C117.455 192.741 118.391 191.681 118.118 189.991C117.846 188.311 117.106 186.698 116.505 184.86ZM80.4198 249.528C78.6777 253.477 79.9881 260.738 82.5575 262.377C81.8689 258.249 81.1495 253.937 80.4198 249.528Z" fill="url(#paint1_linear_373_374)"/>
<path d="M287.817 169.937C282.838 169.256 280.957 167.259 280.047 161.702C279.539 158.594 281.846 155.004 285.33 153.478C289.652 151.583 294.061 154.103 294.482 158.804C294.883 163.264 292.951 166.695 289.421 169.327C288.886 169.532 288.352 169.737 287.817 169.937ZM292.679 160.437C293.059 157.718 292.283 155.752 290.104 154.584C287.925 153.421 285.762 153.923 283.907 155.383C282.139 156.771 281.491 158.635 282.098 161.001C286.707 156.684 288.573 156.571 292.679 160.437ZM284.272 162.091C287.165 161.19 289.143 161.953 289.786 165.179C291.276 162.783 291.029 160.801 289.359 159.828C287.745 158.881 285.849 159.669 284.272 162.091Z" fill="url(#paint2_linear_373_374)"/>
<path d="M206.958 197.99C196.043 199.931 184.784 199.767 174.619 204.493C184.758 203.039 194.995 201.574 205.231 200.11C205.324 200.571 205.416 201.032 205.509 201.493C195.159 204.079 184.815 206.665 173.766 209.43C186.084 209.374 196.865 204.75 208.346 203.377C207.94 203.664 207.57 204.017 207.128 204.222C193.839 210.306 179.866 214.264 165.621 217.347C163.479 217.813 162.672 217.091 162.297 214.802C161.808 211.822 161.408 209.113 162.692 206.142C165.549 199.541 170.55 196.592 177.559 196.377C187.395 196.08 197.21 196.151 206.958 197.99Z" fill="url(#paint3_linear_373_374)"/>
<path d="M108.113 197.77C107.609 201.59 107.671 201.708 111.314 203.234C109.737 204.545 108.252 204.903 106.823 203.321C105.328 201.672 105.893 199.459 108.113 197.77Z" fill="url(#paint4_linear_373_374)"/>
</g>
<defs>
<linearGradient id="paint0_linear_373_374" x1="195" y1="0" x2="195" y2="390" gradientUnits="userSpaceOnUse">
<stop stop-color="#37C7AB"/>
<stop offset="1" stop-color="#002F46"/>
</linearGradient>
<linearGradient id="paint1_linear_373_374" x1="195.007" y1="76.9976" x2="195.007" y2="311.999" gradientUnits="userSpaceOnUse">
<stop stop-color="#DEC468"/>
<stop offset="1" stop-color="#BBA247"/>
</linearGradient>
<linearGradient id="paint2_linear_373_374" x1="287.256" y1="152.844" x2="287.256" y2="169.937" gradientUnits="userSpaceOnUse">
<stop stop-color="#DEC468"/>
<stop offset="1" stop-color="#BBA247"/>
</linearGradient>
<linearGradient id="paint3_linear_373_374" x1="185.088" y1="196.244" x2="185.088" y2="217.482" gradientUnits="userSpaceOnUse">
<stop stop-color="#DEC468"/>
<stop offset="1" stop-color="#BBA247"/>
</linearGradient>
<linearGradient id="paint4_linear_373_374" x1="108.651" y1="197.77" x2="108.651" y2="204.369" gradientUnits="userSpaceOnUse">
<stop stop-color="#DEC468"/>
<stop offset="1" stop-color="#BBA247"/>
</linearGradient>
<clipPath id="clip0_373_374">
<rect width="288" height="235" fill="white" transform="translate(51 77)"/>
</clipPath>
</defs>
</svg>
