<svg width="390" height="390" viewBox="0 0 390 390" fill="none" xmlns="http://www.w3.org/2000/svg">
<circle cx="195" cy="195" r="195" fill="url(#paint0_linear_373_348)"/>
<g clip-path="url(#clip0_373_348)">
<path d="M81.7285 336C81.0683 335.69 80.9632 335.191 81.0086 334.636C81.0453 334.187 81.2778 333.83 81.5852 333.503C93.7378 320.584 106.123 307.896 118.954 295.65C131.997 283.204 145.449 271.225 159.54 259.979C168.765 252.617 178.289 245.676 188.347 239.49C189.226 238.949 190.112 238.419 190.994 237.883C191.194 237.761 191.387 237.628 191.534 237.369C190.88 237.548 190.219 237.707 189.572 237.912C185.608 239.167 181.783 240.768 178.033 242.561C167.306 247.69 157.486 254.178 148.705 262.221C142.8 267.63 137.548 273.613 132.969 280.191C132.643 280.659 132.238 281.077 131.831 281.479C131.633 281.675 131.357 281.811 131.093 281.915C130.608 282.106 130.209 281.956 130.057 281.458C129.944 281.083 129.911 280.652 129.97 280.264C130.101 279.389 130.557 278.636 131.071 277.939C132.852 275.521 134.579 273.057 136.465 270.723C145.801 259.169 157.005 249.79 169.838 242.384C178.802 237.211 188.193 232.964 198.129 229.996C198.467 229.895 198.845 229.832 198.984 229.326C198.785 229.354 198.613 229.363 198.449 229.404C192.114 231.012 185.961 233.165 179.903 235.608C176.251 237.08 172.722 238.817 169.162 240.494C154.841 247.238 141.537 255.676 128.661 264.829C119.731 271.178 111.106 277.924 102.833 285.118C102.09 285.764 101.368 286.435 100.618 287.073C100.309 287.335 99.9768 287.589 99.6154 287.762C98.7731 288.168 98.2087 287.852 98.087 286.917C98.0445 286.59 98.0618 286.24 98.123 285.915C98.3447 284.741 98.9156 283.756 99.8192 282.975C103.143 280.099 106.399 277.138 109.808 274.367C123.096 263.567 137.033 253.68 151.712 244.863C161.586 238.933 171.82 233.726 182.554 229.531C189.602 226.777 196.789 224.464 204.2 222.906C205.182 222.7 205.923 222.331 206.485 221.505C206.809 221.031 207.169 220.603 207.365 220.039C207.501 219.645 207.793 219.291 208.065 218.96C208.655 218.244 209.277 217.555 209.825 216.764C209.606 216.886 209.383 217.001 209.168 217.131C205.266 219.488 201.161 221.386 196.758 222.597C195.951 222.82 195.126 222.999 194.298 223.113C193.835 223.176 193.331 223.134 192.876 223.019C191.775 222.739 191.344 221.919 191.778 220.871C192.013 220.305 192.367 219.768 192.756 219.291C193.612 218.239 194.661 217.379 195.807 216.672C198.873 214.782 201.511 212.361 204.2 210.001C204.308 209.906 204.411 209.805 204.51 209.7C204.534 209.675 204.531 209.624 204.557 209.517C204.304 209.616 204.086 209.694 203.874 209.787C200.026 211.451 196.056 212.709 191.909 213.358C191.057 213.492 190.194 213.555 189.334 213.625C188.7 213.677 188.087 213.553 187.524 213.251C186.735 212.828 186.436 212.118 186.817 211.312C187.068 210.781 187.42 210.252 187.853 209.863C188.581 209.209 189.408 208.665 190.195 208.077C190.327 207.978 190.468 207.892 190.72 207.721C190.431 207.694 190.257 207.688 190.085 207.66C189.236 207.521 188.378 207.422 187.545 207.22C186.828 207.045 186.257 206.594 185.851 205.956C185.478 205.369 185.054 204.809 184.725 204.198C184.19 203.206 184.292 202.422 185.1 201.648C185.634 201.138 186.236 200.678 186.871 200.302C187.923 199.68 189.03 199.153 190.107 198.572C191.052 198.062 191.987 197.534 192.927 197.014C192.914 196.962 192.901 196.911 192.888 196.859C192.596 196.859 192.303 196.847 192.012 196.861C190.088 196.957 188.166 196.944 186.28 196.524C185.422 196.333 184.582 196.019 183.771 195.673C182.997 195.343 182.44 194.746 182.131 193.938C181.89 193.311 181.588 192.704 181.383 192.066C181.049 191.024 181.29 190.308 182.182 189.675C182.609 189.372 183.096 189.153 183.561 188.905C183.766 188.795 183.983 188.708 184.362 188.532C182.385 188.004 181.776 186.48 181.202 184.928C181.16 184.815 181.126 184.7 181.091 184.585C180.84 183.765 180.91 183.017 181.576 182.4C181.642 182.338 181.686 182.254 181.756 182.162C181.349 181.998 180.967 181.858 180.596 181.692C179.894 181.38 179.345 180.899 179 180.198C178.692 179.573 178.334 178.969 178.073 178.326C177.661 177.312 177.846 176.578 178.699 175.89C179.181 175.502 179.714 175.149 180.274 174.891C181.406 174.37 182.574 173.931 183.723 173.447C184.784 173.001 185.84 172.543 186.895 172.085C187.059 172.014 187.209 171.91 187.365 171.821C187.351 171.776 187.337 171.731 187.323 171.685C186.928 171.708 186.532 171.738 186.137 171.753C183.812 171.836 181.486 171.98 179.162 171.982C176.384 171.985 173.816 171.159 171.487 169.646C170.889 169.258 170.363 168.752 169.825 168.275C169.497 167.985 169.465 167.632 169.709 167.242C170.741 165.59 172.056 164.346 174.066 163.996C177.421 163.412 180.77 162.794 184.121 162.19C184.445 162.132 184.765 162.063 185.087 162C185.083 161.951 185.079 161.904 185.075 161.855C184.82 161.855 184.565 161.868 184.311 161.853C181.27 161.679 178.224 161.555 175.189 161.307C172.616 161.096 170.13 160.448 167.792 159.321C167.191 159.031 166.614 158.67 166.081 158.269C165.576 157.89 165.587 157.646 166.062 157.225C167.247 156.174 168.645 155.57 170.213 155.404C175.558 154.838 180.878 154.091 186.183 153.236C186.27 153.223 186.354 153.189 186.448 153.07C186.277 153.031 186.108 152.979 185.935 152.956C179.933 152.157 174.015 150.956 168.224 149.175C165.848 148.444 163.61 147.401 161.602 145.916C161.046 145.506 160.531 145.024 160.065 144.513C159.642 144.047 159.701 143.803 160.249 143.484C161.661 142.663 163.188 142.371 164.815 142.49C167.973 142.721 171.134 142.921 174.294 143.131C174.484 143.144 174.676 143.133 174.919 143.027C174.705 142.915 174.493 142.799 174.276 142.693C169.915 140.57 165.645 138.276 161.514 135.728C159.509 134.491 157.555 133.176 155.803 131.593C155.111 130.968 154.486 130.264 153.872 129.561C153.612 129.265 153.278 128.854 153.539 128.465C153.828 128.034 154.336 128.247 154.729 128.382C155.385 128.607 156.053 128.835 156.656 129.171C159.714 130.876 162.992 132.032 166.3 133.114C167.804 133.605 169.324 134.05 170.838 134.511C171.015 134.566 171.2 134.595 171.436 134.514C171.152 134.361 170.87 134.208 170.586 134.058C165.167 131.198 159.903 128.081 154.864 124.588C152.947 123.26 151.097 121.842 149.468 120.162C148.92 119.595 148.431 118.965 147.961 118.329C147.743 118.035 147.457 117.646 147.75 117.28C148.035 116.925 148.485 117.094 148.825 117.225C149.539 117.499 150.27 117.772 150.918 118.171C154.783 120.558 158.987 122.189 163.212 123.773C165.614 124.673 168.048 125.491 170.469 126.343C170.71 126.429 170.959 126.493 171.258 126.443C171.05 126.295 170.843 126.146 170.633 126.001C162.91 120.665 155.671 114.736 148.899 108.233C146.904 106.317 145.013 104.297 143.402 102.041C142.736 101.107 142.185 100.087 141.622 99.084C141.464 98.8033 141.404 98.4454 141.382 98.117C141.352 97.6912 141.599 97.4761 142.014 97.5606C142.338 97.6262 142.673 97.7367 142.951 97.9106C143.682 98.3674 144.443 98.8033 145.09 99.3655C148.611 102.428 152.578 104.816 156.62 107.089C159.046 108.454 161.514 109.743 163.964 111.064C164.17 111.174 164.386 111.263 164.663 111.266C164.471 111.117 164.283 110.964 164.089 110.819C158.155 106.39 152.437 101.702 147.061 96.6029C144.861 94.5172 142.782 92.3161 141.002 89.8523C140.441 89.0757 139.959 88.24 139.479 87.4086C139.291 87.0817 139.16 86.7043 139.083 86.3333C138.922 85.5633 139.247 85.2609 139.984 85.489C140.37 85.608 140.757 85.7697 141.095 85.9869C141.842 86.4661 142.605 86.9374 143.278 87.5097C146.128 89.9353 149.282 91.9026 152.51 93.7602C158.026 96.9349 163.707 99.7906 169.469 102.486C169.597 102.546 169.729 102.597 169.928 102.578C169.768 102.436 169.613 102.287 169.447 102.152C162.962 96.8981 156.82 91.2689 151.07 85.2147C148.717 82.7379 146.496 80.1471 144.668 77.2466C144.17 76.4564 143.755 75.612 143.335 74.7756C143.175 74.458 143.072 74.1008 143.006 73.7493C142.851 72.9266 143.242 72.6105 144.034 72.9136C144.345 73.0327 144.657 73.1835 144.922 73.382C145.69 73.9565 146.491 74.5035 147.179 75.1667C149.875 77.7641 152.904 79.9205 156.013 81.9722C162.411 86.1941 169.054 89.998 175.831 93.5704C175.974 93.6454 176.125 93.7046 176.348 93.7024C176.238 93.5415 176.137 93.3734 176.015 93.2211C169.746 85.3742 164.216 77.0287 159.286 68.2804C157.538 65.1786 155.951 61.9938 154.872 58.5868C154.555 57.5844 154.373 56.5365 154.172 55.5009C154.111 55.1811 154.147 54.8239 154.216 54.5006C154.321 54.0106 154.645 53.867 155.064 54.121C155.388 54.3173 155.716 54.5475 155.959 54.834C156.565 55.5463 157.198 56.2528 157.688 57.0438C159.938 60.684 162.704 63.9099 165.596 67.0334C171.676 73.5985 178.019 79.9046 184.925 85.5886C189.77 89.5751 194.162 93.9904 198.367 98.6142C201.067 101.583 203.686 104.625 206.344 107.632C206.501 107.81 206.665 107.996 206.86 108.127C210.416 110.524 213.639 113.334 216.802 116.213C218.561 117.814 220.274 119.464 221.996 121.105C222.272 121.369 222.533 121.522 222.938 121.491C223.745 121.43 224.526 121.647 225.236 121.992C226.551 122.628 227.872 123.272 229.112 124.039C232.204 125.949 235.03 128.226 237.803 130.568C241.603 133.78 245.256 137.152 248.719 140.729C249.906 141.955 251.1 143.179 251.737 144.842C252.459 144.216 253.142 143.624 253.883 142.982C253.768 142.335 253.642 141.629 253.516 140.924C253.077 138.484 252.737 136.031 252.626 133.552C252.466 130.015 253.622 126.929 255.915 124.274C256.618 123.46 257.443 122.749 258.227 122.007C258.441 121.804 258.612 121.634 258.634 121.299C258.891 117.263 260.808 114.093 263.783 111.491C264.289 111.049 264.824 110.638 265.37 110.247C265.896 109.87 266.009 109.883 266.69 110.194C266.755 109.857 266.821 109.538 266.878 109.217C267.775 104.199 270.073 99.8837 273.427 96.102C274.048 95.402 274.72 94.746 275.379 94.0806C275.736 93.7198 276.12 93.3878 276.647 93.4491C277.094 92.1725 277.482 90.9341 277.955 89.7296C279.829 84.9535 282.553 80.7064 285.983 76.9074C286.191 76.6779 286.423 76.4528 286.688 76.3019C286.839 76.2153 287.141 76.2038 287.262 76.3005C287.42 76.4268 287.5 76.6859 287.548 76.9031C287.574 77.0229 287.468 77.173 287.421 77.3094C286.232 80.7309 285.522 84.2585 285.079 87.8474C284.32 94.0048 284.293 100.179 284.632 106.362C284.661 106.889 284.683 107.417 284.802 107.959C284.841 107.786 284.9 107.615 284.916 107.44C285.22 104.183 285.465 100.921 285.829 97.6717C286.392 92.6546 286.963 87.6324 288.202 82.7249C290.268 74.5475 294.122 67.2737 299.403 60.7374C299.765 60.2892 300.142 59.8519 300.54 59.4355C300.749 59.2168 300.993 58.9592 301.351 59.1555C301.621 59.3034 301.689 59.696 301.524 60.116C300.019 63.9539 298.951 67.9174 298.125 71.9502C297.392 75.5326 296.857 79.1461 296.454 82.7805C295.379 92.4842 295.178 102.217 295.486 111.965C295.559 114.273 295.711 116.578 295.839 118.883C295.853 119.141 295.898 119.417 296.009 119.646C296.569 120.791 296.777 122.02 296.893 123.268C297.14 125.941 296.987 128.609 296.675 131.262C296.371 133.839 295.957 136.404 295.59 138.974C295.567 139.14 295.48 139.319 295.518 139.469C295.767 140.443 295.39 141.32 295.118 142.211C295.006 142.578 294.854 142.933 294.718 143.293C294.361 144.235 293.992 145.174 293.646 146.12C293.354 146.916 292.973 147.646 292.43 148.312C291.994 148.848 291.687 149.473 291.537 150.176C291.185 151.833 290.6 153.406 289.707 154.853C289.236 155.616 288.672 156.285 287.892 156.77C287.338 157.116 287.116 157.726 286.935 158.326C286.551 159.596 286.076 160.826 285.386 161.964C284.946 162.688 284.438 163.35 283.73 163.841C283.579 163.946 283.448 164.103 283.354 164.264C281.001 168.288 278.592 172.283 276.333 176.359C275.23 178.349 274.403 180.492 273.456 182.569C273.37 182.758 273.322 182.965 273.215 183.286C273.5 183.122 273.68 183.028 273.85 182.919C275.163 182.077 276.468 181.222 277.79 180.394C278.194 180.141 278.645 179.962 279.073 179.745C281.184 178.68 283.439 178.01 285.716 177.452C287.113 177.109 288.556 177.125 289.988 177.543C290.785 177.776 291.652 177.755 292.471 177.929C297.159 178.925 301.258 181.061 304.723 184.389C305.646 185.276 306.406 186.298 307.01 187.433C307.477 188.31 307.795 189.237 307.947 190.221C308.163 191.619 307.613 192.73 306.364 193.401C306.133 193.525 305.891 193.63 305.61 193.764C305.631 195.181 305.387 196.572 304.951 197.929C304.191 200.297 303.055 202.449 301.271 204.211C300.794 204.682 300.276 205.123 299.722 205.498C296.987 207.348 293.991 208.596 290.77 209.305C290.561 209.352 290.344 209.376 290.13 209.39C289.99 209.4 289.848 209.374 289.694 209.363C289.618 208.997 289.913 208.892 290.088 208.73C290.863 208.012 291.693 207.348 292.417 206.582C293.006 205.96 293.492 205.234 293.985 204.526C294.186 204.236 294.31 203.883 294.425 203.543C294.551 203.17 294.394 202.944 294.03 203C292.777 203.191 291.609 202.771 290.414 202.545C289.947 202.456 289.487 202.332 288.957 202.208C288.79 202.862 288.512 203.437 288.539 204.108C288.603 205.671 288.171 207.052 286.988 208.138C286.884 208.234 286.798 208.356 286.729 208.48C285.991 209.803 284.967 210.875 283.825 211.846C283.203 212.375 282.571 212.894 281.967 213.442C281.762 213.628 281.586 213.873 281.467 214.123C280.896 215.316 280.085 216.246 278.837 216.765C278.611 216.858 278.407 217.068 278.254 217.271C277.446 218.347 276.636 219.422 275.868 220.526C272.397 225.516 268.175 229.746 263.111 233.097C261.778 233.98 260.286 234.621 258.87 235.378C257.001 236.378 254.932 236.716 252.909 237.212C252.588 237.291 252.284 237.434 251.968 237.538C251.242 237.775 250.527 238.082 249.781 238.213C249.294 238.298 248.963 238.477 248.635 238.825C246.217 241.385 243.318 243.206 240.008 244.375C239.647 244.503 239.271 244.586 238.904 244.696C238.745 244.743 238.534 244.756 238.442 244.865C238.031 245.351 237.504 245.393 236.934 245.34C236.827 245.33 236.716 245.36 236.523 245.38C236.804 245.827 236.976 246.219 237.487 246.363C237.741 246.434 237.978 246.664 238.161 246.875C240.252 249.291 241.45 252.051 241.315 255.303C241.245 257.015 240.742 258.613 239.923 260.108C239.793 260.345 239.564 260.609 239.323 260.688C238.913 260.822 238.622 261.085 238.312 261.342C237.709 261.844 237.035 262.204 236.253 262.306C235.963 262.343 235.662 262.294 235.365 262.284C235.359 262.234 235.354 262.183 235.347 262.133C235.46 262.076 235.568 261.992 235.688 261.968C236.357 261.837 236.869 261.457 237.314 260.968C237.623 260.628 237.883 260.303 237.74 259.76C237.671 259.503 237.823 259.151 237.956 258.881C238.471 257.835 238.827 256.746 238.955 255.586C238.984 255.333 238.988 255.077 238.903 254.794C238.842 254.915 238.774 255.032 238.722 255.156C238.132 256.581 237.249 257.813 236.107 258.824C235.397 259.452 234.581 259.975 233.763 260.459C233.367 260.693 232.858 260.751 232.391 260.839C232.187 260.878 231.961 260.795 231.745 260.767C231.746 260.714 231.747 260.661 231.749 260.608C231.897 260.564 232.046 260.516 232.195 260.473C232.968 260.251 233.552 259.77 233.995 259.114C234.212 258.793 234.171 258.673 233.853 258.489C233.524 258.299 233.201 258.274 232.827 258.382C232.03 258.612 231.218 258.656 230.426 258.344C230.204 258.257 230.006 258.108 229.797 257.988C229.818 257.941 229.839 257.895 229.86 257.848C230.013 257.862 230.168 257.897 230.319 257.888C230.794 257.857 231.281 257.87 231.737 257.756C232.51 257.564 233.123 257.136 233.402 256.327C233.598 255.761 233.841 255.211 234.042 254.646C234.11 254.455 234.115 254.242 234.153 254.01C233.618 254.074 233.321 254.329 233.036 254.693C232.519 255.352 231.955 255.98 231.364 256.575C230.842 257.101 230.465 257.146 229.814 256.77C229.533 256.609 229.315 256.684 229.069 256.747C228.285 256.945 227.503 256.983 226.727 256.723C226.467 256.635 226.192 256.543 226.01 256.189C226.215 256.2 226.331 256.194 226.443 256.212C227.704 256.42 228.742 256.02 229.591 255.076C229.961 254.665 230.371 254.291 230.728 253.871C231.585 252.862 232.171 251.722 232.33 250.385C232.411 249.707 232.362 249.183 232.1 248.405C231.981 248.677 231.892 248.885 231.8 249.091C231.189 250.456 230.209 251.426 228.767 251.87C228.506 251.95 228.13 252.021 227.938 251.895C227.394 251.54 226.847 251.684 226.237 251.711C226.133 251.994 226.025 252.282 225.92 252.57C225.051 254.939 224.19 257.31 223.31 259.674C223.146 260.115 222.911 260.53 222.674 261.03C222.375 260.653 222.479 260.336 222.519 260.051C222.749 258.409 222.986 256.767 223.249 255.129C223.435 253.967 223.668 252.811 223.879 251.652C223.992 251.025 223.989 251.025 223.614 250.485C223.778 250.451 223.917 250.422 224.101 250.384C224.689 247.392 225.282 244.383 225.898 241.251C225.213 241.491 224.606 241.671 224.031 241.925C223.84 242.011 223.724 242.281 223.587 242.477C220.028 247.583 216.506 252.715 212.901 257.789C211.023 260.432 209.002 262.973 207.035 265.553C206.723 265.961 206.385 266.359 205.957 266.65C205.912 266.624 205.866 266.599 205.82 266.573C205.907 266.262 205.958 265.934 206.089 265.644C206.758 264.153 207.39 262.642 208.142 261.194C211.561 254.603 215.015 248.029 218.457 241.45C218.574 241.227 218.691 241.004 218.71 240.71C218.487 240.949 218.263 241.187 218.041 241.427C211.061 248.955 203.87 256.269 196.319 263.223C195.19 264.264 193.99 265.229 192.81 266.213C192.567 266.416 192.265 266.548 191.989 266.712C191.944 266.673 191.899 266.634 191.854 266.596C191.957 266.318 192.023 266.018 192.17 265.765C192.722 264.808 193.254 263.834 193.878 262.924C196.366 259.299 198.887 255.694 201.396 252.083C201.586 251.808 201.782 251.536 201.899 251.153C201.701 251.285 201.502 251.413 201.306 251.548C196.403 254.927 191.519 258.335 186.588 261.672C184.663 262.975 182.632 264.125 180.643 265.333C180.379 265.493 180.077 265.594 179.789 265.709C179.707 265.742 179.608 265.729 179.498 265.737C179.308 265.407 179.498 265.145 179.644 264.928C180.033 264.353 180.434 263.777 180.889 263.254C182.896 260.948 185.118 258.855 187.381 256.808C190.285 254.181 193.231 251.602 196.159 249.002C196.391 248.797 196.626 248.594 196.798 248.273C196.589 248.382 196.38 248.491 196.171 248.601C192.547 250.526 188.926 252.457 185.296 254.37C184.576 254.75 183.826 255.079 183.077 255.401C182.757 255.539 182.418 255.71 181.949 255.499C182.059 255.248 182.121 254.968 182.281 254.762C182.738 254.175 183.191 253.575 183.72 253.057C186.138 250.685 188.579 248.337 191.018 245.986C191.689 245.339 192.379 244.712 193.007 243.978C192.815 244.044 192.622 244.104 192.432 244.176C187.887 245.926 183.351 247.696 178.985 249.872C171.998 253.354 165.506 257.619 159.314 262.358C153.491 266.815 147.961 271.62 142.55 276.563C136.394 282.186 130.231 287.803 124.139 293.496C113.43 303.506 103.065 313.868 92.9013 324.433C89.4362 328.035 86.0093 331.673 82.5579 335.288C82.3102 335.557 81.9985 335.774 81.7285 336ZM226.665 250.441C226.713 250.487 226.76 250.534 226.808 250.58C226.963 250.467 227.118 250.355 227.272 250.241C227.536 250.049 227.773 249.782 228.067 249.675C228.984 249.343 229.585 248.706 229.776 247.788C229.929 247.048 229.968 246.26 229.908 245.506C229.837 244.632 229.786 243.713 229.107 242.958C228.283 245.481 227.474 247.962 226.665 250.441ZM266.614 111.001C265.214 113.995 265.721 121.144 266.802 124.575C266.493 120.011 266.333 115.528 266.614 111.001ZM236.259 242.97C237.024 240.92 238.212 239.097 239.368 237.181C238.884 237.094 238.688 237.317 238.547 237.603C238.344 238.011 238.197 238.451 237.961 238.837C237.3 239.918 236.632 240.997 235.905 242.034C235.706 242.319 235.312 242.527 234.966 242.633C234.386 242.811 233.736 242.674 233.176 243.025C233.038 243.11 232.801 243.032 232.611 243.038C232.435 243.043 232.26 243.06 232.091 243.071C232.276 243.977 233.135 244.014 233.663 244.523C234.118 243.284 235.159 243.092 236.259 242.97ZM229.627 241.268C230.211 241.031 230.669 240.845 231.133 240.657C230.895 240.08 230.67 239.533 230.385 238.843C230.115 239.706 229.884 240.445 229.627 241.268ZM262.891 143.292C263.32 143.04 263.217 142.778 263.087 142.47C262.673 141.479 262.287 140.477 261.886 139.48C261.835 139.354 261.765 139.235 261.703 139.113C261.983 140.541 262.384 141.922 262.891 143.292ZM236.69 250.705C236.69 251.646 236.69 252.489 236.69 253.332C237.004 252.476 237.056 251.629 236.69 250.705Z" fill="url(#paint1_linear_373_348)"/>
</g>
<defs>
<linearGradient id="paint0_linear_373_348" x1="195" y1="0" x2="195" y2="390" gradientUnits="userSpaceOnUse">
<stop stop-color="#37C7AB"/>
<stop offset="1" stop-color="#002F46"/>
</linearGradient>
<linearGradient id="paint1_linear_373_348" x1="194.496" y1="53.9976" x2="194.496" y2="336" gradientUnits="userSpaceOnUse">
<stop stop-color="#DEC468"/>
<stop offset="1" stop-color="#BBA247"/>
</linearGradient>
<clipPath id="clip0_373_348">
<rect width="227" height="282" fill="white" transform="translate(81 54)"/>
</clipPath>
</defs>
</svg>
