<svg width="390" height="390" viewBox="0 0 390 390" fill="none" xmlns="http://www.w3.org/2000/svg">
<circle cx="195" cy="195" r="195" fill="url(#paint0_linear_373_353)"/>
<g clip-path="url(#clip0_373_353)">
<path d="M235.743 259.551C230.759 268.634 225.529 277.45 217.766 285.24C217.971 281.755 217.092 278.803 219.544 275.994C222.22 272.939 224.365 269.433 226.489 265.886C224.119 268.613 221.729 271.34 219.36 274.067C219.012 273.78 218.665 273.472 218.318 273.185C218.216 269.31 219.401 265.64 221.627 262.606C224.957 258.096 228.757 253.913 232.495 249.71C234.905 247.004 236.866 244.113 237.806 240.546C234.436 246.225 229.39 250.079 224.14 253.831C221.934 255.41 219.932 257.583 218.543 259.9C217.419 261.806 216.153 261.929 214.58 261.499C209.105 260.002 203.528 258.772 198.278 256.681C185.899 251.781 175.031 244.257 164.634 236.035C164.286 235.748 163.919 235.502 163.49 235.338C173.887 246.512 186.41 254.692 200.28 261.089C196.46 274.21 196.113 287.496 195.97 300.884C194.969 298.628 194.009 296.332 192.967 294.097C186.696 280.648 176.175 271.196 164.307 262.914C158.893 259.141 153.766 254.979 148.455 250.94C150.211 247.598 151.703 244.728 153.214 241.858C153.112 241.694 153.01 241.53 152.928 241.366C150.783 242.514 148.577 243.518 146.534 244.831C144.9 245.876 143.675 245.671 142.183 244.626C135.483 239.951 128.721 235.379 123.614 228.818C123.267 228.367 122.981 227.896 122.43 227.076C129.232 225.661 133.665 221.54 136.77 215.533C131.54 210.715 126.229 206.02 119.406 203.539C113.993 201.571 109.969 202.76 107.109 207.804C104.657 212.109 102.737 216.722 100.735 221.253C93.1564 238.516 80.4707 250.223 62.7393 256.476C62.0856 256.742 61.391 256.947 60.6761 257.152C60.5535 257.193 60.3901 257.111 59.716 256.968C61.4115 252.273 63.0049 247.619 64.8229 243.047C65.2315 242.022 66.4776 241.325 67.356 240.484C70.3793 237.593 73.4231 234.703 76.4464 231.812C76.3034 231.668 76.1604 231.525 76.0174 231.361C72.7285 233.882 69.4192 236.384 65.6605 239.254C66.3755 230.848 68.7859 224.062 75.3024 219.203C75.1186 219.08 74.9552 218.957 74.7713 218.813C72.8919 220.289 71.033 221.786 69.1536 223.262C68.9085 223.139 68.6634 222.996 68.4182 222.873C70.604 218.034 72.6877 213.155 74.996 208.378C76.4055 205.446 78.1419 202.658 79.7149 199.787C83.351 193.186 83.3919 186.399 79.8987 179.88C76.2421 173.052 72.2382 166.41 68.071 159.89C62.678 151.443 60.6148 142.258 61.0029 131.597C65.9873 136.353 70.5223 140.7 75.4454 145.395C73.4026 142.484 71.6254 139.9 69.746 137.379C68.7655 136.066 67.6828 134.816 66.4776 133.709C61.0029 128.686 59.0623 122.186 58.4699 115.052C58.3473 113.678 58.1226 112.304 57.9592 110.951C58.143 110.726 58.3269 110.521 58.5107 110.295C63.9445 113.637 69.5213 116.753 74.7713 120.382C85.2917 127.64 93.2994 137.358 99.9997 148.142C101.818 151.074 102.635 154.621 104.126 157.778C105.536 160.772 106.761 164.052 108.906 166.451C112.461 170.367 117.282 170.879 122.225 169.239C130.11 166.656 136.668 161.797 143.082 156.753C145.125 155.133 147.025 153.309 148.884 151.484C155.318 145.149 153.929 139.244 146.943 133.463C142.898 130.121 137.689 129.69 132.643 129.28C131.357 129.178 130.029 129.26 128.088 129.26C130.437 125.959 132.439 122.945 134.645 120.075C139.242 114.129 144.982 109.393 151.233 105.334C152.091 104.78 153.623 104.616 154.563 104.985C157.545 106.174 160.364 107.691 163.265 109.085C161.876 106.338 160.425 103.468 158.852 100.372C172.805 92.0071 188.085 88.3783 203.937 86C204.631 93.1758 207.287 99.1624 212.537 104.001C218.052 109.065 224.671 110.726 231.841 111.033C242.464 111.484 252.494 114.437 262.217 118.558C273.453 123.314 284.014 129.28 292.921 137.809C295.617 140.392 298.109 143.201 300.724 145.928C297.599 147.261 294.779 148.45 291.96 149.659C292.042 149.864 292.124 150.069 292.206 150.254C293.921 149.721 295.597 149.044 297.353 148.675C300.029 148.101 302.685 148.532 304.626 150.561C308.507 154.641 312.286 158.844 315.963 163.129C316.985 164.318 318.374 166.451 317.945 167.394C315.82 172.13 319.191 176.251 318.946 180.72C318.782 183.734 318.905 186.768 318.905 189.926C315.309 186.317 311.816 182.811 307.894 178.855C308.16 184.616 308.364 189.516 308.609 195.051C305.647 192.632 303.441 190.807 300.806 188.655C300.806 192.96 300.806 196.589 300.806 200.218C300.622 200.279 300.418 200.341 300.234 200.402C299.069 198.926 297.905 197.45 296.638 195.83C295.351 197.84 294.126 199.541 294.759 202.022C295.065 203.273 294.657 204.708 294.534 206.409C293.595 205.589 293.002 205.077 292.267 204.462C290.469 207.804 288.774 211.022 287.037 214.221C282.073 223.262 274.883 229.392 264.607 231.545C270.041 231.053 275.21 229.495 279.234 225.805C282.257 223.037 284.831 219.654 287.18 216.271C289.305 213.196 291.572 210.653 295.413 209.915C296.781 209.649 297.496 208.808 297.374 207.291C297.272 206.102 297.353 204.872 297.353 203.662C297.619 203.457 297.884 203.252 298.15 203.047C298.926 204.052 299.764 205.015 300.438 206.061C301.521 207.722 302.46 207.291 302.951 205.774C303.952 202.781 304.748 199.705 305.811 196.076C307.261 198.906 308.609 201.55 310.039 204.359C312.409 199.623 313.246 194.518 312.94 188.655C317.128 192.242 319.068 196.691 320.641 201.796C323.236 195.748 323.236 189.639 323.664 183.037C327.505 188.511 329.364 194.067 330.201 200.013C330.344 201.099 330.365 201.858 331.713 202.391C332.489 202.699 333.102 204.4 333.102 205.466C333.123 209.341 331.223 212.355 328.097 214.508C326.627 215.512 325.013 216.353 323.399 217.05C322.766 217.317 321.785 217.255 321.152 216.948C314.37 213.606 307.261 213.934 300.07 214.815C299.437 214.897 298.783 214.938 298.15 215.41C299.396 215.328 300.663 215.123 301.909 215.205C306.26 215.533 310.693 215.574 314.921 216.476C318.803 217.296 319.436 220.187 316.29 222.627C310.121 227.424 303.747 231.976 297.231 236.322C283.912 245.22 269.878 252.765 254.741 258.116C253.679 258.485 252.596 258.813 251.207 259.264C252.126 251.678 251.697 244.544 246.897 237.901C247.448 240.259 248.02 242.186 248.347 244.154C249.92 253.421 247.223 261.888 243.608 270.253C237.929 283.354 228.777 293.79 218.604 303.959C218.052 301.806 217.971 300.33 219.421 298.608C227.245 289.32 233.21 278.885 237.847 267.629C232.352 277.798 226.346 287.619 218.277 296.107C217.072 291.555 218.42 288.152 221.484 284.769C227.98 277.491 231.78 268.429 235.743 259.551ZM274.883 215.451C272.329 215.861 269.796 216.415 267.222 216.64C260.134 217.235 253.597 215.738 248.224 210.797C240.993 204.113 238.256 195.42 238.031 185.907C237.806 176.784 240.278 168.152 243.934 159.849C245.364 156.589 247.06 153.432 248.633 150.233C248.429 150.131 248.224 150.008 248.02 149.905C245.242 154.785 242.157 159.5 239.726 164.544C234.905 174.57 232.577 185.149 235.6 196.138C240.829 215.266 257.396 222.893 274.883 215.451ZM284.995 180.064C288.733 180.085 291.838 177.009 291.838 173.257C291.838 169.608 288.631 166.328 285.035 166.307C281.46 166.287 278.212 169.588 278.192 173.237C278.172 177.009 281.195 180.044 284.995 180.064ZM216.112 184.903C215.315 184.944 214.559 184.862 213.885 185.046C210.106 186.01 206.327 186.912 202.609 188.06C195.745 190.213 189.004 190.356 182.018 188.204C178.157 187.014 173.908 186.871 169.802 186.666C165.655 186.461 161.488 186.871 157.341 186.789C155.441 186.748 153.562 186.153 151.662 185.825C156.36 187.732 161.242 188.306 166.206 187.711C171.354 187.096 176.359 187.137 181.344 189.024C189.903 192.242 198.421 192.406 206.837 188.122C209.718 186.645 212.966 185.969 216.112 184.903ZM227.347 195.564C226.571 209.054 232.597 218.055 245.303 221.499C233.598 213.647 232.352 211.884 227.347 195.564ZM285.914 159.5C286.976 159.623 288.61 159.295 289.121 159.931C292.594 164.093 296.761 166.41 302.399 165.651C302.665 167.845 302.951 169.711 301.03 171.166C300.029 171.925 299.805 173.298 301.296 173.524C302.603 173.708 304.299 173.319 305.3 172.499C306.056 171.904 306.362 170.182 306.178 169.075C305.688 166.287 304.381 165.262 301.378 165.282C296.679 165.303 293.125 163.232 290.224 159.746C289.754 159.193 289.284 158.66 288.815 158.106C287.711 158.619 286.751 159.09 285.914 159.5ZM271.206 162.904C271.369 165.262 271.369 167.64 271.737 169.957C272.411 174.057 273.33 178.096 274.147 182.155C274.413 183.427 274.168 184.226 273.065 185.231C270.715 187.342 268.754 189.864 266.63 192.222C266.793 192.365 266.977 192.529 267.141 192.673C268.611 191.074 270 189.393 271.573 187.916C273.8 185.825 275.23 185.887 277.518 187.957C278.008 188.388 278.437 188.901 278.887 189.352C279.356 189.803 279.826 190.254 280.296 190.684C274.433 182.237 272.227 172.745 271.206 162.904ZM172.09 125.733C170.68 123.991 169.107 122.022 167.493 120.095C167.228 119.767 166.697 119.542 166.268 119.48C161.61 118.865 156.953 118.311 153.398 117.86C158.955 120.218 165.532 122.986 172.09 125.733ZM143.184 123.15C151.825 123.786 155.85 130.141 159.833 136.62C159.384 134.201 158.75 131.966 158.097 129.731C157.913 129.137 157.79 128.276 157.361 128.03C152.969 125.467 148.659 122.596 143.184 123.15ZM180.71 101.049C183.611 104.883 184.632 109.27 184.898 113.965C185.041 116.22 186.532 117.635 188.35 118.393C187.717 115.954 186.614 113.514 186.532 111.033C186.41 106.523 183.672 103.816 180.71 101.049ZM189.208 281.468C191.925 274.866 190.352 269.064 188.412 263.283C188.657 269.146 188.922 275.03 189.208 281.468ZM145.513 226.707C141.366 228.49 136.974 230.377 133.113 232.058C137.975 232.714 143.164 232.652 145.513 226.707ZM181.772 255.615C179.096 258.444 178.749 261.704 180.486 268.429C180.915 264.164 181.344 259.879 181.772 255.615ZM184.694 171.884C187.39 173.524 189.78 173.032 191.864 170.756C190.311 169.875 188.738 168.972 187.247 168.111C186.41 169.341 185.593 170.551 184.694 171.884ZM170.578 113.083C171.845 116.446 175.358 120.382 178.688 121.838C177.973 120.157 177.687 118.27 176.584 117.225C174.766 115.523 172.457 114.355 170.578 113.083ZM290.878 191.545C291.858 186.953 292.737 182.955 293.717 178.403C292.451 180.495 291.552 181.971 290.653 183.468C290.408 183.857 289.999 184.308 290.04 184.698C290.204 186.748 290.51 188.798 290.878 191.545ZM165.348 256.23C166.492 255.348 168.229 254.405 169.352 252.99C170.394 251.658 170.782 249.813 171.456 248.193C171.15 248.029 170.844 247.865 170.558 247.721C168.719 250.715 166.881 253.708 165.348 256.23ZM142.817 240.054C147.474 239.316 150.783 237.47 152.418 233.206C149.272 235.461 146.187 237.655 142.817 240.054ZM198.237 180.003C200.015 177.399 200.015 177.399 197.727 175.533C196.644 176.456 195.541 177.399 194.417 178.362C195.684 178.896 196.971 179.449 198.237 180.003ZM215.233 196.076C216.561 196.63 217.869 197.163 219.135 197.696C220.953 196.015 220.871 194.539 218.829 193.227C217.623 194.17 216.459 195.113 215.233 196.076ZM171.15 198.783C171.13 199.09 171.109 199.398 171.089 199.705C172.192 200.587 173.315 201.489 174.357 202.33C175.276 201.468 176.155 200.669 177.728 199.193C175.093 199.029 173.132 198.906 171.15 198.783ZM177.891 255.738C178.279 256.127 178.667 256.537 179.076 256.927C176.89 258.834 174.704 260.761 172.519 262.668C172.314 262.463 172.09 262.237 171.885 262.032C177.646 260.658 177.646 260.658 177.891 255.738ZM209.187 176.374C211.781 178.731 212.557 178.67 214.355 175.902C212.476 174.221 210.8 174.918 209.187 176.374ZM180.955 177.296C177.033 176.374 177.033 176.374 176.339 179.736C178.647 180.597 179.954 179.449 180.955 177.296ZM201.24 200.279C204.182 203.416 204.815 203.334 206.817 199.664C204.631 199.91 202.936 200.095 201.24 200.279ZM201.649 113.965C201.281 109.947 201.771 106.072 197.645 105.026C198.809 107.65 200.117 110.562 201.649 113.965ZM201.24 211.002C199.075 209.936 197.359 208.952 195.99 211.433C196.971 211.945 197.931 212.458 198.932 212.97C199.667 212.355 200.321 211.781 201.24 211.002ZM200.321 165.446C202.18 166.348 204.08 168.009 205.387 164.893C202.343 163.478 202.343 163.478 200.321 165.446ZM156.707 249.997C159.261 248.213 162.203 246.594 161.794 242.657C160.058 245.159 158.383 247.578 156.707 249.997ZM192.865 199.746C192.783 199.521 192.701 199.295 192.62 199.09C191.088 199.254 189.576 199.418 188.044 199.562C188.044 199.767 188.023 199.992 188.023 200.197C189.086 200.771 190.148 201.345 191.251 201.919C191.823 201.14 192.354 200.443 192.865 199.746ZM213.068 167.353C214.968 167.353 216.418 167.353 217.889 167.353C217.909 167.189 217.93 167.045 217.95 166.881C216.99 166.389 216.03 165.877 214.968 165.323C214.416 165.918 213.885 166.471 213.068 167.353Z" fill="url(#paint1_linear_373_353)"/>
</g>
<defs>
<linearGradient id="paint0_linear_373_353" x1="195" y1="0" x2="195" y2="390" gradientUnits="userSpaceOnUse">
<stop stop-color="#37C7AB"/>
<stop offset="1" stop-color="#002F46"/>
</linearGradient>
<linearGradient id="paint1_linear_373_353" x1="195.531" y1="86" x2="195.531" y2="303.959" gradientUnits="userSpaceOnUse">
<stop stop-color="#DEC468"/>
<stop offset="1" stop-color="#BBA247"/>
</linearGradient>
<clipPath id="clip0_373_353">
<rect width="275" height="218" fill="white" transform="translate(58 86)"/>
</clipPath>
</defs>
</svg>
