<svg width="390" height="390" viewBox="0 0 390 390" fill="none" xmlns="http://www.w3.org/2000/svg">
<circle cx="195" cy="195" r="195" fill="url(#paint0_linear_373_276)"/>
<path d="M247.674 300.769C248.335 301.629 249.109 302.357 249.513 303.251C249.827 303.948 249.958 304.999 249.642 305.624C249.397 306.102 248.329 306.368 247.623 306.371C245.564 306.38 244.057 305.161 242.662 303.801C242.386 303.533 242.136 303.239 241.675 302.745C241.919 303.93 242.208 304.842 242.267 305.768C242.311 306.449 242.054 307.149 241.929 307.843C241.267 307.722 240.496 307.775 239.97 307.443C238.453 306.49 236.945 305.483 235.595 304.311C231.671 300.913 226.966 299.562 221.974 298.903C221.043 298.781 220.09 298.762 219.175 298.565C216.282 297.943 214.778 295.914 213.982 293.241C212.775 289.187 213.12 285.101 214.016 281.074C214.414 279.283 214.057 277.698 213.612 276.051C211.826 269.417 210.168 262.755 209.337 255.922C208.604 249.882 208.807 243.836 209.384 237.796C209.491 236.671 209.556 235.533 209.763 234.423C210.114 232.554 209.914 230.969 208.704 229.303C207.212 227.246 207.67 224.829 209.528 222.766C210.215 222.006 210.575 221.225 210.772 220.234C211.572 216.229 213.646 212.856 216.21 209.749C216.746 209.102 217.295 208.467 218.037 207.589C197.948 214.366 178.739 212.412 160.25 203.581C161.742 207.223 163.479 210.84 164.72 214.619C167.45 222.938 168.957 231.485 168.603 240.291C168.487 243.189 167.979 245.996 167.108 248.785C166.215 251.642 165.835 254.659 164.911 257.504C163.049 263.246 160.843 268.879 159.028 274.635C157.931 278.111 157.113 281.703 156.521 285.304C155.972 288.624 156.58 291.863 158.799 294.586C160.539 296.718 162.88 297.909 165.478 298.696C172.16 300.725 178.855 302.723 185.505 304.852C188.442 305.79 190.739 307.631 191.993 310.56C192.055 310.704 192.14 310.841 192.178 310.988C192.463 312.129 192.839 313.311 191.827 314.28C190.858 315.205 189.768 314.777 188.752 314.346C187.837 313.958 186.966 313.464 186.054 313.005C186.533 315.262 185.894 315.909 183.634 315.162C181.91 314.59 180.296 313.686 178.632 312.93C178.732 313.167 178.892 313.517 179.024 313.877C179.51 315.193 178.898 316.231 177.538 316C175.99 315.734 174.41 315.255 173.019 314.54C166.212 311.032 159.498 307.343 152.675 303.864C149.795 302.395 146.767 301.182 143.74 300.028C138.744 298.121 137.6 295.042 140.333 290.428C140.553 290.059 140.719 289.643 140.998 289.327C144.298 285.629 144.981 281.018 144.972 276.417C144.962 271.793 144.301 267.166 143.787 262.555C143.132 256.7 142.094 250.873 142.963 244.952C143.141 243.72 143.301 242.467 143.68 241.291C144.172 239.763 143.846 238.412 143.276 237.002C140.932 231.178 137.174 226.367 132.394 222.407C127.978 218.746 123.327 215.37 118.789 211.853C111.136 205.919 105.463 198.514 102.125 189.401C99.4767 182.17 98.6681 174.743 100.201 167.171C102.388 156.367 108.415 148.339 118.231 143.266C124.866 139.836 132.043 138.623 139.456 138.614C146.022 138.605 152.478 139.517 158.903 140.796C159.78 140.971 160.755 140.768 161.667 140.621C169.929 139.292 178.228 138.305 186.583 137.779C196.957 137.126 207.337 137.007 217.696 137.711C227.18 138.355 236.635 139.452 246.103 140.318C246.646 140.368 247.276 140.215 247.764 139.961C251.337 138.126 253.851 135.257 255.59 131.69C256.408 130.014 257.154 128.307 257.969 126.541C260.326 127.172 262.507 128.145 264.519 129.504C264.939 129.789 265.359 130.08 265.804 130.317C268.28 131.633 269.616 131.089 270.879 128.601C271.59 127.201 272.54 125.863 273.618 124.725C274.42 123.881 275.545 123.265 276.633 122.783C279.381 121.567 280.444 119.207 279.146 116.478C278.216 114.524 277.04 112.683 275.843 110.56C277.767 110.423 279.751 110.185 281.738 110.16C286.439 110.094 291.034 110.691 295.331 112.755C298.362 114.212 300.744 116.412 302.668 119.157C303.003 119.635 303.621 119.967 304.172 120.232C304.975 120.62 305.868 120.82 306.664 121.22C308.692 122.236 309.265 124.053 308.146 126.019C307.222 127.638 306.043 129.126 305.219 130.789C302.574 136.135 302.543 141.621 305.188 146.914C309.228 154.992 303.445 164.373 294.153 164.423C292.156 164.433 290.157 163.939 288.063 163.664C286.982 166.108 285.825 168.79 284.615 171.445C281.193 178.941 277.269 186.165 272.828 193.115C268.932 199.211 264.66 205.028 259.978 210.543C255.499 215.82 250.717 220.806 245.514 225.376C242.082 228.393 238.553 231.278 236.413 235.483C234.727 238.794 233.507 242.179 233.232 245.912C232.84 251.229 231.498 256.347 229.803 261.389C227.64 267.829 226.315 274.431 226.418 281.259C226.465 284.288 227.173 287.13 229.189 289.524C231.376 292.125 234.376 292.982 237.557 293.526C241.484 294.198 245.436 294.808 249.078 296.549C250.491 297.224 251.685 298.149 252.127 299.747C252.563 301.319 251.917 302.026 250.312 301.666C249.457 301.457 248.629 301.094 247.674 300.769ZM147.065 185.124C147.88 186.009 148.57 186.809 149.312 187.553C153.224 191.458 156.888 195.547 159.426 200.521C159.586 200.833 159.918 201.124 160.241 201.28C169.468 205.776 179.177 208.577 189.435 209.289C199.038 209.955 208.391 208.539 217.508 205.513C217.89 205.385 218.297 205.135 218.548 204.825C223.083 199.211 228.201 194.193 233.927 189.792C235.14 188.857 236.363 187.938 237.582 187.013C237.149 186.922 236.801 186.966 236.485 187.094C235.905 187.325 235.322 187.566 234.783 187.872C228.831 191.236 223.447 195.356 218.605 200.167C217.479 201.283 216.267 202.021 214.706 202.337C210.5 203.193 206.241 203.619 201.981 203.325C195.591 202.884 189.203 202.306 182.841 201.537C176.328 200.749 169.935 199.28 163.667 197.332C162.059 196.832 160.498 196.094 159.489 194.653C156.38 190.208 151.823 187.678 147.065 185.124ZM304.317 124.881C302.433 123.396 300.308 122.865 297.948 123.806C297.337 124.049 296.948 124.024 296.384 123.64C294.833 122.58 293.071 121.967 291.178 122.192C286.063 122.802 282.443 125.922 279.121 129.511C279.497 129.433 279.814 129.242 280.134 129.061C282.24 127.879 284.293 126.578 286.474 125.55C288.981 124.365 291.633 124.043 294.331 125.072C294.992 125.325 295.297 125.647 295.337 126.413C295.544 130.173 297.478 133.29 299.217 136.482C299.186 135.929 299.029 135.419 298.904 134.9C298.362 132.709 297.729 130.533 297.324 128.317C296.961 126.331 297.888 125.119 299.879 124.906C301.336 124.753 302.822 124.881 304.317 124.881ZM240.838 163.526C241.142 159.931 241.236 156.277 241.813 152.697C242.408 149.005 244.185 145.729 246.749 142.715C245.126 142.475 243.674 142.231 242.214 142.078C242.023 142.059 241.687 142.456 241.578 142.728C239.892 146.936 238.882 151.278 239.155 155.842C239.315 158.518 239.926 161.103 240.838 163.526ZM278.733 149.38C278.667 149.459 278.601 149.537 278.535 149.615C279.272 150.312 279.936 151.112 280.76 151.687C286.769 155.908 293.519 158.205 300.753 159.168C302.452 159.396 303.157 158.793 303.574 156.98C294.745 156.239 286.421 153.844 278.733 149.38ZM162.385 142.872C160.623 142.847 159.458 143.406 158.458 144.741C156.308 147.614 154.524 150.653 153.462 154.076C152.75 156.361 152.349 158.715 152.475 161.144C154.606 154.47 157.79 148.386 162.385 142.872Z" fill="url(#paint1_linear_373_276)"/>
<path d="M283.352 178.932C283.97 183.361 283.985 187.766 283.415 192.149C282.716 197.52 281.713 202.859 281.146 208.242C280.074 218.424 280.829 228.54 283.396 238.437C285.371 246.053 287.825 253.543 290.05 261.095C292.708 270.105 295.475 279.086 297.945 288.149C299.205 292.772 302.022 295.37 306.507 296.618C309.814 297.537 313.051 298.7 316.317 299.756C316.577 299.841 316.922 299.875 317.066 300.056C317.452 300.538 318.056 301.129 317.994 301.598C317.928 302.073 317.229 302.601 316.693 302.826C316.198 303.032 315.546 302.87 314.888 302.87C315.01 303.911 315.982 305.268 314.371 305.721C313.418 305.99 312.28 305.599 311.249 305.505C311.39 307.19 310.901 308.062 309.328 308.366C308.789 308.469 308.074 308.319 307.604 308.025C304.432 306.024 301.333 303.911 298.149 301.932C297.005 301.222 295.735 300.666 294.453 300.238C292.231 299.494 289.953 298.931 287.709 298.246C284.891 297.387 284.431 296.636 284.688 293.735C284.904 291.3 285.305 288.843 285.189 286.42C284.941 281.337 283.105 276.645 280.554 272.331C276.683 265.785 272.527 259.407 268.468 252.974C264.839 247.222 261.551 241.298 258.938 235.005C258.348 233.589 257.305 232.37 256.512 231.035C254.948 228.403 254.403 225.623 255.28 222.619C255.897 220.506 257.261 218.933 258.931 217.389C258.43 216.948 257.953 216.529 257.364 216.011C267.773 204.853 276.269 192.405 283.352 178.932Z" fill="url(#paint2_linear_373_276)"/>
<path d="M101.163 278.211C102.862 278.423 103.896 279.058 103.977 280.014C104.068 281.118 103.238 281.349 102.344 281.618C102.608 281.849 102.915 281.996 103.018 282.234C103.238 282.744 103.564 283.35 103.444 283.816C103.347 284.203 102.708 284.641 102.253 284.716C101.338 284.866 100.367 284.901 99.4485 284.776C96.3551 284.36 93.2648 284.4 90.1997 284.86C85.3073 285.591 81.5589 283.71 78.2806 280.255C74.949 276.745 71.5109 273.328 67.9944 270.001C66.2425 268.345 64.1363 267.072 62.3185 265.478C59.7517 263.227 59.6765 260.526 62.2872 258.372C64.1614 256.825 66.2456 255.365 68.4771 254.449C72.7238 252.705 76.4973 250.273 80.1768 247.615C88.4226 241.66 95.838 234.826 102.319 226.98C105.635 222.966 107.171 218.264 107.948 213.234C108.472 209.833 108.23 206.463 107.541 203.109C107.503 202.921 107.503 202.727 107.45 202.187C108.418 203.418 109.189 204.403 109.97 205.381C113.355 209.633 117.473 213.075 121.795 216.338C126.183 219.652 130.37 223.232 134.66 226.67C135.315 227.195 135.262 227.636 134.924 228.352C131.89 234.798 126.932 239.425 121.049 243.242C113.107 248.397 104.454 251.817 95.3804 254.421C90.6353 255.781 85.9028 257.441 81.9601 260.632C81.2486 261.208 80.6688 261.98 80.1486 262.743C79.5813 263.577 79.4058 264.518 79.8508 265.515C80.9227 267.926 81.7156 270.499 83.0821 272.727C84.9093 275.71 87.8773 276.804 91.375 276.423C94.017 276.132 96.6654 275.885 99.3106 275.619C99.4673 275.603 99.6334 275.578 99.7775 275.616C100.542 275.816 101.304 276.035 102.065 276.247C101.771 276.879 101.483 277.514 101.163 278.211Z" fill="url(#paint3_linear_373_276)"/>
<path d="M121.541 139.664C116.295 141.684 111.593 144.46 107.572 148.764C106.823 146.561 106.068 144.55 105.457 142.497C103.902 137.27 102.555 131.977 100.834 126.803C99.8968 123.987 98.6212 121.211 97.051 118.691C94.4278 114.48 89.9899 113.783 85.483 115.646C80.8226 117.569 77.4722 120.986 74.8145 125.162C71.4453 130.452 69.8469 136.332 69.1668 142.475C68.3143 150.143 67.7282 157.84 66.8036 165.495C65.7192 174.489 64.0174 183.377 60.8958 191.924C58.774 197.744 55.9753 203.225 52.067 208.073C50.6755 209.802 49.0771 211.365 47.5319 212.969C47.1621 213.353 46.6669 213.753 46.1749 213.847C45.3913 213.997 44.4386 214.15 43.7773 213.838C42.8464 213.397 42.8746 212.272 43.2257 211.437C43.6456 210.449 44.2631 209.524 44.9118 208.661C47.9958 204.544 50.4404 200.073 52.4306 195.344C55.2889 188.557 57.1067 181.482 58.4105 174.249C59.9023 165.971 60.4351 157.611 61.0024 149.243C61.6668 139.411 63.5786 129.836 67.8724 120.876C70.6241 115.13 74.4572 110.207 80.1989 107.159C85.5927 104.295 91.2623 102.72 97.3049 105.196C101.185 106.787 104.012 109.644 106.049 113.202C108.375 117.263 110.493 121.439 112.653 125.594C115.088 130.277 117.771 134.8 121.068 138.939C121.234 139.139 121.359 139.377 121.541 139.664Z" fill="url(#paint4_linear_373_276)"/>
<path d="M265.002 107.721C269.127 107.865 273.054 110.341 275.828 114.721C276.42 115.655 276.849 116.696 277.279 117.722C277.736 118.813 277.238 120.148 275.937 120.61C272.722 121.755 270.59 124.152 269.127 127.166C268.202 129.067 267.873 129.207 266.203 127.969C263.808 126.197 261.107 125.171 258.267 124.384C254.346 123.293 252.503 120.97 252.597 117.272C252.657 114.905 253.679 112.901 255.327 111.238C257.662 108.878 260.514 107.706 265.002 107.721ZM265.798 111.776C262.877 111.838 260.621 113.064 259.145 115.618C257.637 118.228 258.615 120.985 261.367 122.177C263.542 123.117 265.673 124.155 267.807 125.187C268.371 125.462 268.679 125.356 268.911 124.809C269.863 122.558 271.383 120.895 273.712 119.957C274.107 119.798 274.571 118.897 274.452 118.51C273.336 114.908 269.957 111.754 265.798 111.776Z" fill="url(#paint5_linear_373_276)"/>
<path d="M294.632 111.438C298.829 109.266 302.555 110.597 304.235 114.961C304.809 116.45 305.047 118.063 305.439 119.619C305.288 119.719 305.138 119.819 304.987 119.92C304.433 119.579 303.68 119.369 303.358 118.879C301.289 115.727 298.569 113.38 295.124 111.848C294.983 111.785 294.855 111.698 294.726 111.613C294.701 111.598 294.692 111.551 294.632 111.438Z" fill="url(#paint6_linear_373_276)"/>
<defs>
<linearGradient id="paint0_linear_373_276" x1="195" y1="0" x2="195" y2="390" gradientUnits="userSpaceOnUse">
<stop stop-color="#37C7AB"/>
<stop offset="1" stop-color="#002F46"/>
</linearGradient>
<linearGradient id="paint1_linear_373_276" x1="204.07" y1="110.155" x2="204.07" y2="316.032" gradientUnits="userSpaceOnUse">
<stop stop-color="#DEC468"/>
<stop offset="1" stop-color="#BBA247"/>
</linearGradient>
<linearGradient id="paint2_linear_373_276" x1="286.43" y1="178.932" x2="286.43" y2="308.398" gradientUnits="userSpaceOnUse">
<stop stop-color="#DEC468"/>
<stop offset="1" stop-color="#BBA247"/>
</linearGradient>
<linearGradient id="paint3_linear_373_276" x1="97.7649" y1="202.187" x2="97.7649" y2="285.016" gradientUnits="userSpaceOnUse">
<stop stop-color="#DEC468"/>
<stop offset="1" stop-color="#BBA247"/>
</linearGradient>
<linearGradient id="paint4_linear_373_276" x1="82.2705" y1="103.966" x2="82.2705" y2="214.02" gradientUnits="userSpaceOnUse">
<stop stop-color="#DEC468"/>
<stop offset="1" stop-color="#BBA247"/>
</linearGradient>
<linearGradient id="paint5_linear_373_276" x1="265.02" y1="107.721" x2="265.02" y2="128.771" gradientUnits="userSpaceOnUse">
<stop stop-color="#DEC468"/>
<stop offset="1" stop-color="#BBA247"/>
</linearGradient>
<linearGradient id="paint6_linear_373_276" x1="300.035" y1="110.414" x2="300.035" y2="119.92" gradientUnits="userSpaceOnUse">
<stop stop-color="#DEC468"/>
<stop offset="1" stop-color="#BBA247"/>
</linearGradient>
</defs>
</svg>
