<svg width="390" height="390" viewBox="0 0 390 390" fill="none" xmlns="http://www.w3.org/2000/svg">
<circle cx="195" cy="195" r="195" fill="url(#paint0_linear_373_663)"/>
<path d="M283.066 157.919C271.155 175.401 256.979 189.966 239.823 201.581C217.728 216.539 193.175 225.044 166.863 228.579C133.386 233.076 100.384 230.126 67.7988 221.589C66.8431 221.341 65.9114 221.012 64.6022 220.603C66.9073 215.297 69.0759 210.15 71.4533 205.1C71.7184 204.531 73.3006 204.179 74.1439 204.347C93.8298 208.195 113.692 209.998 133.732 209.341C169.047 208.171 202.411 200.082 232.482 180.78C245.06 172.708 256.312 163.081 266.176 151.883C267.975 149.839 269.244 149.774 271.38 151.121C275.099 153.47 278.978 155.562 283.066 157.919Z" fill="#DEC468"/>
<path d="M236.506 215.145C236.755 217.958 236.747 220.467 237.229 222.88C238.996 231.665 246.257 237.741 255.212 238.335C257.292 238.471 259.332 239.136 261.348 239.962C253.341 245.108 244.883 248.675 236.121 251.521C213.27 258.952 189.721 261.404 165.802 261.276C148.197 261.18 130.728 259.609 113.371 256.811C111.733 256.547 110.191 255.425 108.713 254.527C105.251 252.411 101.846 250.174 97.9019 247.665C98.3356 245.012 98.8818 241.605 99.4922 237.878C147.41 243.681 193.649 239.713 236.506 215.145Z" fill="#DEC468"/>
<path d="M313.772 267.136C305.21 267.136 296.881 267.376 288.568 267.064C281.283 266.783 275.629 260.499 275.324 253.148C275.195 249.958 275.332 246.695 274.705 243.593C273.019 235.273 265.734 229.261 257.228 228.724C249.654 228.251 246.859 224.796 246.257 217.317C245.759 211.169 247.405 206.984 252.891 203.858C256.329 201.902 259.091 198.8 262.28 196.371C263.107 195.738 264.441 195.321 265.461 195.449C281.46 197.397 294.054 211.145 294.536 227.273C294.728 233.677 294.584 240.098 294.608 246.503C294.624 250.944 295.981 252.387 300.399 252.771C308.029 253.437 313.603 259.296 313.772 267.136Z" fill="#DEC468"/>
<path d="M127.692 199.946C129.828 188.155 132.109 176.796 133.844 165.357C134.454 161.342 136.109 159.714 139.948 158.816C147.249 157.109 154.389 154.728 161.65 152.829C163.16 152.428 165.039 152.476 166.509 153.005C171.505 154.784 176.356 156.973 181.336 158.792C183.119 159.442 183.794 160.259 183.77 162.199C183.665 171.41 183.673 180.62 183.762 189.83C183.778 191.642 183.264 192.419 181.44 192.908C169.007 196.243 156.357 198.239 143.538 199.201C138.358 199.577 133.161 199.698 127.692 199.946Z" fill="#DEC468"/>
<path d="M109.428 147.306C114.504 150.913 119.347 154.296 124.102 157.79C124.688 158.223 125.25 159.306 125.138 159.963C122.8 173.141 120.367 186.303 117.805 200.211C103.95 198.64 90.2557 197.085 76.0555 195.481C85.3563 177.582 95.8056 161.55 109.428 147.306Z" fill="#DEC468"/>
<path d="M292.793 197.774C285.781 193.654 279.452 189.942 272.922 186.103C273.002 186.007 273.629 185.301 274.215 184.572C279.589 177.846 284.801 170.993 290.383 164.436C295.491 158.432 300.768 152.532 306.399 147.025C310.824 142.689 318.189 142.624 323.434 146.079C328.51 149.422 330.349 154.953 327.996 161.742C326.839 165.085 325.032 168.348 322.888 171.169C314.471 182.255 303.395 190.375 292.793 197.774ZM313.844 166.135C316.43 166.159 318.623 164.043 318.695 161.462C318.776 158.777 316.495 156.492 313.796 156.548C311.21 156.604 309.081 158.793 309.097 161.366C309.113 163.955 311.258 166.111 313.844 166.135Z" fill="#DEC468"/>
<path d="M169.369 119.017C186.524 118.713 202.821 122.456 219.214 127.779C217.495 131.234 215.937 134.536 214.202 137.743C213.816 138.456 212.917 138.977 212.138 139.37C204.805 143.073 197.464 146.768 190.066 150.344C189.135 150.792 187.713 150.889 186.749 150.528C180.942 148.348 175.2 145.991 169.361 143.666C169.369 135.522 169.369 127.434 169.369 119.017Z" fill="#DEC468"/>
<path d="M237.783 165.253C224.185 175.658 209.616 183.434 193.359 189.157C193.359 184.468 193.359 180.123 193.359 175.77C193.359 171.161 193.424 166.552 193.327 161.943C193.295 160.259 193.705 159.241 195.359 158.456C201.865 155.346 208.274 152.027 214.772 148.885C215.607 148.484 217.109 148.228 217.68 148.684C224.378 154.063 230.964 159.586 237.783 165.253Z" fill="#DEC468"/>
<path d="M89.9103 236.403C89.1312 241.204 88.4325 245.733 87.6534 250.246C86.794 255.232 88.2076 257.148 93.1792 257.589C100.769 258.27 106.416 264.282 106.408 271.833C97.7092 271.833 88.9706 272.282 80.3043 271.689C73.1801 271.2 68.3771 264.827 67.9434 257.629C67.574 251.561 67.8711 246.158 73.7906 242.39C75.9431 241.02 77.1318 238.206 78.9148 236.186C79.5252 235.489 80.6657 234.735 81.4689 234.823C84.1515 235.12 86.7779 235.785 89.9103 236.403Z" fill="#DEC468"/>
<path d="M116.608 140.572C129.089 129.654 142.84 122.015 159.473 119.707C159.473 127.698 159.473 135.386 159.473 143.313C151.932 145.486 144.285 147.474 136.792 149.927C133.097 151.137 130.27 150.848 127.258 148.267C124.021 145.478 120.319 143.217 116.608 140.572Z" fill="#DEC468"/>
<path d="M259.991 144.717C254.883 149.735 250.273 154.264 245.413 159.041C238.161 153.021 230.948 147.033 223.511 140.853C225.117 137.63 226.699 134.464 228.539 130.777C238.948 135.394 249.148 139.915 259.991 144.717Z" fill="#DEC468"/>
<path d="M60 240.499C60.6666 237.132 61.3333 233.766 62.0561 230.11C64.6825 230.792 67.0439 231.401 70.4895 232.299C66.8993 235.601 63.8874 238.367 60.8755 241.14C60.5783 240.924 60.2891 240.707 60 240.499Z" fill="#DEC468"/>
<defs>
<linearGradient id="paint0_linear_373_663" x1="195" y1="0" x2="195" y2="390" gradientUnits="userSpaceOnUse">
<stop stop-color="#37C7AB"/>
<stop offset="1" stop-color="#002F46"/>
</linearGradient>
</defs>
</svg>
