<svg width="390" height="390" viewBox="0 0 390 390" fill="none" xmlns="http://www.w3.org/2000/svg">
<circle cx="195" cy="195" r="195" fill="url(#paint0_linear_373_678)"/>
<path d="M332.066 159.295C330.681 154.118 328.045 149.761 323.403 146.896C320.518 145.115 317.378 143.791 314.151 142.758C306.843 140.415 299.385 139.305 291.675 139.952C287.875 140.27 284.123 140.799 280.44 141.706C271.51 143.902 263.227 147.614 255.445 152.526C249.731 156.132 244.785 160.643 240.003 165.329C234.915 170.312 229.785 175.258 224.973 180.522C222.863 182.831 220.582 184.976 218.438 187.254C215.558 190.315 212.659 193.36 209.784 196.426C208.666 197.616 208.468 199.052 209.324 200.39C209.65 200.9 210.023 201.398 210.458 201.817C213.538 204.799 216.503 207.895 219.62 210.843C222.808 213.861 226.102 216.735 229.493 219.516C231.554 221.205 232.851 221.207 234.74 219.325C235.989 218.08 237.24 216.837 238.48 215.582C242.457 211.561 246.635 207.729 250.117 203.243C253.2 199.271 256.538 195.506 259.974 191.851C263.091 188.536 266.309 185.307 269.691 182.244C272.656 179.558 275.69 176.971 278.837 174.504C285.179 169.527 291.9 165.168 299.436 162.236C305.051 160.052 310.82 158.524 316.974 159.067C319.497 159.29 321.841 159.914 324.001 161.177C327.507 163.228 329.094 166.446 329.046 170.391C329.018 172.658 328.477 174.902 327.502 176.998C326.573 178.999 325.65 181.003 324.739 183.013C324.659 183.19 324.404 183.408 324.666 183.618C324.877 183.788 325.107 183.668 325.294 183.53C325.899 183.075 326.593 182.693 327.083 182.133C329.572 179.298 331.447 176.124 332.379 172.414C332.606 171.507 332.577 170.542 333.002 169.686C333.002 167.615 333.002 165.543 333.002 163.474C332.692 162.077 332.434 160.671 332.066 159.295Z" fill="#DEC468"/>
<path d="M70.5555 138.435C74.2705 141.508 78.2041 144.297 82.2319 146.956C89.8873 152.01 97.8809 156.482 106.012 160.703C114.323 165.016 122.929 168.681 131.622 172.142C132.82 172.619 134.033 173.065 135.249 173.493C135.721 173.659 136.308 173.765 136.678 173.431C136.991 173.148 136.584 172.734 136.439 172.395C134.642 168.206 132.827 164.024 131.461 159.667C131.01 158.229 130.094 157.414 128.631 157.002C125.56 156.141 122.545 155.101 119.545 154.015C113.111 151.681 106.824 148.995 100.648 146.054C96.7997 144.222 93.0019 142.293 89.2524 140.263C85.3396 138.145 81.5119 135.892 77.7578 133.505C74.3878 131.363 71.1582 129.022 68.154 126.389C66.6312 125.056 65.1981 123.576 64.4229 121.671C63.4453 119.27 63.6224 117.164 65.9986 115.972C68.1494 114.892 70.5072 114.796 72.9065 115.012C74.3947 115.146 75.8991 115.719 77.4105 115.127C77.7187 115.007 78.0936 114.948 78.135 114.506C78.1742 114.096 77.9234 113.919 77.6083 113.714C76.7986 113.189 75.9083 112.881 74.9974 112.623C71.6068 111.663 68.154 111.654 64.7174 112.176C61.3497 112.69 58.2903 113.813 56.9975 117.447C56.9975 118.444 56.9975 119.443 56.9975 120.439C57.6232 122.584 58.3685 124.676 59.5647 126.589C62.4746 131.241 66.3782 134.981 70.5555 138.435Z" fill="#DEC468"/>
<path d="M233.045 299.468C234.512 297.054 234.772 294.34 234.521 291.62C234.041 286.414 232.265 281.546 230.121 276.841C227.466 271.018 224.271 265.483 220.676 260.18C216.485 253.996 211.923 248.115 206.729 242.732C205.167 241.114 203.656 239.445 202.198 237.733C198.694 233.622 195.055 229.629 191.685 225.403C188.771 221.75 185.732 218.19 182.909 214.468C177.768 207.69 172.767 200.808 168.213 193.611C164.551 187.825 161.059 181.942 157.949 175.838C155.407 170.853 153.162 165.739 151.179 160.503C148.366 153.073 146.387 145.437 145.831 137.515C145.49 132.647 145.69 127.754 146.923 122.966C148.853 115.477 152.451 109.106 159.269 105.039C162.204 103.288 165.423 102.132 168.953 102.965C172.004 103.688 173.549 106.478 173.294 109.233C173.184 110.425 172.703 111.583 172.388 112.756C171.574 115.797 171.348 118.793 172.627 121.811C173.119 122.975 173.809 124.016 174.322 125.162C176.211 129.397 177.619 133.841 179.832 137.933C180.703 139.547 181.325 141.248 181.916 142.974C183.059 146.314 183.853 149.78 185.571 152.91C186.82 155.186 188.297 157.241 190.696 158.422C194.788 160.436 199.044 160.549 203.449 159.631C205.998 159.101 207.734 157.817 208.684 155.412C209.202 154.102 209.591 152.758 209.966 151.405C210.596 149.138 210.759 146.723 211.73 144.583C213.881 139.83 215.705 134.964 217.239 129.986C218.514 125.857 220.039 121.806 219.887 117.33C219.765 113.7 218.686 110.508 216.439 107.753C213.715 104.413 211.645 100.712 210.092 96.735C207.732 90.6841 203.548 86.5643 197.516 84.2926C192.789 82.5135 187.864 81.915 182.578 82.0071C181.203 82.113 179.569 82.0301 177.922 82.182C174.364 82.5112 170.835 82.9692 167.318 83.586C160.307 84.8128 153.774 87.1673 147.88 91.2595C142.348 95.1009 138.109 100.038 134.973 105.953C132.445 110.724 130.849 115.806 129.853 121.111C129.071 125.277 128.595 129.466 128.576 133.687C128.567 135.991 128.882 138.304 129.17 140.612C129.8 145.683 131.01 150.615 132.501 155.478C134.384 161.628 136.846 167.564 139.59 173.376C142.81 180.198 146.537 186.743 150.65 193.066C153.716 197.782 157.121 202.254 160.553 206.71C164.238 211.495 168.01 216.211 171.82 220.897C175.107 224.938 178.484 228.908 181.909 232.835C185.764 237.259 189.668 241.643 193.645 245.956C196.578 249.132 199.656 252.175 202.687 255.262C204.721 257.331 206.563 259.563 208.188 261.959C210.895 265.952 212.94 270.185 212.728 275.212C212.602 278.213 210.226 281.619 207.405 282.565C204.935 283.394 202.457 283.037 200.003 282.519C195.582 281.585 191.508 279.7 187.471 277.748C185.93 277.002 184.446 276.137 182.916 275.368C182.431 275.124 181.704 274.613 181.382 275.028C180.956 275.575 181.658 276.084 182.068 276.517C182.199 276.655 182.339 276.788 182.472 276.924C183.894 278.367 185.348 279.776 186.875 281.111C188.511 282.54 190.054 284.08 191.729 285.461C196.152 289.111 200.672 292.642 205.57 295.654C209.273 297.931 213.066 300.032 217.182 301.457C220.639 302.654 224.147 303.687 227.892 302.921C230.086 302.469 231.876 301.392 233.045 299.468ZM212.029 123.431C212.777 123.284 213.078 123.691 212.917 124.465C212.547 126.234 211.797 127.829 210.545 129.146C209.706 130.027 208.933 129.811 208.533 128.642C207.587 125.882 209.179 123.44 212.029 123.431ZM182.346 122.476C182.383 121.981 182.578 121.758 183.052 121.836C184.872 122.138 186.629 123.466 186.486 125.473C186.551 126.119 186.314 126.725 186.031 127.307C185.787 127.809 185.631 128.439 184.915 128.469C184.237 128.497 183.88 127.94 183.602 127.484C182.67 125.958 182.212 124.29 182.346 122.476Z" fill="#DEC468"/>
<path d="M253.793 250.463C250.083 244.78 245.864 239.484 241.245 234.538C236.707 229.682 231.961 225.009 226.827 220.774C222.861 217.504 219.01 214.104 215.19 210.673C212.602 208.346 210.154 205.862 207.681 203.411C206.407 202.148 205.25 200.767 203.976 199.503C201.02 196.571 198.315 193.409 195.674 190.207C191.66 185.341 187.936 180.25 184.644 174.858C181.465 169.647 178.679 164.238 176.611 158.491C175.18 154.516 174.207 150.431 173.809 146.201C173.441 142.297 173.478 138.437 174.465 134.631C174.849 133.148 174.877 131.731 174.396 130.257C173.789 128.4 172.979 126.642 172.045 124.939C169.724 120.708 168.921 116.358 170.704 111.695C171.118 110.613 171.479 109.428 171.268 108.236C170.771 105.437 168.859 104.164 165.846 104.841C161.243 105.874 157.344 108.118 154.567 112.057C150.703 117.534 148.959 123.739 148.58 130.336C148.386 133.721 148.527 137.121 148.966 140.511C149.665 145.918 150.912 151.181 152.58 156.358C155.31 164.83 159.133 172.814 163.315 180.646C166.828 187.224 170.695 193.586 174.849 199.777C177.899 204.32 181.085 208.769 184.471 213.062C187.814 217.299 191.253 221.463 194.774 225.559C198.724 230.153 202.807 234.625 206.844 239.136C209.361 241.947 211.879 244.752 214.362 247.595C218.32 252.129 221.918 256.921 225.099 262.03C229.132 268.514 232.52 275.306 234.961 282.554C236.546 287.263 237.974 292.016 237.077 297.068C236.461 300.545 235.343 303.747 231.407 304.863C231.011 304.976 230.602 305.192 230.668 305.744C230.74 306.352 231.092 306.7 231.681 306.817C234.85 307.45 238.02 308.085 241.457 307.979C243.154 308.078 245.006 307.871 246.846 307.528C253.451 306.299 258.295 302.67 261.449 296.766C263.6 292.738 264.577 288.363 264.885 283.866C265.219 279.005 264.683 274.213 263.197 269.534C261.023 262.693 257.695 256.442 253.793 250.463Z" fill="#DEC468"/>
<path d="M196.403 274.134C198.009 273.755 199.499 273.154 200.327 271.529C201.275 269.667 201.096 267.766 200.622 265.853C199.502 261.349 197.125 257.441 194.583 253.655C190.052 246.907 184.671 240.837 179.105 234.941C176.823 232.524 174.421 230.213 171.983 227.942C167.633 223.888 163.111 220.052 158.377 216.461C151.947 211.584 145.214 207.167 138.097 203.37C132.287 200.27 126.188 197.791 119.957 195.662C114.425 193.772 108.81 192.184 103.08 190.987C96.1787 189.544 89.2225 188.637 82.8346 188.534C80.6056 188.577 79.046 188.635 77.4818 188.743C74.052 188.983 70.6706 189.42 67.4478 190.642C64.0595 191.926 61.2278 193.837 59.5946 197.312C57.6163 201.526 57.3932 205.934 57.9936 210.376C58.8056 216.381 60.8229 222.02 64.0135 227.205C64.8209 228.517 65.7824 229.7 67.1143 230.503C68.3679 231.258 69.1201 230.89 69.3939 229.456C69.4721 229.049 69.4422 228.641 69.5917 228.225C70.7695 224.97 73.3205 223.242 76.4489 222.436C79.2392 221.718 82.1123 221.589 85.0452 221.854C88.5002 222.167 91.907 222.671 95.2631 223.474C99.5831 224.508 103.804 225.87 107.972 227.421C115.29 230.146 122.352 233.429 129.255 237.054C136.025 240.609 142.472 244.699 148.72 249.114C157.123 255.052 165.335 261.271 174.187 266.555C178.861 269.345 183.581 272.033 188.879 273.506C191.349 274.197 193.838 274.737 196.403 274.134Z" fill="#DEC468"/>
<path d="M160.879 262.53C156.281 259.227 151.956 255.57 147.406 252.21C143.65 249.434 139.875 246.668 135.567 244.769C133.306 243.772 131.12 243.247 128.574 244.258C124.979 245.687 121.146 245.003 117.424 244.617C114.22 244.283 111.073 243.535 107.979 242.619C105.9 242.004 103.846 241.305 102.026 240.076C100.627 239.13 100.653 237.935 102.072 237.019C102.295 236.877 102.537 236.743 102.787 236.672C105.536 235.896 108.329 235.776 111.158 236.106C112.407 236.251 113.677 236.356 114.887 235.866C115.303 235.698 115.793 235.5 115.83 234.969C115.867 234.439 115.416 234.133 115.027 233.942C114.11 233.486 113.173 233.054 112.203 232.729C104.138 230.036 96.0314 227.516 87.587 226.236C84.6173 225.785 81.6798 225.603 78.7538 226.319C76.8262 226.791 74.9813 227.541 73.5827 229.024C71.5056 231.224 71.9495 234.612 73.125 236.81C74.6869 239.728 76.9044 242.147 79.0966 244.557C82.1054 247.862 85.588 250.661 89.2455 253.218C95.0147 257.25 101.29 260.304 107.922 262.645C116.824 265.787 126.037 267.426 135.415 268.128C138.723 268.374 142.054 268.615 145.387 268.392C147.827 268.268 150.266 268.397 152.718 268.233C155.984 268.015 159.251 267.858 162.506 267.497C163.051 267.437 163.633 267.495 163.861 266.88C164.084 266.272 163.907 265.695 163.557 265.145C162.869 264.061 161.882 263.25 160.879 262.53Z" fill="#DEC468"/>
<path d="M325.006 168.429C323.845 164.749 321.105 162.88 317.597 161.858C315.681 161.299 313.709 161.191 311.731 161.096C310.549 161.039 309.417 161.209 308.304 161.577C308.092 161.646 307.805 161.741 307.86 162.001C307.901 162.192 308.111 162.415 308.299 162.489C308.932 162.735 309.587 162.935 310.238 163.126C312.138 163.688 313.095 165.373 312.58 167.518C311.681 171.267 309.337 174.015 306.411 176.292C302.206 179.564 297.359 181.523 292.225 182.798C285.696 184.421 279.048 185.065 272.334 185.093C271.122 185.097 270.183 185.53 269.265 186.343C267.057 188.297 265.069 190.455 263.043 192.584C261.226 194.492 259.473 196.456 257.702 198.403C257.099 199.066 257.513 199.37 258.063 199.558C258.82 199.818 259.638 199.77 260.43 199.864C264.324 200.32 268.212 200.826 272.148 200.746C273.749 200.714 275.352 200.608 276.946 200.569C282.02 200.444 287.028 199.857 292.001 198.902C296.901 197.959 301.66 196.534 306.201 194.465C310.731 192.403 314.588 189.399 317.986 185.76C320.661 182.895 322.968 179.801 324.358 176.114C325.294 173.633 325.844 171.088 325.006 168.429Z" fill="#DEC468"/>
<path d="M203.757 175.145C198.363 174.137 193.015 172.883 187.648 171.723C187.28 171.642 186.889 171.375 186.624 171.808C186.397 172.181 186.431 172.611 186.677 173.002C187.181 173.806 187.676 174.614 188.184 175.415C191.276 180.296 194.8 184.86 198.446 189.332C199.127 190.168 199.957 190.831 201.075 191.008C203.21 191.344 205.321 191.88 207.415 191.777C210.403 191.74 209.74 192.122 211.877 189.954C215.233 186.552 218.562 183.12 221.902 179.7C222.01 179.59 222.127 179.488 222.217 179.366C222.737 178.655 222.585 178.179 221.709 177.985C220.789 177.781 219.85 177.631 218.912 177.525C213.826 176.945 208.781 176.082 203.757 175.145Z" fill="#DEC468"/>
<defs>
<linearGradient id="paint0_linear_373_678" x1="195" y1="0" x2="195" y2="390" gradientUnits="userSpaceOnUse">
<stop stop-color="#37C7AB"/>
<stop offset="1" stop-color="#002F46"/>
</linearGradient>
</defs>
</svg>
