<svg width="390" height="390" viewBox="0 0 390 390" fill="none" xmlns="http://www.w3.org/2000/svg">
<circle cx="195" cy="195" r="195" fill="url(#paint0_linear_373_647)"/>
<path fill-rule="evenodd" clip-rule="evenodd" d="M250.826 124.253C250.554 124.546 250.214 124.918 250.497 125.065L250.486 125.076C250.1 125.245 249.658 125.076 249.465 124.704C248.399 122.732 246.029 121.627 243.75 121.3C241.21 120.928 238.613 121.267 236.073 120.928C233.533 120.59 230.857 119.339 229.938 116.961C229.644 121.12 229.621 125.786 232.456 128.863C235.302 131.951 239.985 132.334 244.181 132.549C243.296 135.626 240.382 137.88 237.388 139.232C234.123 140.709 230.528 141.52 227.523 143.47C224.518 145.42 222.159 149.06 223.225 152.475C223.917 154.684 225.924 156.307 228.113 157.108C230.301 157.919 232.671 158.043 235.007 158.145C242.06 158.449 249.125 158.618 256.201 158.652C249.613 175.468 234.474 188.779 216.818 193.073C221.649 189.308 226.48 185.544 231.31 181.779C207.361 190.819 180.384 178.77 155.074 182.659C132.622 186.096 112.846 203.149 106.257 224.755C107.641 226.896 111.145 226.198 112.902 224.361C115.272 221.881 115.919 218.105 119.162 216.246C120.489 215.49 122.167 215.445 123.391 216.358C125.353 217.823 124.809 220.562 124.095 222.738C120.783 232.78 116.191 242.405 110.476 251.309C106.087 258.15 100.916 264.857 99.4536 272.836C97.6279 282.811 101.96 292.774 106.178 302.005C111.213 313.028 116.259 324.04 121.294 335.062C123.097 339.007 125.274 343.335 130.116 343.955C132.565 344.271 134.958 342.749 135.411 340.337C135.888 337.824 133.994 336.167 132.361 334.634C124.299 327.105 118.391 310.796 114.977 299.097C111.984 288.818 114.637 277.694 121.974 269.861C131.443 259.762 144.687 253.079 158.567 252.098C171.313 251.185 183.922 254.69 196.657 255.84C200.966 256.223 205.297 256.336 209.629 256.178C215.968 263.459 223.747 273.783 224.552 292.391C225.13 305.623 226.06 318.675 226.287 331.918C226.355 335.817 226.718 340.168 230.562 342.298C232.49 343.358 234.996 342.884 236.198 341.047C237.479 339.086 236.459 336.978 235.642 335.051C232.58 327.849 234.633 317.683 234.168 309.872C233.737 302.681 234.055 295.479 233.624 288.289C233.272 282.36 239.271 269.478 240.133 263.605C240.155 263.459 240.178 263.312 240.189 263.166C240.734 259.052 239.872 266.096 240.632 270.176C243.999 288.458 246.97 310.007 246.415 328.537C246.324 331.591 246.154 334.713 247.095 337.61C248.161 340.923 251.041 343.955 254.738 343.617C257.153 343.391 259.172 341.532 259.183 339.12C259.195 336.798 257.244 335.389 256.008 333.62C253.513 330.047 253.752 322.146 254.216 317.829C255.532 305.792 255.339 293.586 253.661 281.594C252.799 275.451 251.563 269.061 253.434 263.143C255.282 257.294 259.864 252.797 263.912 248.176C272.235 238.674 280.558 223.121 284.754 211.23C284.142 212.954 282.951 215.028 281.443 217.237C287.385 205.538 289.29 191.923 287.997 178.827C286.534 163.915 281.182 149.601 274.254 136.302C282.996 132.334 289.743 124.242 292.023 114.966C285.604 116.86 279.027 120.004 272.394 121.965C272.394 121.965 270.806 121.097 268.391 120.342C268.482 119.61 268.55 118.832 268.606 117.998C268.811 114.752 270.285 112.239 270.92 107.11C271.555 101.982 273.448 98.0036 273.868 94.8703C274.288 91.7258 277.44 86.9131 278.71 82.7204C279.969 78.5389 283.337 73.298 284.391 67.3245C285.446 61.3622 284.709 58.9503 284.391 57.068C284.074 55.1858 282.191 48.4797 280.184 45.9663C281.556 49.077 284.278 61.2382 280.989 67.5837L280.978 67.595C280.978 67.6175 280.967 67.6288 280.955 67.6401L280.944 67.6626L280.921 67.7077L280.899 67.7415L280.887 67.764C280.887 67.7753 280.876 67.7979 280.864 67.8091L280.853 67.8317C280.853 67.8542 280.842 67.8655 280.83 67.888L280.819 67.9106C280.819 67.9218 280.808 67.9331 280.796 67.9556V67.9782C280.785 68.0007 280.774 68.012 280.774 68.0233V68.0458C280.762 68.0683 280.751 68.0796 280.751 68.1134L280.74 68.1247C280.74 68.1472 280.728 68.1698 280.717 68.1811V68.2036C280.706 68.2261 280.694 68.2374 280.694 68.2712L280.683 68.2825C280.683 68.305 280.672 68.3276 280.66 68.3614C280.649 68.3952 280.649 68.4065 280.638 68.4403V68.4516C280.626 68.4854 280.626 68.4966 280.615 68.5305V68.5417C280.604 68.5755 280.604 68.5868 280.592 68.6206V68.6319C280.581 68.6544 280.581 68.6882 280.57 68.7221V68.7333C280.57 68.7671 280.558 68.7897 280.558 68.8235C280.241 70.9199 278.551 71.2354 278.234 73.0162C277.916 74.797 276.771 74.6843 276.238 76.6792C276.227 76.7018 276.215 76.7356 276.204 76.7694C275.728 78.4149 274.65 78.3473 274.117 79.5984C274.106 79.6322 274.095 79.6435 274.083 79.6773C274.072 79.6998 274.061 79.7224 274.049 79.7449C274.038 79.7787 274.027 79.79 274.027 79.8238C274.015 79.8463 274.015 79.8689 274.004 79.9027C273.993 79.9252 273.981 79.9478 273.97 79.9816C273.959 80.0154 273.959 80.0379 273.947 80.0718C273.936 80.0943 273.925 80.1281 273.925 80.1619C273.913 80.1845 273.902 80.2183 273.891 80.2634C273.471 82.247 272.212 82.664 271.577 85.0647C271.566 85.0985 271.555 85.1436 271.543 85.1774C271.532 85.2112 271.521 85.245 271.521 85.2901C271.509 85.3239 271.498 85.3578 271.487 85.3916C271.475 85.4254 271.464 85.4592 271.453 85.493C271.43 85.5381 271.419 85.5606 271.419 85.5944C271.407 85.6395 271.396 85.6621 271.385 85.6959C271.362 85.7184 271.362 85.7522 271.351 85.7973C271.339 85.8199 271.328 85.8537 271.305 85.8875C271.294 85.91 271.283 85.9438 271.271 85.9776C271.249 86.0115 271.249 86.034 271.237 86.0565C271.226 86.0791 271.203 86.1129 271.192 86.1467C271.18 86.1693 271.169 86.1918 271.158 86.2256C271.146 86.2481 271.135 86.2707 271.112 86.3045C271.101 86.327 271.09 86.3496 271.078 86.3834C271.067 86.4059 271.056 86.4285 271.033 86.451C271.022 86.4848 271.01 86.4961 270.999 86.5299C270.988 86.5525 270.976 86.575 270.954 86.5975C270.942 86.6201 270.931 86.6426 270.908 86.6652C270.897 86.6877 270.886 86.7103 270.874 86.7328C270.863 86.7553 270.84 86.7666 270.84 86.8004C270.795 86.8568 270.761 86.9244 270.727 86.9808C270.171 87.8261 269.604 88.4009 269.468 90.0126C269.332 91.6243 268.72 91.8948 268.187 92.7176C268.164 92.7627 268.141 92.7965 268.107 92.8303C268.073 92.8754 268.062 92.9205 268.028 92.9655C268.017 92.9881 268.005 93.0106 267.994 93.0332C267.983 93.067 267.971 93.0783 267.96 93.1121C267.937 93.1346 267.937 93.1572 267.926 93.191C267.915 93.2135 267.903 93.236 267.881 93.2699C267.869 93.2924 267.858 93.3149 267.847 93.3488C267.835 93.3713 267.824 93.4051 267.813 93.4389C267.801 93.4727 267.79 93.4953 267.779 93.5291C267.767 93.5629 267.756 93.5854 267.756 93.6193C267.745 93.6531 267.722 93.6756 267.711 93.7207C267.699 93.7545 267.688 93.777 267.677 93.8221C267.665 93.8672 267.654 93.8898 267.654 93.9348C267.643 93.9574 267.631 94.0025 267.62 94.0363C267.608 94.0701 267.597 94.1152 267.586 94.149C267.574 94.1941 267.574 94.2279 267.563 94.2617C267.552 94.3068 267.54 94.3406 267.54 94.3857C267.529 94.4308 267.518 94.4646 267.518 94.5096C267.506 94.5547 267.495 94.5998 267.495 94.6449C267.484 94.69 267.484 94.7351 267.472 94.7801C267.461 94.8252 267.461 94.8816 267.45 94.9267C267.03 98.0599 265.556 97.9585 265.556 100.787C265.556 103.616 263.866 104.45 263.866 106.851C263.866 109.263 262.71 110.401 262.823 112.396C262.925 114.391 261.769 114.91 261.871 116.691C261.927 117.705 261.905 118.595 261.803 119.362C260.442 119.362 259.036 119.52 257.641 119.903C257.471 119.024 257.392 117.975 257.471 116.702C257.573 114.921 256.416 114.403 256.518 112.408C256.632 110.413 255.475 109.274 255.475 106.862C255.475 104.45 253.786 103.616 253.786 100.799C253.786 97.9585 252.311 98.0712 251.892 94.9379C251.88 94.8929 251.88 94.8365 251.869 94.7914C251.858 94.7463 251.858 94.7012 251.846 94.6562C251.835 94.6111 251.824 94.566 251.812 94.5209C251.812 94.4758 251.801 94.4307 251.79 94.3969C251.778 94.3519 251.767 94.3068 251.767 94.273C251.756 94.2392 251.756 94.1941 251.744 94.1603C251.733 94.1264 251.722 94.0814 251.71 94.0475C251.699 94.0025 251.688 93.9687 251.688 93.9461C251.676 93.901 251.665 93.8785 251.654 93.8334C251.642 93.7996 251.631 93.7658 251.62 93.732C251.608 93.6981 251.597 93.6643 251.586 93.6305C251.574 93.5967 251.563 93.5629 251.563 93.5404C251.552 93.5065 251.54 93.484 251.529 93.4502C251.506 93.4276 251.495 93.3938 251.484 93.36C251.472 93.3262 251.461 93.3037 251.45 93.2811C251.427 93.2473 251.427 93.2248 251.416 93.2022C251.404 93.1797 251.382 93.1459 251.382 93.1233C251.37 93.1008 251.359 93.0783 251.348 93.0444C251.325 93.0219 251.313 92.9994 251.302 92.9768C251.268 92.9317 251.257 92.8867 251.223 92.8416C251.189 92.7965 251.177 92.7627 251.143 92.7289C250.61 91.9061 249.998 91.6356 249.862 90.0239C249.726 88.4121 249.159 87.8373 248.603 86.992C248.558 86.9357 248.524 86.868 248.49 86.8117C248.479 86.7779 248.467 86.7666 248.445 86.7441C248.422 86.7215 248.422 86.699 248.411 86.6764C248.388 86.6539 248.377 86.6314 248.377 86.6088C248.354 86.5863 248.343 86.5637 248.331 86.5412C248.309 86.5074 248.297 86.4961 248.286 86.4623C248.263 86.4398 248.263 86.4172 248.252 86.3947C248.229 86.3609 248.218 86.3496 248.206 86.3158C248.184 86.282 248.184 86.2707 248.172 86.2369C248.15 86.2031 248.138 86.1918 248.127 86.158C248.116 86.1242 248.104 86.1016 248.082 86.0678C248.07 86.0453 248.059 86.0227 248.048 85.9889C248.036 85.9664 248.025 85.9326 248.014 85.8988C247.991 85.8649 247.991 85.8424 247.98 85.8086C247.968 85.7635 247.957 85.741 247.934 85.7071C247.923 85.6733 247.912 85.6508 247.912 85.6057C247.9 85.5719 247.889 85.5494 247.866 85.5043C247.855 85.4705 247.844 85.4366 247.832 85.4028C247.821 85.369 247.81 85.3352 247.81 85.3014C247.798 85.2563 247.787 85.2338 247.776 85.1887C247.764 85.1436 247.753 85.1098 247.753 85.076C247.118 82.664 245.859 82.247 245.44 80.2746C245.428 80.2408 245.417 80.207 245.417 80.1732C245.417 80.1394 245.406 80.1168 245.394 80.083C245.383 80.0492 245.383 80.0267 245.372 79.9929C245.36 79.959 245.349 79.9478 245.338 79.914C245.326 79.8801 245.326 79.8576 245.315 79.8351C245.303 79.8013 245.292 79.79 245.281 79.7562C245.269 79.7336 245.258 79.7111 245.258 79.6885C245.247 79.666 245.235 79.6435 245.224 79.6096C244.691 78.3586 243.614 78.4375 243.138 76.7807C243.126 76.7469 243.115 76.7243 243.104 76.6905C242.571 74.6956 241.425 74.8083 241.097 73.0275C240.779 71.2354 239.101 70.9311 238.783 68.8348C238.783 68.801 238.772 68.7784 238.772 68.7446V68.7333C238.761 68.6995 238.761 68.677 238.749 68.6432V68.6319C238.738 68.6093 238.738 68.5868 238.727 68.553V68.5417C238.715 68.5192 238.715 68.4966 238.704 68.4628V68.4516C238.693 68.4177 238.693 68.4065 238.681 68.3727C238.67 68.3501 238.659 68.3163 238.659 68.2938L238.647 68.2825C238.647 68.2487 238.636 68.2374 238.624 68.2149V68.1923C238.613 68.1698 238.602 68.1472 238.602 68.136L238.59 68.1247C238.59 68.0909 238.579 68.0796 238.568 68.0571V68.0345C238.556 68.0233 238.545 68.012 238.534 67.9895V67.9782C238.522 67.9556 238.511 67.9444 238.511 67.9331L238.5 67.9106C238.488 67.888 238.477 67.8767 238.477 67.8542L238.466 67.8317C238.454 67.8204 238.443 67.7978 238.443 67.7866L238.432 67.764L238.409 67.7302L238.386 67.6851L238.375 67.6626C238.364 67.6513 238.352 67.6401 238.352 67.6175L238.341 67.6062C235.053 61.2608 237.763 49.0996 239.146 45.9889C237.128 48.491 235.245 55.2084 234.939 57.0906C234.622 58.9728 233.885 61.3848 234.939 67.347C235.994 73.3205 239.362 78.5502 240.62 82.7429C241.89 86.9244 245.043 91.7483 245.462 94.8929C245.882 98.0261 247.776 102.005 248.411 107.133C249.046 112.261 250.52 114.775 250.724 118.021C250.871 120.162 251.053 122.01 251.586 123.295C251.518 123.363 251.45 123.431 251.393 123.498" fill="#DEC468"/>
<defs>
<linearGradient id="paint0_linear_373_647" x1="195" y1="0" x2="195" y2="390" gradientUnits="userSpaceOnUse">
<stop stop-color="#37C7AB"/>
<stop offset="1" stop-color="#002F46"/>
</linearGradient>
</defs>
</svg>
