<svg width="390" height="390" viewBox="0 0 390 390" fill="none" xmlns="http://www.w3.org/2000/svg">
<circle cx="195" cy="195" r="195" fill="url(#paint0_linear_373_657)"/>
<path d="M352.295 163.767C348.676 154.348 343.258 146.131 336.08 139.039C326.753 129.823 315.978 122.807 303.876 117.944C301.564 117.016 300.586 116.234 300.269 113.715C299.809 110.067 299.67 106.516 300.393 102.915C300.547 102.144 300.773 101.184 299.949 100.623C299.094 100.041 298.36 100.751 297.679 101.137C294.786 102.779 292.23 104.837 289.89 107.231C287.914 109.251 287.97 112.999 285.587 113.963C283.193 114.931 280.033 113.788 277.328 114.261C275.788 114.529 275.093 114.153 274.105 113.297C270.904 110.524 267.226 108.843 262.955 108.391C260.268 108.106 259.121 108.996 258.744 111.767C257.99 117.303 257.914 122.64 261.316 127.534C259.631 126.64 258.785 125.248 258.001 123.814C257.491 122.884 257.086 122.33 255.97 123.308C251.772 126.988 246.623 127.399 241.387 127.238C232.794 126.974 224.535 124.279 215.965 123.714C206.355 123.081 196.73 122.551 187.262 124.599C173.261 127.628 159.141 129.152 144.835 129.043C137.81 128.99 130.724 129.099 123.925 127.054C115.393 124.488 106.816 123.631 97.9346 124.612C70.5057 127.637 46.9884 150.403 43.4867 177.887C42.3818 186.56 42.7745 195.405 39.731 203.836C38.3643 207.618 37.8096 211.701 38.0573 215.776C38.3394 220.399 40.7689 221.813 44.9578 219.936C45.4269 219.727 45.9131 219.51 46.3105 219.194C47.7582 218.04 48.3878 218.726 48.9441 220.168C50.1035 223.165 51.531 226.05 53.2779 228.746C66.7329 249.507 86.3839 258.822 110.509 259.564C120.838 259.882 131.179 259.739 141.516 259.805C159.058 260.063 176.377 261.78 193.022 267.828C194.268 268.281 195.437 268.851 196.333 269.973C198.401 272.566 200.968 274.614 203.756 276.39C206.42 277.616 207.957 274.856 210.251 274.534C214.114 273.992 217.994 273.312 221.588 271.613C226.453 269.313 226.788 266.435 222.523 263.053C221.393 262.157 220.175 261.355 218.926 260.629C217.906 260.035 217.265 259.76 218.384 258.431C220.363 256.076 220.019 254.453 217.382 252.943C214.572 251.33 211.488 250.366 208.238 250.309C191.493 250.025 174.796 249.129 158.225 246.571C146.169 244.709 134.255 242.257 122.928 237.513C121.552 236.936 120.543 236.506 120.607 234.522C120.947 223.784 116.062 215.652 107.637 209.424C106.225 208.38 104.717 207.467 102.603 206.061C113.708 209.734 121.829 219.603 123.595 231.229C123.962 233.651 124.873 234.686 127.274 235.23C145.865 239.436 164.577 240.89 183.573 238.643C200.093 236.69 215.629 231.929 230.047 223.531C231.805 222.507 232.197 221.602 231.646 219.633C230.433 215.308 231.227 211.102 233.212 207.059C231.636 214.512 232.74 221.12 238.917 226.194C246.182 231.055 254.409 232.222 262.688 233.227C263.918 233.208 265.116 233.286 266.259 233.662C266.899 233.742 267.538 233.823 268.177 233.909C266.958 234.042 265.74 234.176 264.521 234.309C266.405 240.562 265.026 244.533 259.888 247.045C257.388 248.266 254.724 249.085 251.866 249.029C247.457 248.943 247.367 249.077 248.605 253.39C246.932 253.312 245.291 253.113 243.662 253.197C242.48 253.258 240.871 253.169 240.44 254.52C240.05 255.734 241.421 256.456 242.23 257.181C245.668 260.26 249.897 261.495 254.317 262.282C257.282 262.809 260.606 261.985 263.176 263.067C266.072 264.288 268.017 263.623 270.286 262.333C290.206 251.005 291.966 223.519 271.9 211.704C270.457 210.941 268.962 210.261 267.58 209.398C261.719 205.737 261.22 202.333 265.674 196.87C268.035 193.813 271.133 191.137 269.816 186.499C268.92 183.34 267.169 180.795 265.132 178.293C267.237 179.023 268.649 180.581 269.98 182.23C271.42 184.014 271.831 186.221 272.17 188.783C277.875 185.151 282.938 181.447 287.016 176.553C287.908 175.483 288.73 174.956 290.147 175.21C295.286 176.129 300.442 175.926 305.575 175.136C312.949 173.999 319.848 171.613 326.815 166.898C324.046 166.898 322.156 166.898 319.854 166.898C328.704 163.653 335.809 166.771 342.609 171.457C345.815 173.665 348.474 173.671 350.842 171.671C353.094 169.77 353.594 167.146 352.295 163.767ZM263.424 116.439C264.398 119.632 266.103 122.333 269.16 124.66C264.917 123.503 263.251 121.015 263.424 116.439ZM301.596 137.333C301.459 138.52 300.893 138.39 300.192 137.874C299.305 137.222 297.83 136.778 297.853 135.663C297.88 134.354 299.276 134.332 300.485 134.101C301.93 133.824 303.416 133.627 305.148 134.246C303.476 134.955 301.816 135.418 301.596 137.333ZM299.215 132.159C302.972 129.962 305.651 130.444 308.765 133.846C305.975 131.823 302.788 132.012 299.215 132.159ZM310.074 137.791C309.937 138.238 309.2 138.542 308.687 138.826C307.464 139.503 307.27 138.034 307.224 137.303C307.138 135.999 307.379 135.74 306.193 134.761C307.429 134.833 308.116 135.635 308.897 136.218C309.433 136.62 310.32 136.989 310.074 137.791Z" fill="#DEC468"/>
<path d="M198.8 273.956C194.955 268.86 189.247 267.459 183.59 265.949C168.542 261.932 153.141 261 137.667 260.714C137.665 260.714 137.663 260.714 137.66 260.714C137.498 260.718 137.335 260.722 137.173 260.722C136.314 260.754 135.443 260.851 134.635 260.392C129.318 260.392 124.001 260.392 118.684 260.392C120.778 261.389 122.948 261.858 125.126 262.285C140.246 265.25 155.128 268.982 169.104 275.726C173.416 277.807 177.57 279.955 179.944 284.498C180.847 286.229 182.356 287.619 184.042 288.674C185.181 289.385 186.481 290.125 187.767 289.074C189.026 288.045 190.419 288.211 191.862 288.164C194.751 288.069 197.667 288.031 200.511 287.581C202.998 287.187 206.015 286.937 206.867 283.964C207.665 281.181 205.406 279.449 203.684 277.674C203.469 277.452 203.265 277.217 203.056 276.988C201.454 276.234 199.841 275.336 198.8 273.956Z" fill="#DEC468"/>
<path d="M257.834 233.649C250.837 232.71 244.051 231.201 238.263 226.799C237.164 226.987 236.067 227.196 234.964 227.358C233.68 227.545 232.134 226.737 231.152 227.924C230.261 229.001 231.384 230.369 231.375 231.623C229.486 231.623 227.84 231.601 226.195 231.631C225.143 231.651 223.971 231.798 223.504 232.814C222.946 234.026 224.144 234.645 224.862 235.304C228.102 238.276 232.087 239.577 236.307 240.356C239.675 240.978 243.384 240.21 246.391 241.291C249.821 242.523 251.944 241.249 254.294 239.683C256.519 238.201 258.562 236.44 260.686 234.803C260.228 233.215 258.843 233.785 257.834 233.649Z" fill="#DEC468"/>
<defs>
<linearGradient id="paint0_linear_373_657" x1="195" y1="0" x2="195" y2="390" gradientUnits="userSpaceOnUse">
<stop stop-color="#37C7AB"/>
<stop offset="1" stop-color="#002F46"/>
</linearGradient>
</defs>
</svg>
