<svg width="390" height="390" viewBox="0 0 390 390" fill="none" xmlns="http://www.w3.org/2000/svg">
<circle cx="195" cy="195" r="195" fill="url(#paint0_linear_373_650)"/>
<path d="M288.53 225.97C284.81 222.78 275.76 196.7 275.76 196.7C269.64 200.96 263.78 216.65 263.78 216.65C263.78 216.65 274.16 229.42 278.15 235.01C282.14 240.6 269.64 248.31 277.88 250.18C286.13 252.04 277.08 240.07 283.47 238.21C289.86 236.35 288.53 248.32 295.18 254.71C301.83 261.1 293.58 241.94 291.72 236.88C289.86 231.82 320.99 237.15 321.25 232.89C321.52 228.63 292.26 229.16 288.53 225.97Z" fill="#DEC468"/>
<path d="M327.64 137.99C321.96 127.7 306.71 126.28 306.36 121.32C306 116.35 302.46 105 291.46 105C280.46 105 275.22 114.58 275.22 114.58C275.22 114.58 257.05 115.64 242.51 121.67C227.97 127.7 201.71 133.02 183.62 132.67C165.53 132.32 91.03 167.08 94.23 177.72C97.42 188.36 141.41 204.33 146.38 222.77C146.38 222.77 115.48 186.72 75.01 187.59C66.53 187.78 60.13 195.28 61.1 203.69C62.88 219.15 70.51 242.9 99.55 252.57C144.25 267.47 170.5 270.31 172.27 270.31C174.04 270.31 208.45 279.53 208.1 276.34C207.75 273.15 182.2 268.54 181.85 266.05C181.5 263.57 216.61 268.89 215.2 263.57C213.78 258.25 176.89 261.44 172.99 257.89C169.09 254.34 201.01 260.02 200.66 256.12C200.31 252.22 167.67 252.93 156.67 252.22C145.67 251.51 94.59 242.29 81.82 218.52C81.82 218.52 113.04 250.09 161.99 248.67C161.99 248.67 171.92 250.44 174.76 237.67C177.6 224.9 154.89 206.1 154.89 206.1C154.89 206.1 185.75 225.97 180.08 246.19C180.08 246.19 199.59 243 213.43 238.74C213.43 238.74 214.58 207.88 230.81 197.24C230.81 197.24 212.72 221.36 219.46 238.39C226.2 255.42 251.74 267.83 254.93 269.25C258.12 270.67 275.51 285.21 280.47 284.5C285.44 283.79 265.57 274.57 266.64 273.5C267.7 272.44 291.47 282.72 293.25 280.59C295.02 278.46 268.77 269.59 268.77 268.53C268.77 267.47 297.5 272.43 297.86 270.3C298.21 268.17 266.99 264.27 263.8 260.72C260.61 257.17 243.23 235.53 242.16 233.4C241.19 231.45 249.73 211.96 253.36 198.33L245.18 232.33C245.18 232.33 261.32 217.43 267.35 202.53C273.38 187.63 307.22 168.55 315.59 160.32C315.59 160.32 276.83 165.64 252.8 179.48C236.7 188.75 223.76 200.39 218.39 190.48C214.04 182.45 224.78 176.29 224.78 176.29C224.78 176.29 213.77 187.47 224.86 190.4C234.18 192.86 249.62 161.39 318.08 156.43C318.06 156.44 333.32 148.28 327.64 137.99ZM276.82 148.86C269.62 148.86 263.78 143.02 263.78 135.82C263.78 128.62 269.62 122.78 276.82 122.78C284.02 122.78 289.86 128.62 289.86 135.82C289.86 143.02 284.02 148.86 276.82 148.86Z" fill="#DEC468"/>
<path d="M276.83 123.3C274.84 123.3 273.23 128.91 273.23 135.83C273.23 142.75 274.84 148.36 276.83 148.36C278.82 148.36 280.43 142.75 280.43 135.83C280.43 128.91 278.82 123.3 276.83 123.3Z" fill="#DEC468"/>
<path d="M87.5701 172.85C87.5701 172.85 107.42 152.78 131.36 147.68C131.36 147.68 86.0601 140.48 77.5401 151.83C72.4201 158.66 87.5701 172.85 87.5701 172.85Z" fill="#DEC468"/>
<defs>
<linearGradient id="paint0_linear_373_650" x1="195" y1="0" x2="195" y2="390" gradientUnits="userSpaceOnUse">
<stop stop-color="#37C7AB"/>
<stop offset="1" stop-color="#002F46"/>
</linearGradient>
</defs>
</svg>
