<svg width="390" height="390" viewBox="0 0 390 390" fill="none" xmlns="http://www.w3.org/2000/svg">
<circle cx="195" cy="195" r="195" fill="url(#paint0_linear_373_286)"/>
<g clip-path="url(#clip0_373_286)">
<path d="M164.528 287.696C159.712 288.512 156.491 289.045 152.705 289.695C152.821 288.095 152.921 286.729 153.103 284.314C144.137 287.296 135.784 290.061 126.419 293.176C127.731 290.894 128.528 289.495 129.341 288.095C129.109 287.829 128.876 287.562 128.627 287.313C121.786 292.277 114.945 297.241 106.642 303.271C108.236 292.177 104.367 284.864 98.8542 277.801C94.8026 272.603 91.1826 266.706 94.2214 259.376C94.5701 258.544 94.4871 257.044 93.9557 256.445C88.9907 250.814 90.9003 244.85 92.7103 238.77C93.0756 237.521 92.8431 236.005 92.5775 234.672C92.0461 232.023 91.2989 229.408 90.6347 226.793C91.5479 226.293 92.4778 225.793 93.3911 225.277C91.5812 224.71 89.7712 224.144 88.0443 223.611C90.6181 220.029 92.1623 217.88 93.9225 215.415C92.1291 214.232 90.6347 213.249 89.1402 212.267C99.9169 197.274 99.6347 196.091 82.3321 184.747C85.404 183.814 88.0941 182.998 90.8007 182.182C90.7343 181.599 90.6513 180.999 90.5848 180.416C87.2638 180.416 83.9428 180.416 78.7121 180.416C81.2693 177.101 82.9465 175.402 84.0424 173.369C84.8395 171.903 84.8893 170.021 85.2546 168.339C83.6273 168.055 82 167.622 80.3727 167.506C78.9944 167.406 77.5996 167.672 75.5406 167.839C77.9815 159.776 70.476 157.077 67.9354 151.73C66.6402 149.031 63.8671 146.366 64 143.801C64.4649 134.739 64.9963 125.51 67.1882 116.781C69.8616 106.12 78.1974 100.006 88.8911 100.589C99.2693 101.139 110.029 102.954 119.71 106.636C131.317 111.034 141.131 110.834 152.057 104.687C173.66 92.5596 196.542 90.9771 219.906 99.6894C224.223 101.305 226.847 101.005 229.022 95.9913C234.552 83.1643 245.196 76.7342 256.769 78.2334C271.399 80.1158 280 88.0119 281.81 103.254C282.723 110.934 280.963 118.897 280.88 126.743C280.847 129.191 281.594 132.756 283.288 133.939C299.063 145.017 304.36 160.792 303.496 179.05C303.031 189.111 305.622 197.257 312.994 204.254C316.548 207.619 319.255 212.017 321.828 216.248C326.013 223.195 326.146 229.924 321.646 237.337C319.437 240.969 319.421 246.383 319.62 250.947C320.002 259.493 319.869 268.372 314.19 274.702C307.332 282.348 301.288 290.294 295.459 298.757C289.349 307.619 278.007 308.302 268.028 311.251C258.828 313.966 253.249 308.469 246.026 306.536C239.135 304.687 231.911 304.054 224.423 302.821C224.721 301.739 225.103 300.273 225.9 297.358C214.509 296.308 203.583 295.292 192.408 294.259C192.491 293.926 192.74 292.876 193.006 291.727C180.004 289.312 171.037 300.972 158.367 301.672C160.393 297.074 162.186 293.026 164.528 287.696ZM266.517 129.058C262.614 126.443 258.696 123.827 254.86 121.245C253.216 123.078 252.087 124.344 250.808 125.76C245.378 121.945 246.026 112.033 236.76 113.016C236.544 113.782 236.528 114.699 236.079 115.298C234.817 116.997 233.389 118.58 232.028 120.213C230.45 118.713 228.574 117.414 227.378 115.665C226.515 114.399 225.851 112.266 226.332 110.967C228.292 105.603 225.037 105.087 221.815 104.537C219.989 107.252 218.511 109.435 217.05 111.617C212.948 100.206 210.408 98.4734 200.644 98.9731C199.764 101.355 199.598 104.087 198.303 104.837C196.227 106.053 192.939 107.036 190.963 106.203C186.496 104.337 182.511 101.322 179.256 99.3396C177.48 100.622 175.637 103.021 174.341 102.738C166.62 101.105 160.974 105.586 154.166 108.252C163.017 113.083 163.664 114.782 159.081 119.996C160.493 120.662 161.887 121.312 164.162 122.378C150.264 125.71 137.544 127.842 125.522 119.629C114.43 112.05 103.819 103.121 88.7583 106.553C88.0775 106.703 86.8819 104.587 85.869 103.471C74.511 104.504 64.797 125.76 68.0516 134.006C71.273 142.168 75.7896 149.831 79.7915 157.81C81.4354 156.561 82.4815 155.761 85.1716 153.729C82.8967 164.94 90.6014 167.206 96.7288 170.954C99.9169 172.903 102.69 175.518 105.845 177.984C98.5221 184.181 98.6051 184.164 99.7177 193.543C100 195.991 100.216 198.74 99.4188 200.972C95.7657 211.267 95.8487 221.878 95.7491 232.557C95.6992 237.704 94.404 242.851 93.5738 248.682C95.9483 247.083 97.4594 246.066 99.9502 244.384C99.369 249.115 98.9705 252.48 98.5553 255.845C99.1199 255.945 99.6845 256.028 100.249 256.128C100.996 253.23 101.295 250.081 102.64 247.482C103.637 245.567 105.994 244.367 107.755 242.851C108.402 244.8 109.598 246.749 109.565 248.682C109.482 253.03 108.469 257.361 108.485 261.709C108.502 263.724 109.847 267.323 110.926 267.456C115.924 268.055 114.895 271.054 114.629 274.236C114.513 275.668 115.293 277.184 115.875 279.433C126.535 273.07 132.43 261.725 144.751 258.843C142.526 262.375 140.301 265.923 137.577 270.238C142.343 268.422 146.279 266.923 151.825 264.807C150.613 268.355 150.131 269.738 149.566 271.387C155.777 270.088 161.655 268.855 167.517 267.622C167.649 268.022 167.799 268.405 167.932 268.805C165.208 270.388 162.502 271.954 159.679 273.586C170.256 273.586 180.236 273.586 190.216 273.586C190.415 273.953 190.614 274.336 190.814 274.702C187.692 276.718 184.57 278.717 180.502 281.332C188.19 282.065 193.603 274.935 201.242 278.967C198.934 280.249 197.29 281.149 196.642 281.499C204.065 282.582 212.068 283.731 220.62 284.98C219.507 287.246 219.042 288.195 218.445 289.445C222.712 290.411 226.548 291.211 230.334 292.177C233.871 293.076 237.375 294.142 240.878 295.209C242.672 295.758 244.365 296.608 246.159 297.141C248.384 297.791 250.659 298.257 252.917 298.807C252.967 299.473 253.017 300.123 253.05 300.789C255.474 299.357 257.915 297.924 260.572 296.358C261.103 297.574 261.535 298.574 261.618 298.79C265.006 298.34 267.961 297.941 270.917 297.557C271.033 298.174 271.149 298.773 271.266 299.39C275.317 297.374 275.301 289.412 282.424 291.577C282.856 291.71 284.201 289.511 284.815 288.245C285.679 286.48 286.277 284.581 287.041 282.582C288.651 283.514 289.747 284.164 290.644 284.697C291.889 282.598 292.72 279.55 293.982 279.35C299.362 278.484 298.83 274.552 299.279 270.904C299.694 267.606 300.325 264.324 300.839 261.042C302.782 248.632 294.065 239.969 281.959 243.051C277.576 244.167 275.151 242.685 272.893 239.919C271.93 238.737 271.996 236.688 271.581 235.039C273.076 235.105 274.603 234.955 276.065 235.238C289.133 237.804 302.101 237.487 314.821 233.556C321.098 231.607 322.426 228.575 319.67 222.661C317.411 217.797 314.838 212.883 311.417 208.818C303.164 199.007 294.347 189.678 285.828 180.233C285.828 180.916 285.828 182.115 285.828 183.748C279.352 177.018 278.29 164.39 283.172 156.245C285.264 152.746 287.97 150.631 292.919 151.48C291.009 155.095 283.188 155.212 288.419 160.659C292.271 164.674 291.856 168.572 290.245 173.236C289.399 175.718 289.78 178.617 289.515 182.531C292.255 180.682 293.334 179.949 294.978 178.85C295.725 181.732 296.306 184.014 297.12 187.146C297.95 185.313 298.764 184.264 298.847 183.181C299.146 178.8 298.764 174.336 299.461 170.038C301.022 160.343 296.854 152.047 288.22 148.315C287.09 147.815 286.144 146.366 285.563 145.15C282.092 137.87 276.181 133.423 268.991 130.357C268.177 129.908 267.347 129.475 266.517 129.058ZM277.924 123.911C279.651 115.482 280.066 107.752 277.509 100.206C276.729 97.907 274.188 96.0746 272.162 94.3754C269.705 92.3098 266.649 90.9271 264.341 88.7282C257.45 82.1148 245.378 82.5646 239.849 88.9448C243.402 91.0271 247.653 92.6429 250.692 95.5415C254.046 98.7399 257.268 100.222 261.768 99.4729C263.245 99.223 264.839 99.7727 267.065 100.039C266.101 101.722 265.537 102.705 265.437 102.888C266.666 104.87 267.33 107.352 268.758 107.935C272.959 109.634 268.725 112.416 269.937 114.099C272.212 117.231 274.819 120.129 277.924 123.911ZM315.02 248.265C305.622 255.445 302.932 265.057 304.21 276.651C313.244 273.32 318.458 258.777 315.02 248.265Z" fill="url(#paint1_linear_373_286)"/>
<path d="M269.007 130.324C270.053 132.473 271.1 134.622 272.146 136.788C271.365 137.337 270.585 137.904 269.804 138.453C267.779 136.071 265.769 133.672 263.744 131.29C264.657 130.541 265.587 129.808 266.5 129.058C267.347 129.475 268.177 129.908 269.007 130.324Z" fill="url(#paint2_linear_373_286)"/>
<path d="M114.945 160.859C111.956 165.057 109.531 168.455 107.107 171.853C106.526 171.72 105.945 171.587 105.364 171.47C105.015 168.855 104.666 166.239 104.251 163.107C97.9908 162.641 101.611 158.21 100.996 154.295C99.1034 157.077 97.227 159.859 94.8525 163.357C88.4595 158.293 92.1292 151.163 90.286 144.833C87.8617 146.432 85.6034 147.948 83.3783 149.414C74.81 139.103 80.6218 118.047 92.9429 114.065C94.1384 113.682 96.7288 113.982 96.7953 114.315C97.1772 116.414 97.6919 118.88 96.9447 120.729C95.5333 124.227 93.2916 127.409 91.9133 131.107C98.9041 127.042 101.445 116.464 112.471 118.13C111.856 120.112 111.375 121.695 110.71 123.86C114.646 123.294 117.917 122.811 122.434 122.145C119.328 129.724 112.388 128.708 107.987 131.557C108.137 132.14 108.269 132.723 108.419 133.322C115.692 131.856 122.965 130.407 130.255 128.941C130.902 129.824 131.55 130.707 132.197 131.59C127.266 134.572 122.334 137.537 117.386 140.519C118.448 141.718 119.511 142.934 120.574 144.134C122.948 142.351 125.24 140.419 127.747 138.836C129.507 137.737 131.583 137.137 133.509 136.304C133.194 138.353 132.978 140.419 132.513 142.434C132.297 143.417 131.633 144.284 130.919 145.7C132.214 146.449 133.443 147.165 134.19 147.615C129.823 153.079 125.672 158.377 121.388 163.574C118.15 167.522 116.107 165.656 114.945 160.859Z" fill="url(#paint3_linear_373_286)"/>
<path d="M235.282 176.817C233.921 175.285 232.825 172.936 231.148 172.386C223.808 169.938 224.622 163.791 224.09 158.16C223.626 153.263 226.681 152.18 230.334 153.279C232.958 154.062 236.71 155.845 237.258 157.91C239.185 165.007 239.915 172.42 241.443 181.682C244.797 184.33 250.277 188.628 255.74 192.926C255.507 193.293 255.258 193.659 255.026 194.042C252.153 192.343 249.297 190.627 246.424 188.928C246.192 189.111 245.943 189.278 245.71 189.461C248.135 192.51 250.576 195.558 253 198.623C252.784 199.123 252.568 199.639 252.352 200.139C248.816 198.657 244.747 197.84 241.858 195.541C236.81 191.543 232.509 190.194 226.947 194.592C222.148 198.39 216.867 197.257 212.948 193.043C209.594 189.411 206.223 187.346 201.142 187.562C199.05 187.662 196.875 186.046 194.865 184.464C208.316 181.715 219.873 169.404 235.05 178.667C235.133 178.017 235.216 177.417 235.282 176.817ZM225.768 190.044C221.434 188.312 217.415 186.696 213.397 185.08C213.197 185.763 212.982 186.463 212.782 187.146C216.22 191.443 220.387 192.743 225.768 190.044Z" fill="url(#paint4_linear_373_286)"/>
<path d="M165.109 211.966C165.458 200.539 171.17 195.508 181.415 196.058C182.793 196.124 184.221 194.209 185.699 194.109C188.539 193.909 192.823 193.259 193.969 194.758C196.293 197.79 196.941 202.121 198.269 205.92C195.646 206.752 192.557 208.901 190.482 208.168C183.69 205.753 177.994 207.885 172.083 210.601C170.173 211.467 167.865 211.45 165.109 211.966Z" fill="url(#paint5_linear_373_286)"/>
<path d="M223.078 141.252C220.122 145.816 217.664 148.665 216.303 151.98C215.19 154.678 215.29 157.91 214.958 160.925C214.709 163.158 214.659 165.39 214.509 167.622C212.135 167.472 209.345 168.072 207.469 167.022C200.544 163.158 199.897 151.93 205.991 146.782C208.482 144.667 210.707 141.868 213.579 140.685C215.804 139.786 218.843 140.902 223.078 141.252Z" fill="url(#paint6_linear_373_286)"/>
<path d="M140.749 198.656C138.441 197.34 136.282 196.091 134.124 194.858C135.336 192.876 136.149 190.394 137.843 188.995C141.729 185.796 146.544 184.114 147.956 178.05C148.836 174.235 154.731 174.835 156.806 178.6C159.596 183.681 157.769 191.094 152.672 193.759C149.052 195.641 145.116 196.891 140.749 198.656Z" fill="url(#paint7_linear_373_286)"/>
<path d="M175.985 243.717C179.074 243.534 182.262 242.768 185.201 243.334C187.642 243.801 191.744 245.949 191.677 247.166C191.528 249.947 189.352 252.663 187.825 255.295C187.493 255.878 186.247 256.461 185.649 256.278C177.729 253.796 169.692 251.563 162.07 248.365C159.43 247.249 160.426 244.2 163.648 243.934C167.733 243.617 171.867 243.851 175.985 243.851C175.985 243.801 175.985 243.767 175.985 243.717Z" fill="url(#paint8_linear_373_286)"/>
<path d="M120.657 182.265C118.581 170.904 128.976 156.877 138.607 157.327C142.742 157.527 144.518 160.192 141.928 163.107C136.581 169.138 130.769 174.768 124.991 180.399C123.978 181.415 122.201 181.648 120.657 182.265Z" fill="url(#paint9_linear_373_286)"/>
<path d="M183.873 238.67C180.784 237.72 178.825 237.171 176.899 236.521C173.295 235.305 169.675 234.122 166.138 232.74C164.76 232.206 163.548 231.19 162.269 230.391C163.365 229.075 164.428 226.659 165.541 226.643C172.216 226.559 178.958 226.576 185.517 227.609C187.277 227.892 189.817 232.04 189.502 234.022C189.186 235.938 185.649 237.321 183.873 238.67Z" fill="url(#paint10_linear_373_286)"/>
<path d="M222.563 252.33C223.924 252.48 225.469 252.263 226.598 252.863C232.21 255.828 237.989 257.477 244.415 256.527C245.528 256.361 247.354 256.644 247.869 257.394C251.057 262.108 255.806 261.692 260.539 262.075C262.05 262.191 263.411 264.14 264.839 265.256C263.063 266.156 261.17 267.988 259.526 267.805C254.063 267.172 248.234 266.756 243.386 264.474C238.454 262.141 233.705 260.526 228.341 259.643C225.867 259.243 223.858 255.961 221.633 253.979C221.932 253.412 222.247 252.879 222.563 252.33Z" fill="url(#paint11_linear_373_286)"/>
<path d="M143.555 247.532C141.563 249.348 140.483 250.431 139.304 251.414C136.199 254.012 132.828 256.361 129.972 259.226C127.249 261.958 124.31 264.39 120.873 261.708C116.954 258.66 119.561 255.362 122.068 252.696C126.319 248.182 130.338 242.918 137.661 244.367C139.421 244.717 140.982 246.1 143.555 247.532Z" fill="url(#paint12_linear_373_286)"/>
<path d="M104.102 207.352C105.264 209.318 106.426 211.267 107.971 213.849C112.288 210.334 116.439 206.969 120.59 203.604C121.304 204.32 122.019 205.037 122.733 205.753C121.271 207.585 120.159 210.051 118.266 211.117C111.84 214.732 107.406 219.746 104.583 226.593C103.869 228.342 101.079 229.241 99.2362 230.524C98.9373 228.492 98.0739 226.359 98.4392 224.46C99.5683 218.846 101.179 213.349 102.59 207.802C103.089 207.652 103.603 207.502 104.102 207.352Z" fill="url(#paint13_linear_373_286)"/>
<path d="M192.125 131.54C190.266 129.141 188.921 127.392 186.546 124.36C188.854 123.577 191.245 121.861 192.59 122.478C196.161 124.11 199.432 126.559 202.404 129.174C202.786 129.508 201.125 133.522 199.581 134.438C195.38 136.937 190.797 138.87 186.214 140.585C185.251 140.952 183.574 139.386 182.229 138.72C183.042 137.653 183.64 136.271 184.703 135.571C186.845 134.122 189.236 133.072 192.125 131.54Z" fill="url(#paint14_linear_373_286)"/>
<path d="M220.62 240.969C226.299 241.868 231.961 242.968 237.673 243.584C240.463 243.884 243.369 242.951 246.159 243.251C247.587 243.401 248.865 245.033 250.21 246C249.081 247.016 247.985 248.831 246.806 248.898C239.384 249.315 231.729 251.48 224.705 247.232C222.795 246.083 221.234 244.334 219.524 242.868C219.889 242.235 220.255 241.602 220.62 240.969Z" fill="url(#paint15_linear_373_286)"/>
<path d="M164.279 165.64C166.52 157.394 177.38 149.981 183.474 151.613C185.135 152.063 186.397 154.045 187.841 155.328C186.529 156.644 185.45 158.46 183.889 159.193C179.821 161.108 175.57 162.674 171.319 164.157C169.36 164.84 167.218 165.04 164.279 165.64Z" fill="url(#paint16_linear_373_286)"/>
<path d="M236.461 208.668C237.474 214.516 235.249 217.064 230.932 217.631C227.694 218.047 224.306 218.23 221.118 217.681C219.225 217.347 217.614 215.398 215.887 214.182C217.548 212.633 219.026 210.034 220.902 209.718C225.884 208.835 231.031 208.952 236.461 208.668Z" fill="url(#paint17_linear_373_286)"/>
<path d="M120.441 223.927C122.998 220.279 125.124 216.165 128.328 213.183C129.972 211.65 133.542 211.8 136.183 211.967C137.229 212.033 139.205 214.615 138.922 215.398C138.175 217.497 136.847 220.029 135.037 220.946C130.803 223.095 126.153 224.394 121.67 226.043C121.255 225.343 120.856 224.644 120.441 223.927Z" fill="url(#paint18_linear_373_286)"/>
<path d="M207.552 243.734C208.581 243.734 209.661 243.534 210.64 243.767C212.467 244.201 214.808 244.4 215.838 245.633C216.568 246.499 216.103 249.615 215.107 250.447C213.596 251.73 211.105 252.58 209.113 252.43C205.908 252.197 202.67 251.264 199.648 250.114C198.02 249.498 196.808 247.815 195.413 246.616C196.775 245.633 198.054 244.067 199.548 243.801C202.138 243.334 204.878 243.668 207.552 243.668C207.552 243.701 207.552 243.718 207.552 243.734Z" fill="url(#paint19_linear_373_286)"/>
<path d="M234.186 270.304C236.146 270.254 238.62 269.405 239.982 270.287C246.989 274.802 254.312 277.051 262.681 275.701C263.81 275.518 265.205 277.067 266.899 278.05C256.786 283.664 239.317 279.083 234.303 270.154L234.186 270.304Z" fill="url(#paint20_linear_373_286)"/>
<path d="M227.279 283.681C220.62 284.647 214.642 282.332 209.096 278.783C208.183 278.2 207.618 275.652 208.133 274.669C208.697 273.586 211.105 272.337 212.002 272.736C217.631 275.252 223.061 278.217 228.557 281.032C228.109 281.915 227.694 282.798 227.279 283.681Z" fill="url(#paint21_linear_373_286)"/>
<path d="M200.511 176.484C196.127 174.919 191.943 173.719 188.057 171.87C186.928 171.337 185.782 168.488 186.264 167.506C186.878 166.256 189.485 164.807 190.631 165.19C195.114 166.689 199.415 168.805 203.633 170.937C204.33 171.287 204.961 173.519 204.596 173.919C203.6 175.019 202.039 175.602 200.511 176.484Z" fill="url(#paint22_linear_373_286)"/>
<path d="M168.214 176.051C171.884 176.418 174.673 176.651 177.463 176.967C180.518 177.317 183.657 177.434 186.596 178.234C187.791 178.567 188.904 180.299 189.386 181.632C189.601 182.215 188.373 183.797 187.459 184.264C182.561 186.796 171.469 182.715 168.214 176.051Z" fill="url(#paint23_linear_373_286)"/>
<path d="M176.716 217.264C182.179 211.6 192.341 212.433 195.696 216.881C196.36 217.764 196.908 219.28 196.609 220.229C196.327 221.129 194.699 222.445 193.985 222.262C188.19 220.779 182.478 218.98 176.716 217.264Z" fill="url(#paint24_linear_373_286)"/>
<path d="M184.454 110.451C191.196 110.867 196.758 111.05 202.255 111.733C203.201 111.85 204.662 114.365 204.43 115.448C204.181 116.681 202.421 118.014 201.042 118.513C196.758 120.046 188.539 116.514 184.454 110.451Z" fill="url(#paint25_linear_373_286)"/>
<path d="M147.009 148.332C150.214 143.401 154.133 139.37 160.808 140.369C162.435 140.619 163.83 142.451 165.341 143.567C164.162 144.817 163.183 146.749 161.738 147.199C157.172 148.598 152.439 149.431 147.773 150.481C147.524 149.764 147.275 149.048 147.009 148.332Z" fill="url(#paint26_linear_373_286)"/>
<path d="M205.293 254.945C208.863 256.994 212.483 258.76 215.672 261.076C216.618 261.759 217.083 264.374 216.518 265.473C216.053 266.39 213.546 267.023 212.334 266.606C208.863 265.457 205.443 263.924 202.271 262.092C201.159 261.442 199.897 258.943 200.312 258.227C201.092 256.928 203.052 256.328 205.293 254.945Z" fill="url(#paint27_linear_373_286)"/>
<path d="M140.367 142.451C143.539 137.287 146.494 132.323 152.804 131.473C154.465 131.257 156.441 133.306 158.284 134.322C156.84 135.455 155.428 136.654 153.917 137.704C152.157 138.936 149.699 139.636 148.62 141.285C146.362 144.767 144.07 144.833 140.367 142.451Z" fill="url(#paint28_linear_373_286)"/>
<path d="M164.046 214.266C164.411 222.945 158.5 228.775 152.256 227.792C151.194 227.626 149.533 226.759 149.45 226.043C149.301 224.794 149.732 222.795 150.646 222.195C154.648 219.53 158.915 217.247 164.046 214.266Z" fill="url(#paint29_linear_373_286)"/>
<path d="M146.661 239.486C152.771 233.273 159.28 231.74 163.1 234.639C164.212 235.471 165.125 237.287 165.109 238.653C165.109 239.453 163.066 240.935 161.987 240.902C157.404 240.719 152.838 240.102 146.661 239.486Z" fill="url(#paint30_linear_373_286)"/>
<path d="M194.666 213.932C198.12 210.267 199.764 207.769 202.072 206.319C203.882 205.187 206.589 204.77 208.714 205.12C209.993 205.336 212.085 208.302 211.753 208.918C210.806 210.7 208.996 212.749 207.17 213.149C203.666 213.949 199.913 213.682 194.666 213.932Z" fill="url(#paint31_linear_373_286)"/>
<path d="M162.535 131.59C166.653 129.575 169.659 127.725 172.913 126.676C174.325 126.226 176.251 127.409 177.945 127.859C177.413 129.708 177.48 132.273 176.251 133.256C171.851 136.871 167.533 135.438 162.535 131.59Z" fill="url(#paint32_linear_373_286)"/>
<path d="M255.59 185.263C249.314 183.414 245.245 177.017 246.906 172.786C247.354 171.637 248.716 170.637 249.895 170.071C250.542 169.771 252.386 170.37 252.518 170.87C253.631 175.451 254.511 180.099 255.59 185.263Z" fill="url(#paint33_linear_373_286)"/>
<path d="M215.838 127.942C213.081 125.276 211.304 123.577 209.528 121.861C212.566 120.395 215.539 118.68 218.727 117.697C219.308 117.513 222.048 121.095 221.683 121.728C220.454 123.877 218.295 125.476 215.838 127.942Z" fill="url(#paint34_linear_373_286)"/>
<path d="M225.12 128.175C229.537 128.942 233.97 129.708 238.387 130.491C238.62 131.14 238.869 131.79 239.101 132.44C237.159 133.789 234.934 136.521 233.356 136.188C229.952 135.455 226.897 133.139 223.692 131.474C224.173 130.358 224.638 129.275 225.12 128.175Z" fill="url(#paint35_linear_373_286)"/>
<path d="M163.498 108.318C167.5 103.937 172.017 104.454 176.583 106.286C177.48 106.652 178.293 108.018 178.459 109.018C178.559 109.618 177.347 110.967 176.6 111.05C172.066 111.65 167.317 112.749 163.498 108.318Z" fill="url(#paint36_linear_373_286)"/>
<path d="M246.607 217.048C244.066 224.461 238.089 224.411 232.459 226.06C233.207 219.863 238.537 216.581 246.607 217.048Z" fill="url(#paint37_linear_373_286)"/>
<path d="M239.5 149.381C235.93 148.415 232.26 147.715 228.856 146.333C227.793 145.899 227.428 143.684 226.764 142.268C228.341 141.618 230.367 140.002 231.43 140.502C234.768 142.051 237.757 144.384 240.862 146.416C240.413 147.399 239.965 148.398 239.5 149.381Z" fill="url(#paint38_linear_373_286)"/>
<path d="M216.087 224.377C209.079 227.892 205.161 227.143 201.009 221.795C205.476 218.297 210.424 219.03 216.087 224.377Z" fill="url(#paint39_linear_373_286)"/>
<path d="M168.911 117.281C172.664 113.882 176.816 114.965 180.867 116.698C181.78 117.081 183.009 118.88 182.777 119.413C182.279 120.512 180.784 122.012 179.871 121.912C176.035 121.462 172.282 120.496 168.48 119.713C168.629 118.896 168.779 118.097 168.911 117.281Z" fill="url(#paint40_linear_373_286)"/>
<path d="M252.867 245.433C256.72 245.433 260.572 245.233 264.391 245.583C265.255 245.667 266.417 247.532 266.583 248.682C266.683 249.365 264.989 251.064 264.258 250.964C260.323 250.497 256.437 249.598 252.518 248.848C252.635 247.732 252.751 246.583 252.867 245.433Z" fill="url(#paint41_linear_373_286)"/>
<path d="M236.76 232.123C231.978 236.388 226.432 235.705 220.836 234.605C220.703 233.906 220.57 233.189 220.437 232.49C225.701 231.34 230.965 230.208 236.229 229.058C236.411 230.091 236.577 231.107 236.76 232.123Z" fill="url(#paint42_linear_373_286)"/>
<path d="M107.007 186.08C108.236 189.228 110.079 192.326 110.428 195.575C110.594 197.174 108.004 199.073 106.675 200.822C106.044 200.556 105.43 200.289 104.799 200.039C104.55 195.641 104.317 191.227 104.068 186.829C105.048 186.579 106.028 186.329 107.007 186.08Z" fill="url(#paint43_linear_373_286)"/>
<path d="M258.264 172.569C266.052 172.536 266.45 178.017 268.526 183.198C261.585 182.814 258.995 179.349 258.264 172.569Z" fill="url(#paint44_linear_373_286)"/>
<path d="M159.729 160.059C157.52 164.59 154.814 167.339 149.981 165.956C149.367 165.773 148.703 162.841 149.267 162.042C151.725 158.51 154.963 156.861 159.729 160.059Z" fill="url(#paint45_linear_373_286)"/>
<path d="M265.637 163.724C272.146 165.023 273.009 169.271 273.557 173.536C273.657 174.252 272.196 175.718 271.299 175.868C270.419 176.001 268.742 175.102 268.459 174.286C267.364 171.104 266.683 167.789 265.637 163.724Z" fill="url(#paint46_linear_373_286)"/>
<path d="M207.967 132.806C208.1 132.273 208.1 132.023 208.216 131.89C211.587 128.158 215.456 128.858 219.242 130.94C219.657 131.157 219.424 134.089 218.827 134.389C214.891 136.271 211.089 136.221 207.967 132.806Z" fill="url(#paint47_linear_373_286)"/>
<path d="M234.103 283.431C237.258 284.381 240.48 285.114 243.485 286.396C244.382 286.779 244.648 288.645 245.212 289.828C244.017 290.361 242.489 291.644 241.675 291.294C238.57 289.961 235.697 288.095 232.725 286.43C233.19 285.414 233.638 284.414 234.103 283.431Z" fill="url(#paint48_linear_373_286)"/>
<path d="M207.153 236.954C209.71 229.558 213.513 231.64 217.05 233.14C217.565 233.356 217.432 235.155 217.598 236.221C214.111 236.471 210.624 236.721 207.153 236.954Z" fill="url(#paint49_linear_373_286)"/>
<path d="M200.86 145.117C200.328 149.281 197.622 151.397 193.587 151.397C192.723 151.397 191.843 148.898 190.98 147.549C193.819 145.966 196.659 144.384 199.482 142.801C199.947 143.568 200.411 144.35 200.86 145.117Z" fill="url(#paint50_linear_373_286)"/>
<path d="M203.633 232.923C202.354 233.356 200.627 234.539 199.864 234.089C197.572 232.756 195.662 230.791 193.603 229.058C194.948 228.225 196.675 226.393 197.572 226.743C199.913 227.642 201.906 229.508 204.031 230.974C203.882 231.623 203.766 232.273 203.633 232.923Z" fill="url(#paint51_linear_373_286)"/>
<path d="M242.921 227.592C244.847 225.793 246.59 223.727 248.749 222.328C249.961 221.545 251.887 221.828 253.482 221.645C253.232 223.278 253.482 225.926 252.618 226.359C249.795 227.792 246.574 228.425 243.502 229.358C243.319 228.758 243.12 228.175 242.921 227.592Z" fill="url(#paint52_linear_373_286)"/>
<path d="M234.303 270.154C230.4 269.771 226.498 269.388 222.613 269.005C227.661 263.624 232.459 264.94 234.186 270.288C234.186 270.304 234.303 270.154 234.303 270.154Z" fill="url(#paint53_linear_373_286)"/>
<path d="M246.756 165.407C244.465 161.958 242.755 159.36 240.629 156.145C247.421 156.244 249.048 158.56 246.756 165.407Z" fill="url(#paint54_linear_373_286)"/>
<path d="M252.004 287.962C257.068 288.378 260.506 288.662 265.271 289.061C258.961 293.459 257.218 293.376 252.004 287.962Z" fill="url(#paint55_linear_373_286)"/>
<path d="M276.928 152.596C276.928 155.911 276.928 159.226 276.928 162.541C276.131 162.591 275.334 162.658 274.537 162.708C274.271 159.426 274.006 156.128 273.756 152.846C274.819 152.763 275.865 152.679 276.928 152.596Z" fill="url(#paint56_linear_373_286)"/>
<path d="M245.229 145.933C247.172 146.782 249.247 147.415 250.941 148.631C251.389 148.948 250.592 151.013 250.36 152.279C248.218 151.247 246.076 150.214 243.95 149.198C244.382 148.115 244.814 147.032 245.229 145.933Z" fill="url(#paint57_linear_373_286)"/>
</g>
<defs>
<linearGradient id="paint0_linear_373_286" x1="195" y1="0" x2="195" y2="390" gradientUnits="userSpaceOnUse">
<stop stop-color="#37C7AB"/>
<stop offset="1" stop-color="#002F46"/>
</linearGradient>
<linearGradient id="paint1_linear_373_286" x1="194.495" y1="78.0195" x2="194.495" y2="311.99" gradientUnits="userSpaceOnUse">
<stop stop-color="#DEC468"/>
<stop offset="1" stop-color="#BBA247"/>
</linearGradient>
<linearGradient id="paint2_linear_373_286" x1="267.945" y1="129.058" x2="267.945" y2="138.453" gradientUnits="userSpaceOnUse">
<stop stop-color="#DEC468"/>
<stop offset="1" stop-color="#BBA247"/>
</linearGradient>
<linearGradient id="paint3_linear_373_286" x1="106.75" y1="113.886" x2="106.75" y2="171.853" gradientUnits="userSpaceOnUse">
<stop stop-color="#DEC468"/>
<stop offset="1" stop-color="#BBA247"/>
</linearGradient>
<linearGradient id="paint4_linear_373_286" x1="225.303" y1="152.887" x2="225.303" y2="200.139" gradientUnits="userSpaceOnUse">
<stop stop-color="#DEC468"/>
<stop offset="1" stop-color="#BBA247"/>
</linearGradient>
<linearGradient id="paint5_linear_373_286" x1="181.689" y1="193.796" x2="181.689" y2="211.966" gradientUnits="userSpaceOnUse">
<stop stop-color="#DEC468"/>
<stop offset="1" stop-color="#BBA247"/>
</linearGradient>
<linearGradient id="paint6_linear_373_286" x1="212.446" y1="140.343" x2="212.446" y2="167.66" gradientUnits="userSpaceOnUse">
<stop stop-color="#DEC468"/>
<stop offset="1" stop-color="#BBA247"/>
</linearGradient>
<linearGradient id="paint7_linear_373_286" x1="146.117" y1="175.466" x2="146.117" y2="198.656" gradientUnits="userSpaceOnUse">
<stop stop-color="#DEC468"/>
<stop offset="1" stop-color="#BBA247"/>
</linearGradient>
<linearGradient id="paint8_linear_373_286" x1="176.117" y1="243.129" x2="176.117" y2="256.312" gradientUnits="userSpaceOnUse">
<stop stop-color="#DEC468"/>
<stop offset="1" stop-color="#BBA247"/>
</linearGradient>
<linearGradient id="paint9_linear_373_286" x1="131.764" y1="157.316" x2="131.764" y2="182.265" gradientUnits="userSpaceOnUse">
<stop stop-color="#DEC468"/>
<stop offset="1" stop-color="#BBA247"/>
</linearGradient>
<linearGradient id="paint10_linear_373_286" x1="175.899" y1="226.612" x2="175.899" y2="238.67" gradientUnits="userSpaceOnUse">
<stop stop-color="#DEC468"/>
<stop offset="1" stop-color="#BBA247"/>
</linearGradient>
<linearGradient id="paint11_linear_373_286" x1="243.236" y1="252.33" x2="243.236" y2="267.818" gradientUnits="userSpaceOnUse">
<stop stop-color="#DEC468"/>
<stop offset="1" stop-color="#BBA247"/>
</linearGradient>
<linearGradient id="paint12_linear_373_286" x1="131.211" y1="244.122" x2="131.211" y2="262.872" gradientUnits="userSpaceOnUse">
<stop stop-color="#DEC468"/>
<stop offset="1" stop-color="#BBA247"/>
</linearGradient>
<linearGradient id="paint13_linear_373_286" x1="110.542" y1="203.604" x2="110.542" y2="230.524" gradientUnits="userSpaceOnUse">
<stop stop-color="#DEC468"/>
<stop offset="1" stop-color="#BBA247"/>
</linearGradient>
<linearGradient id="paint14_linear_373_286" x1="192.344" y1="122.347" x2="192.344" y2="140.64" gradientUnits="userSpaceOnUse">
<stop stop-color="#DEC468"/>
<stop offset="1" stop-color="#BBA247"/>
</linearGradient>
<linearGradient id="paint15_linear_373_286" x1="234.867" y1="240.969" x2="234.867" y2="249.819" gradientUnits="userSpaceOnUse">
<stop stop-color="#DEC468"/>
<stop offset="1" stop-color="#BBA247"/>
</linearGradient>
<linearGradient id="paint16_linear_373_286" x1="176.06" y1="151.386" x2="176.06" y2="165.64" gradientUnits="userSpaceOnUse">
<stop stop-color="#DEC468"/>
<stop offset="1" stop-color="#BBA247"/>
</linearGradient>
<linearGradient id="paint17_linear_373_286" x1="226.295" y1="208.668" x2="226.295" y2="218.023" gradientUnits="userSpaceOnUse">
<stop stop-color="#DEC468"/>
<stop offset="1" stop-color="#BBA247"/>
</linearGradient>
<linearGradient id="paint18_linear_373_286" x1="129.695" y1="211.866" x2="129.695" y2="226.043" gradientUnits="userSpaceOnUse">
<stop stop-color="#DEC468"/>
<stop offset="1" stop-color="#BBA247"/>
</linearGradient>
<linearGradient id="paint19_linear_373_286" x1="205.804" y1="243.552" x2="205.804" y2="252.447" gradientUnits="userSpaceOnUse">
<stop stop-color="#DEC468"/>
<stop offset="1" stop-color="#BBA247"/>
</linearGradient>
<linearGradient id="paint20_linear_373_286" x1="250.542" y1="269.888" x2="250.542" y2="280.508" gradientUnits="userSpaceOnUse">
<stop stop-color="#DEC468"/>
<stop offset="1" stop-color="#BBA247"/>
</linearGradient>
<linearGradient id="paint21_linear_373_286" x1="218.247" y1="272.66" x2="218.247" y2="283.901" gradientUnits="userSpaceOnUse">
<stop stop-color="#DEC468"/>
<stop offset="1" stop-color="#BBA247"/>
</linearGradient>
<linearGradient id="paint22_linear_373_286" x1="195.427" y1="165.127" x2="195.427" y2="176.484" gradientUnits="userSpaceOnUse">
<stop stop-color="#DEC468"/>
<stop offset="1" stop-color="#BBA247"/>
</linearGradient>
<linearGradient id="paint23_linear_373_286" x1="178.812" y1="176.051" x2="178.812" y2="185.022" gradientUnits="userSpaceOnUse">
<stop stop-color="#DEC468"/>
<stop offset="1" stop-color="#BBA247"/>
</linearGradient>
<linearGradient id="paint24_linear_373_286" x1="186.704" y1="213.279" x2="186.704" y2="222.279" gradientUnits="userSpaceOnUse">
<stop stop-color="#DEC468"/>
<stop offset="1" stop-color="#BBA247"/>
</linearGradient>
<linearGradient id="paint25_linear_373_286" x1="194.454" y1="110.451" x2="194.454" y2="118.87" gradientUnits="userSpaceOnUse">
<stop stop-color="#DEC468"/>
<stop offset="1" stop-color="#BBA247"/>
</linearGradient>
<linearGradient id="paint26_linear_373_286" x1="156.175" y1="140.216" x2="156.175" y2="150.481" gradientUnits="userSpaceOnUse">
<stop stop-color="#DEC468"/>
<stop offset="1" stop-color="#BBA247"/>
</linearGradient>
<linearGradient id="paint27_linear_373_286" x1="208.497" y1="254.945" x2="208.497" y2="266.737" gradientUnits="userSpaceOnUse">
<stop stop-color="#DEC468"/>
<stop offset="1" stop-color="#BBA247"/>
</linearGradient>
<linearGradient id="paint28_linear_373_286" x1="149.326" y1="131.458" x2="149.326" y2="144.092" gradientUnits="userSpaceOnUse">
<stop stop-color="#DEC468"/>
<stop offset="1" stop-color="#BBA247"/>
</linearGradient>
<linearGradient id="paint29_linear_373_286" x1="156.742" y1="214.266" x2="156.742" y2="227.9" gradientUnits="userSpaceOnUse">
<stop stop-color="#DEC468"/>
<stop offset="1" stop-color="#BBA247"/>
</linearGradient>
<linearGradient id="paint30_linear_373_286" x1="155.885" y1="233.225" x2="155.885" y2="240.903" gradientUnits="userSpaceOnUse">
<stop stop-color="#DEC468"/>
<stop offset="1" stop-color="#BBA247"/>
</linearGradient>
<linearGradient id="paint31_linear_373_286" x1="203.227" y1="205" x2="203.227" y2="213.932" gradientUnits="userSpaceOnUse">
<stop stop-color="#DEC468"/>
<stop offset="1" stop-color="#BBA247"/>
</linearGradient>
<linearGradient id="paint32_linear_373_286" x1="170.24" y1="126.576" x2="170.24" y2="135.34" gradientUnits="userSpaceOnUse">
<stop stop-color="#DEC468"/>
<stop offset="1" stop-color="#BBA247"/>
</linearGradient>
<linearGradient id="paint33_linear_373_286" x1="251.062" y1="169.99" x2="251.062" y2="185.263" gradientUnits="userSpaceOnUse">
<stop stop-color="#DEC468"/>
<stop offset="1" stop-color="#BBA247"/>
</linearGradient>
<linearGradient id="paint34_linear_373_286" x1="215.622" y1="117.69" x2="215.622" y2="127.942" gradientUnits="userSpaceOnUse">
<stop stop-color="#DEC468"/>
<stop offset="1" stop-color="#BBA247"/>
</linearGradient>
<linearGradient id="paint35_linear_373_286" x1="231.397" y1="128.175" x2="231.397" y2="136.216" gradientUnits="userSpaceOnUse">
<stop stop-color="#DEC468"/>
<stop offset="1" stop-color="#BBA247"/>
</linearGradient>
<linearGradient id="paint36_linear_373_286" x1="170.982" y1="104.937" x2="170.982" y2="111.624" gradientUnits="userSpaceOnUse">
<stop stop-color="#DEC468"/>
<stop offset="1" stop-color="#BBA247"/>
</linearGradient>
<linearGradient id="paint37_linear_373_286" x1="239.533" y1="217.004" x2="239.533" y2="226.06" gradientUnits="userSpaceOnUse">
<stop stop-color="#DEC468"/>
<stop offset="1" stop-color="#BBA247"/>
</linearGradient>
<linearGradient id="paint38_linear_373_286" x1="233.813" y1="140.408" x2="233.813" y2="149.381" gradientUnits="userSpaceOnUse">
<stop stop-color="#DEC468"/>
<stop offset="1" stop-color="#BBA247"/>
</linearGradient>
<linearGradient id="paint39_linear_373_286" x1="208.548" y1="219.652" x2="208.548" y2="226.527" gradientUnits="userSpaceOnUse">
<stop stop-color="#DEC468"/>
<stop offset="1" stop-color="#BBA247"/>
</linearGradient>
<linearGradient id="paint40_linear_373_286" x1="175.643" y1="115.061" x2="175.643" y2="121.916" gradientUnits="userSpaceOnUse">
<stop stop-color="#DEC468"/>
<stop offset="1" stop-color="#BBA247"/>
</linearGradient>
<linearGradient id="paint41_linear_373_286" x1="259.553" y1="245.376" x2="259.553" y2="250.968" gradientUnits="userSpaceOnUse">
<stop stop-color="#DEC468"/>
<stop offset="1" stop-color="#BBA247"/>
</linearGradient>
<linearGradient id="paint42_linear_373_286" x1="228.599" y1="229.058" x2="228.599" y2="235.435" gradientUnits="userSpaceOnUse">
<stop stop-color="#DEC468"/>
<stop offset="1" stop-color="#BBA247"/>
</linearGradient>
<linearGradient id="paint43_linear_373_286" x1="107.252" y1="186.08" x2="107.252" y2="200.822" gradientUnits="userSpaceOnUse">
<stop stop-color="#DEC468"/>
<stop offset="1" stop-color="#BBA247"/>
</linearGradient>
<linearGradient id="paint44_linear_373_286" x1="263.395" y1="172.569" x2="263.395" y2="183.198" gradientUnits="userSpaceOnUse">
<stop stop-color="#DEC468"/>
<stop offset="1" stop-color="#BBA247"/>
</linearGradient>
<linearGradient id="paint45_linear_373_286" x1="154.391" y1="158.35" x2="154.391" y2="166.315" gradientUnits="userSpaceOnUse">
<stop stop-color="#DEC468"/>
<stop offset="1" stop-color="#BBA247"/>
</linearGradient>
<linearGradient id="paint46_linear_373_286" x1="269.599" y1="163.724" x2="269.599" y2="175.881" gradientUnits="userSpaceOnUse">
<stop stop-color="#DEC468"/>
<stop offset="1" stop-color="#BBA247"/>
</linearGradient>
<linearGradient id="paint47_linear_373_286" x1="213.709" y1="129.234" x2="213.709" y2="135.632" gradientUnits="userSpaceOnUse">
<stop stop-color="#DEC468"/>
<stop offset="1" stop-color="#BBA247"/>
</linearGradient>
<linearGradient id="paint48_linear_373_286" x1="238.969" y1="283.431" x2="238.969" y2="291.353" gradientUnits="userSpaceOnUse">
<stop stop-color="#DEC468"/>
<stop offset="1" stop-color="#BBA247"/>
</linearGradient>
<linearGradient id="paint49_linear_373_286" x1="212.376" y1="231.678" x2="212.376" y2="236.954" gradientUnits="userSpaceOnUse">
<stop stop-color="#DEC468"/>
<stop offset="1" stop-color="#BBA247"/>
</linearGradient>
<linearGradient id="paint50_linear_373_286" x1="195.92" y1="142.801" x2="195.92" y2="151.397" gradientUnits="userSpaceOnUse">
<stop stop-color="#DEC468"/>
<stop offset="1" stop-color="#BBA247"/>
</linearGradient>
<linearGradient id="paint51_linear_373_286" x1="198.817" y1="226.699" x2="198.817" y2="234.189" gradientUnits="userSpaceOnUse">
<stop stop-color="#DEC468"/>
<stop offset="1" stop-color="#BBA247"/>
</linearGradient>
<linearGradient id="paint52_linear_373_286" x1="248.201" y1="221.645" x2="248.201" y2="229.358" gradientUnits="userSpaceOnUse">
<stop stop-color="#DEC468"/>
<stop offset="1" stop-color="#BBA247"/>
</linearGradient>
<linearGradient id="paint53_linear_373_286" x1="228.458" y1="265.565" x2="228.458" y2="270.289" gradientUnits="userSpaceOnUse">
<stop stop-color="#DEC468"/>
<stop offset="1" stop-color="#BBA247"/>
</linearGradient>
<linearGradient id="paint54_linear_373_286" x1="244.181" y1="156.145" x2="244.181" y2="165.407" gradientUnits="userSpaceOnUse">
<stop stop-color="#DEC468"/>
<stop offset="1" stop-color="#BBA247"/>
</linearGradient>
<linearGradient id="paint55_linear_373_286" x1="258.637" y1="287.962" x2="258.637" y2="292.204" gradientUnits="userSpaceOnUse">
<stop stop-color="#DEC468"/>
<stop offset="1" stop-color="#BBA247"/>
</linearGradient>
<linearGradient id="paint56_linear_373_286" x1="275.342" y1="152.596" x2="275.342" y2="162.708" gradientUnits="userSpaceOnUse">
<stop stop-color="#DEC468"/>
<stop offset="1" stop-color="#BBA247"/>
</linearGradient>
<linearGradient id="paint57_linear_373_286" x1="247.513" y1="145.933" x2="247.513" y2="152.279" gradientUnits="userSpaceOnUse">
<stop stop-color="#DEC468"/>
<stop offset="1" stop-color="#BBA247"/>
</linearGradient>
<clipPath id="clip0_373_286">
<rect width="261" height="234" fill="white" transform="translate(64 78)"/>
</clipPath>
</defs>
</svg>
