<svg width="390" height="390" viewBox="0 0 390 390" fill="none" xmlns="http://www.w3.org/2000/svg">
<circle cx="195" cy="195" r="195" fill="url(#paint0_linear_373_361)"/>
<g clip-path="url(#clip0_373_361)">
<path d="M146.513 219.416C163.259 220.982 167.163 221.957 171.249 226.268C169.776 225.916 168.181 225.808 166.854 225.162C161.603 222.615 156.08 221.544 150.63 221.622C156.171 223.225 162.028 224.923 167.884 226.615C167.787 226.986 167.696 227.357 167.599 227.727C159.403 230.281 151.964 224.48 144.07 225.336C149.46 226.896 154.989 228.493 160.518 230.095C160.458 230.556 160.403 231.022 160.342 231.483C156.371 231.955 152.406 232.703 148.423 232.852C139.535 233.187 130.932 231.578 122.705 228.218C116.63 225.742 115.86 220.845 121.086 216.946C123.754 214.955 126.931 213.651 129.714 211.791C133.612 209.19 137.353 206.368 141.16 203.641C140.875 203.246 140.596 202.845 140.311 202.451C132.399 207.641 124.518 212.868 116.552 217.98C115.575 218.608 114.181 218.841 112.975 218.859C104.299 219.015 95.6231 219.051 86.9535 219.17C85.9592 219.182 84.9771 219.493 83.9828 219.661C84.7164 223.063 84.7649 223.051 87.8993 222.292C93.968 220.827 93.2951 220.151 96.7993 225.371C97.2116 225.987 98.5817 226.256 99.479 226.209C100.558 226.149 101.625 225.605 102.668 225.21C104.966 224.337 106.433 225.336 107.361 227.297C108.264 229.21 109.355 229.689 111.429 228.714C112.356 228.278 113.981 228.547 114.957 229.091C117.037 230.239 118.892 231.776 120.838 233.157C121.499 233.624 122.372 233.97 122.772 234.598C123.615 235.92 124.215 237.391 124.912 238.802C123.651 239.334 122.438 240.118 121.117 240.363C107.597 242.904 93.9074 243.155 80.2118 242.91C67.7348 242.689 55.3123 241.858 43.2961 238.102C36.2391 235.896 30.4432 232.493 28.7638 224.582C26.9632 216.091 28.1272 208.407 34.1475 201.709C36.1421 199.491 38.0822 197.123 39.4948 194.533C41.0832 191.627 43.193 190.228 46.3941 190.892C49.2254 191.484 50.8077 190.378 51.996 187.998C53.6633 184.649 56.4521 183.465 60.1261 184.344C61.9692 184.786 63.2605 184.547 64.4064 182.658C67.0921 178.238 67.8985 177.969 72.8881 179.411C74.7372 179.943 75.7739 179.775 76.9804 178.173C81.2303 172.516 82.1034 172.301 89.1239 174.549C90.6032 175.021 91.64 175.237 92.8282 173.784C98.7879 166.488 98.2604 166.632 106.93 170.513C107.288 170.674 107.682 170.746 107.445 170.674C110.543 168.115 113.017 164.622 116.139 163.911C119.195 163.217 122.905 165.376 126.046 166.201C128.277 163.672 130.077 159.886 132.86 158.954C135.625 158.033 139.378 159.982 143.07 160.748C144.009 159.259 145.186 157.285 146.471 155.39C147.993 153.135 150.024 152.155 152.782 153.159C155.444 154.128 158.129 155.037 160.876 156C162.307 154.277 163.707 152.555 165.138 150.857C167.066 148.567 169.406 147.897 172.225 149.153C174.274 150.062 176.275 151.156 178.409 151.748C179.555 152.065 180.956 151.509 182.241 151.317C182.411 151.293 182.55 151.066 182.708 150.941C189.007 145.798 190.171 145.672 196.749 150.522C198.64 151.915 200.071 152.184 201.811 150.618C202.26 150.217 202.824 149.936 203.351 149.631C208.165 146.791 209.523 146.904 213.639 150.492C217.817 154.134 217.817 154.134 222.606 151.646C226.874 149.428 227.802 149.607 230.961 153.237C235.32 158.242 235.32 158.242 241.364 156.083C246.057 154.409 247.075 154.78 249.434 159.049C250.204 160.449 250.937 161.866 251.944 163.755C257.297 160.126 262.808 155.94 266.785 164.73C276.103 159.54 276.782 158.409 284.888 165.944C285.598 165.155 286.161 164.102 287.047 163.636C289.957 162.105 292.855 160.245 295.995 159.528C300.154 158.583 302.737 160.449 304.362 164.383C305.162 166.315 305.847 168.294 306.938 170.142C306.647 168.378 306.35 166.62 305.92 164.024C309.909 164.808 313.54 165.519 316.766 166.153C316.699 166.087 316.141 165.484 315.493 164.999C314.85 164.521 314.11 164.174 313.377 163.749C316.681 161.836 319.621 161.914 321.028 164.981C325.023 173.7 332.577 173.586 340.216 172.982C343.217 172.749 346.085 171.093 349.068 170.291C350.202 169.986 351.505 170.154 352.718 170.291C354.694 170.507 356.689 171.254 358.604 171.063C360.284 170.895 360.842 171.302 361.624 172.653C364.891 178.352 361.715 182.586 358.592 186.897C356.919 189.211 357.507 191.454 359.72 193.344C360.429 193.953 360.902 195.843 360.472 196.531C359.544 198.008 358.095 199.281 356.616 200.298C348.068 206.176 338.27 208.365 328.115 209.399C325.781 209.639 323.411 209.914 321.082 209.758C313.825 209.286 307.817 212.186 302.749 216.772C297.808 221.245 292.339 222.017 286.022 221.359C282.663 221.006 279.171 221.891 275.382 222.25C279.632 223.41 283.591 224.289 287.404 225.587C291.381 226.944 294.855 229.181 297.723 232.954C294.807 232.733 292.655 232.44 290.551 230.514C288.023 228.2 284.761 226.657 281.608 225.156C285.294 228.074 288.981 230.986 292.667 233.905C292.442 234.234 292.212 234.556 291.988 234.885C289.126 233.797 285.998 233.743 283.657 230.957C280.79 227.542 276.661 225.975 272.193 225.33C277.825 227.482 282.906 230.317 286.064 235.615C282.19 234.646 278.365 233.767 274.594 232.691C273.86 232.481 273.387 231.453 272.745 230.855C271.405 229.605 270.035 228.385 268.337 227.47C270.495 229.796 272.89 231.86 272.672 235.681C266.233 230.293 258.758 229.216 250.961 229.444C246.675 229.569 242.395 229.922 238.127 230.305C231.246 230.915 224.54 231.178 219.908 224.648C219.563 224.163 218.247 224.08 217.453 224.211C202.999 226.627 188.546 226.077 174.093 224.337C172.528 224.152 170.952 223.512 169.527 222.8C162.234 219.2 154.486 218.674 146.513 219.416ZM218.423 220.629C217.21 213.699 220.412 208.299 223.758 202.941C224.613 201.572 225.456 200.184 226.195 198.749C229.584 192.136 233.422 186.024 241.819 184.595C239.782 184.517 237.751 184.44 236.059 185.145C231.943 186.861 227.844 188.703 223.995 190.928C218.526 194.085 212.785 196.321 206.492 196.818C201.217 197.23 195.9 197.428 190.607 197.338C181.289 197.183 172.983 194.426 166.399 187.507C161.44 182.293 155.201 180.481 148.053 181.061C140.796 181.653 131.248 185.127 127.519 188.781C130.981 187.495 134.352 186.072 137.832 185.002C142.912 183.435 148.071 182.263 153.479 183.393C161.422 185.055 165.15 191.059 162.883 198.683C161.106 204.657 156.905 208.891 152.34 212.844C150.563 214.386 148.678 215.81 147.101 217.077C161.385 218.602 175.645 220.145 189.91 221.634C199.271 222.627 208.62 222.686 218.423 220.629ZM280.79 171.726C280.511 171.427 280.232 171.134 279.953 170.835C277.886 173.168 275.8 175.482 273.757 177.838C268.422 183.985 268.513 189.409 273.478 195.771C275.806 198.749 277.758 202.116 279.323 205.554C281.705 210.781 282.948 211.989 288.793 211.355C293.334 210.864 297.759 209.375 302.3 208.939C311.225 208.078 320.197 207.671 329.146 207.031C337.919 206.397 346.237 204.161 353.748 199.569C355.706 198.373 357.295 196.573 359.053 195.048C358.908 194.665 358.762 194.282 358.611 193.9C356.755 193.75 354.803 193.146 353.075 193.535C348.122 194.653 343.211 196.022 338.373 197.577C333.893 199.012 329.407 199.664 324.835 198.468C317.269 196.483 309.691 195.526 301.839 196.662C296.771 197.398 293.036 194.934 290.381 190.7C288.726 188.057 287.095 185.36 285.106 182.963C283.142 180.595 280.475 179.751 277.407 181.103C276.813 181.366 276.146 181.468 275.152 181.743C275.406 177.198 278.995 174.944 280.79 171.726ZM233.937 217.036C239.133 214.213 243.638 216.228 248.227 218.477C252.944 220.785 258.03 221.79 263.311 221.813C262.426 221.431 261.541 221.048 260.589 220.635C265.888 219.99 270.956 219.38 276.607 218.692C269.489 212.652 268.652 211.594 268.325 208.562C276.989 218.363 293.455 222.208 304.307 211.6C298.893 212.491 293.4 213.651 287.847 214.237C282.409 214.811 280.165 213.059 277.583 208.425C275.139 204.047 272.387 199.808 269.471 195.718C266.846 192.04 265.96 188.309 267.64 184.075C267.894 183.429 268.101 182.759 268.331 182.107C267.961 181.994 267.591 181.88 267.222 181.761C266.203 184.948 265.033 188.099 264.208 191.334C262.462 198.163 258.534 203.132 251.543 206.571C254.041 201.195 256.436 196.363 253.374 191.017C254.429 197.254 251.871 202.319 248.518 207.324C244.99 212.605 238.957 213.86 233.937 217.036ZM117.303 193.654C107.615 195.634 97.9088 197.045 88.5601 199.688C79.1205 202.355 70.0386 206.248 60.6899 209.644C57.3009 203.88 55.3244 203.037 49.4133 204.879C51.6262 205.124 54.8576 204.621 56.8826 205.937C58.9014 207.253 59.7078 210.38 61.1386 212.874C66.0918 212.288 72.2212 209.023 73.6216 217.592C79.7813 216.509 85.6985 215.905 91.3368 214.333C95.3443 213.214 99.5578 211.45 102.65 208.801C107.906 204.299 112.344 198.875 117.303 193.654ZM312.431 192.028C313.983 193.092 315.371 194.797 316.608 194.689C317.96 194.575 319.167 192.793 320.646 191.573C321.192 192.985 321.604 194.061 322.034 195.179C322.944 194.205 323.786 193.308 324.86 192.16C325.617 194.127 326.212 195.652 326.969 197.619C327.945 195.604 328.691 194.055 329.637 192.094C330.771 194.121 331.613 195.628 332.541 197.296C333.184 195.227 333.729 193.463 334.451 191.113C335.875 193.146 336.936 194.659 338.282 196.573C338.889 194.444 339.361 192.775 340.125 190.073C341.399 191.962 342.278 193.266 343.151 194.563C343.399 194.438 343.654 194.318 343.902 194.193C344.272 192.357 344.648 190.515 345.145 188.063C346.552 189.66 347.449 190.677 348.025 191.328C348.819 190.485 349.395 189.618 350.195 189.074C353.124 187.083 356.185 185.271 359.071 183.22C359.72 182.759 359.878 181.623 360.266 180.792C359.944 180.636 359.623 180.487 359.302 180.331C358.21 181.521 357.113 182.711 355.688 184.266C355.537 182.173 355.428 180.702 355.318 179.237C355.094 179.225 354.87 179.219 354.652 179.207C353.724 180.983 352.802 182.759 351.675 184.918C350.771 183.076 350.135 181.785 349.092 179.65C348.195 182.676 347.552 184.84 346.8 187.376C345.545 185.785 344.618 184.619 343.915 183.722C339.198 183.632 341.053 187.98 339.319 189.911C337.864 188.637 336.603 186.688 335.184 186.568C334.123 186.479 332.856 188.745 331.528 190.12C330.565 188.524 329.625 186.969 328.527 185.151C327.151 187.059 326.066 188.566 324.726 190.425C323.708 188.655 322.926 187.298 322.15 185.952C317.754 184.93 319.003 189.893 317.439 190.7C315.105 189.786 313.243 188.35 311.685 188.619C309.848 188.936 308.266 190.724 306.35 192.028C304.374 187.902 301.494 186.604 297.432 190.102C297.008 187.806 296.674 186 296.322 184.105C294.601 184.894 293.2 185.534 291.272 186.413C291.424 184.236 291.527 182.693 291.66 180.828C290.411 181.641 289.417 182.287 288.259 183.04C289.781 185.325 291.206 187.471 292.57 189.522C293.964 189.217 295.08 188.978 296.086 188.757C296.347 190.641 296.547 192.124 296.753 193.607C298.117 192.901 299.481 192.195 300.924 191.448C301.536 192.656 302.155 193.858 302.913 195.353C304.216 194.324 305.216 193.529 306.217 192.74C309.654 194.563 309.654 194.563 312.431 192.028ZM285.84 173.945C288.023 175.015 290.254 175.793 292.091 177.102C294.049 178.502 295.637 180.409 297.389 182.095C301.712 186.269 306.696 188.219 312.704 186.341C318.894 184.41 325.114 183.22 331.638 184.517C332.977 184.786 334.578 184.679 335.863 184.206C341.386 182.185 346.831 179.967 352.305 177.814C352.184 177.521 352.069 177.234 351.948 176.941C349.383 178.005 346.709 178.872 344.272 180.17C339.616 182.652 334.845 183.465 329.54 182.903C325.793 182.502 321.913 183.094 318.118 183.483C316.111 183.686 314.147 184.356 312.189 184.906C307.12 186.329 302.719 185.175 298.942 181.617C297.171 179.949 295.48 178.203 293.691 176.552C291.509 174.549 289.005 173.389 285.84 173.945ZM295.607 164.383C293.261 169.64 293.679 170.495 299.408 172.091C300.536 172.408 301.682 172.659 302.967 172.982C300.772 167.104 299.542 165.687 295.607 164.383ZM186.285 163.534C178.821 158.954 176.396 159.294 171.316 165.484C174.026 164.204 176.269 162.482 178.688 162.189C181.125 161.896 183.744 163.026 186.285 163.534ZM238.127 168.288C231.318 161.357 228.754 160.903 222.782 165.155C226.401 165.047 233.859 166.5 238.127 168.288ZM197.307 175.637C202.381 172.324 207.225 173.628 212.027 176.163C205.855 170.536 203.351 170.435 197.307 175.637ZM288.089 181.785C287.683 180.08 287.774 177.539 286.84 177.102C284.555 176.026 281.972 176.648 280.056 177.934C282.651 179.177 285.113 180.355 288.089 181.785ZM197.343 163.438C202.211 160.879 207.055 160.443 211.857 163.737C205.837 158.421 204.533 157.746 197.343 163.438ZM161.755 167.164C155.141 163.367 151.364 164.21 148.126 170.291C151.921 166.016 156.687 165.92 161.755 167.164ZM172.437 175.942C176.803 172.719 181.301 173.413 185.866 175.44C179.664 170.758 177.524 170.824 172.437 175.942ZM137.08 173.778C129.259 171.039 125.931 172.265 123.972 178.621C127.173 173.921 131.842 173.09 137.08 173.778ZM222.461 177.013C224.461 176.379 225.856 175.715 227.311 175.542C228.73 175.374 230.245 175.56 231.652 175.888C232.961 176.193 234.18 176.893 235.435 177.419C229.833 172.408 227.978 172.348 222.461 177.013ZM73.8763 190.748C76.653 186.443 80.8484 186.359 85.2499 186.873C78.5749 184.069 76.7379 184.954 73.8763 190.748ZM79.0659 229.276C74.6281 223.841 72.7122 223.434 68.0015 226.848C72.2272 225.312 75.8042 226.424 79.0659 229.276ZM38.8824 208.066C42.9687 209.495 45.321 212.383 46.1698 216.545C46.3032 210.278 45.1755 208.975 38.8824 208.066ZM54.2817 199.479C56.3915 195.604 60.0352 194.533 64.1517 194.3C57.5737 193.128 56.5612 193.654 54.2817 199.479ZM110.343 180.499C104.772 177.228 102.298 177.754 98.9758 183.064C102.177 179.494 106.154 179.488 110.343 180.499ZM50.9047 220.049C54.9486 219.29 58.0284 221.09 60.793 223.757C57.5131 218.405 56.2581 217.927 50.9047 220.049ZM73.264 199.772C66.9769 198.145 64.3154 199.317 63.2484 204.807C65.6674 200.19 69.4384 199.921 73.264 199.772ZM210.335 185.851C204.691 182.61 202.824 182.963 199.61 187.752C202.842 185.038 206.449 184.601 210.335 185.851ZM81.2606 197.069C84.0313 193.583 87.6932 193.23 91.7006 194.025C86.3836 191.31 84.6133 191.795 81.2606 197.069ZM113.684 188.225C108.258 185.289 105.718 186.012 102.989 191.286C105.893 188.004 109.434 187.005 113.684 188.225ZM124.736 184.23C127.537 180.947 131.199 180.505 135.176 181.007C129.489 178.555 128.016 178.998 124.736 184.23ZM188.976 187.699C183.793 183.537 181.483 183.567 177.754 187.824C181.489 185.289 185.218 185.743 188.976 187.699ZM148.435 178.107C151.612 175.721 155.05 175.637 158.639 176.875C153.977 173.514 151.988 173.736 148.435 178.107ZM43.1566 229.42C47.0186 228.541 50.2864 229.533 52.9176 232.511C49.9347 227.405 47.9037 226.771 43.1566 229.42ZM96.0597 232.248C91.6824 227.548 89.9606 227.291 85.7955 230.687C89.5847 228.965 92.9071 229.874 96.0597 232.248ZM72.7668 236.033C68.0197 231.608 66.1524 231.429 62.4663 234.981C66.1403 233.091 69.5051 233.935 72.7668 236.033ZM342.435 173.766C337.324 173.766 332.22 173.766 326.878 173.766C332.141 175.811 337.264 175.476 342.435 173.766ZM89.8818 235.848C85.4015 232.798 84.1101 232.822 80.9636 235.848C83.6857 235.848 87.099 235.848 89.8818 235.848ZM32.8925 215.212C36.5544 217.257 37.2091 220.773 37.5244 224.462C38.4459 217.897 38.3186 217.634 32.8925 215.212ZM230.639 183.399C225.947 180.337 224.11 180.571 221.018 184.709C223.934 182.078 227.232 182.329 230.639 183.399ZM255.029 171.128C251.143 166.877 249.088 166.554 245.705 169.628C249.203 167.923 252.156 169.167 255.029 171.128ZM156.305 157.291C156.214 157.016 156.123 156.735 156.032 156.46C152.734 157.512 149.442 158.571 146.144 159.623C146.228 159.88 146.313 160.144 146.404 160.401C149.702 159.366 153 158.332 156.305 157.291ZM253.38 178.023C249.276 174.591 247.966 174.597 244.123 178.011C247.221 176.486 250.294 176.211 253.38 178.023ZM272.623 170.698C267.5 167.983 265.857 168.103 264.293 170.698C266.821 170.698 269.683 170.698 272.623 170.698ZM194.13 151.862C194.13 151.7 194.13 151.539 194.13 151.371C191.214 151.371 188.291 151.371 185.375 151.371C185.381 151.533 185.381 151.694 185.387 151.862C188.303 151.862 191.22 151.862 194.13 151.862ZM49.7589 206.499C49.668 206.744 49.577 206.995 49.4861 207.241C52.2082 208.658 54.9304 210.075 57.6525 211.492C57.8162 211.181 57.9738 210.864 58.1375 210.553C55.3426 209.202 52.5477 207.851 49.7589 206.499Z" fill="url(#paint1_linear_373_361)"/>
<path d="M224.086 199.054C222.916 201.135 221.715 203.198 220.587 205.303C219.205 207.881 217.465 210.362 216.622 213.107C215.058 218.22 211.324 220.199 206.528 220.289C200.132 220.408 193.705 220.199 187.321 219.715C180.21 219.176 173.135 218.166 166.047 217.365C165.847 217.341 165.641 217.341 165.435 217.305C157.493 216.025 156.814 214.231 161.44 207.988C163.495 205.214 164.974 202.032 167.199 199.048C166.502 201.895 165.999 204.801 165.059 207.564C163.901 210.972 164.374 212.377 167.872 213.424C169.418 213.884 171.067 214.082 172.68 214.243C180.18 214.991 187.679 215.72 195.191 216.378C197.725 216.599 200.29 216.749 202.824 216.635C207.577 216.426 211.299 214.512 214.003 210.368C216.738 206.188 220.011 202.355 223.055 198.367C223.401 198.594 223.746 198.827 224.086 199.054Z" fill="url(#paint2_linear_373_361)"/>
<path d="M176.172 196.638C191.668 200.741 206.801 200.059 221.994 194.569C220.624 195.49 219.369 196.86 217.859 197.254C212.773 198.582 207.644 199.999 202.436 200.573C194.882 201.404 187.364 200.447 180.077 198.181C178.743 197.769 177.47 197.159 176.172 196.638Z" fill="url(#paint3_linear_373_361)"/>
<path d="M313.577 205.83C307.266 206.828 300.142 207.988 293.006 209.065C291.2 209.34 289.357 209.435 287.526 209.507C284.779 209.609 282.972 208.263 281.681 205.901C278.935 200.884 276.091 195.921 273.23 190.97C271.544 188.052 271.314 186.509 272.235 184.374C273.381 185.953 274.727 187.675 275.928 189.493C278.025 192.674 280.275 195.795 282.027 199.156C285.658 206.129 287.786 207.354 295.589 206.075C301.87 205.046 308.145 204.693 313.577 205.83Z" fill="url(#paint4_linear_373_361)"/>
<path d="M356.992 196.238C354.894 197.619 352.797 198.994 350.699 200.376C350.602 200.25 350.505 200.125 350.402 199.993C351.081 199.27 351.76 198.54 353.027 197.183C347.158 198.983 342.108 200.531 337.058 202.08C336.961 201.763 336.864 201.44 336.767 201.123C343.612 200.065 349.147 194.773 356.422 195.102C356.616 195.484 356.804 195.861 356.992 196.238Z" fill="url(#paint5_linear_373_361)"/>
<path d="M296.656 198.355C292.758 198.54 290.242 196.435 288.344 193.583C286.841 191.322 285.816 188.745 284.282 186.515C283.009 184.667 281.299 183.112 279.559 181.187C281.093 182.083 282.894 182.658 283.955 183.86C285.604 185.731 286.834 187.986 288.108 190.156C290.175 193.684 292.406 197.015 296.656 198.355Z" fill="url(#paint6_linear_373_361)"/>
<path d="M76.4045 215.038C88.0813 210.488 100.849 208.03 109.634 197.936C102.838 209.334 93.4952 214.076 76.4045 215.038Z" fill="url(#paint7_linear_373_361)"/>
<path d="M101.395 199.078C91.6764 201.895 81.958 204.711 72.2334 207.522C81.3759 202.75 91.2339 200.304 101.395 199.078Z" fill="url(#paint8_linear_373_361)"/>
</g>
<defs>
<linearGradient id="paint0_linear_373_361" x1="195" y1="0" x2="195" y2="390" gradientUnits="userSpaceOnUse">
<stop stop-color="#37C7AB"/>
<stop offset="1" stop-color="#002F46"/>
</linearGradient>
<linearGradient id="paint1_linear_373_361" x1="195.495" y1="146.981" x2="195.495" y2="242.984" gradientUnits="userSpaceOnUse">
<stop stop-color="#DEC468"/>
<stop offset="1" stop-color="#BBA247"/>
</linearGradient>
<linearGradient id="paint2_linear_373_361" x1="191.323" y1="198.367" x2="191.323" y2="220.322" gradientUnits="userSpaceOnUse">
<stop stop-color="#DEC468"/>
<stop offset="1" stop-color="#BBA247"/>
</linearGradient>
<linearGradient id="paint3_linear_373_361" x1="199.083" y1="194.569" x2="199.083" y2="200.869" gradientUnits="userSpaceOnUse">
<stop stop-color="#DEC468"/>
<stop offset="1" stop-color="#BBA247"/>
</linearGradient>
<linearGradient id="paint4_linear_373_361" x1="292.639" y1="184.374" x2="292.639" y2="209.513" gradientUnits="userSpaceOnUse">
<stop stop-color="#DEC468"/>
<stop offset="1" stop-color="#BBA247"/>
</linearGradient>
<linearGradient id="paint5_linear_373_361" x1="346.879" y1="195.087" x2="346.879" y2="202.08" gradientUnits="userSpaceOnUse">
<stop stop-color="#DEC468"/>
<stop offset="1" stop-color="#BBA247"/>
</linearGradient>
<linearGradient id="paint6_linear_373_361" x1="288.108" y1="181.187" x2="288.108" y2="198.366" gradientUnits="userSpaceOnUse">
<stop stop-color="#DEC468"/>
<stop offset="1" stop-color="#BBA247"/>
</linearGradient>
<linearGradient id="paint7_linear_373_361" x1="93.0193" y1="197.936" x2="93.0193" y2="215.038" gradientUnits="userSpaceOnUse">
<stop stop-color="#DEC468"/>
<stop offset="1" stop-color="#BBA247"/>
</linearGradient>
<linearGradient id="paint8_linear_373_361" x1="86.8142" y1="199.078" x2="86.8142" y2="207.522" gradientUnits="userSpaceOnUse">
<stop stop-color="#DEC468"/>
<stop offset="1" stop-color="#BBA247"/>
</linearGradient>
<clipPath id="clip0_373_361">
<rect width="335" height="96" fill="white" transform="translate(28 147)"/>
</clipPath>
</defs>
</svg>
