<svg width="390" height="390" viewBox="0 0 390 390" fill="none" xmlns="http://www.w3.org/2000/svg">
<g clip-path="url(#clip0_142_68)">
<rect width="390" height="390" transform="translate(390 390) rotate(180)" fill="white"/>
<circle cx="195" cy="195" r="195" fill="url(#paint0_linear_142_68)"/>
<path d="M227.156 122.51L227.908 119.297C228.965 114.807 230.513 110.518 232.502 106.54C222.15 102.547 210.923 100.353 199.203 100.353H190.79C179.07 100.353 167.843 102.547 157.491 106.54C159.48 110.518 161.028 114.807 162.084 119.297L162.837 122.51L165.803 121.066C175.981 116.106 187.332 115.536 194.986 115.536C202.639 115.536 213.997 116.106 224.176 121.066L227.156 122.51Z" fill="#DEC468"/>
<path d="M154.785 101.782C165.875 97.0964 178.043 94.5045 190.79 94.5045H199.203C211.95 94.5045 224.118 97.0964 235.208 101.782C236.589 99.6016 238.101 97.5296 239.758 95.6163C239.939 95.407 240.134 95.2048 240.322 94.9954C227.814 89.8622 214.149 87.0176 199.84 87.0176H190.153C175.851 87.0176 162.178 89.8622 149.67 94.9954C149.858 95.1976 150.047 95.3997 150.235 95.6163C151.891 97.5296 153.403 99.6016 154.785 101.782Z" fill="#DEC468"/>
<path d="M161.52 260.566C159.372 253.989 156.76 247.145 153.989 239.896C146.61 220.569 138.978 200.592 138.978 182.47C138.978 167.475 140.758 155.461 144.411 145.743L145.54 142.733L142.993 142.321V142.119L141.264 141.512C135.245 139.39 129.545 135.383 124.792 129.903C124.488 129.556 124.206 129.188 123.909 128.834C107.734 145.563 97.7505 168.283 97.7505 193.22V187.372C97.7505 163.72 106.735 142.061 121.464 125.622C119.504 122.806 117.811 119.766 116.4 116.583C95.848 136.09 83 163.598 83 193.964V244.394C83 273.309 106.706 296.969 135.679 296.969H173.768C170.823 290.312 168.27 282.103 165.412 272.891C164.182 268.934 162.916 264.848 161.52 260.566Z" fill="#DEC468"/>
<path d="M273.607 116.575C272.189 119.759 270.503 122.799 268.543 125.614C283.272 142.054 292.249 163.713 292.249 187.365V193.213C292.249 168.276 282.259 145.555 266.09 128.827C265.801 129.181 265.512 129.549 265.208 129.896C260.455 135.368 254.754 139.382 248.736 141.505L247.007 142.112V142.314L244.46 142.725L245.589 145.736C249.242 155.454 251.022 167.467 251.022 182.463C251.022 199.603 243.867 218.453 236.951 236.683C234.101 244.206 231.402 251.311 229.247 258.162C227.959 262.27 226.765 266.227 225.608 270.06C222.483 280.45 219.705 289.64 216.42 296.961H254.313C283.286 296.961 306.993 273.302 306.993 244.387V193.957C307 163.598 294.145 136.09 273.607 116.575Z" fill="#DEC468"/>
<path d="M168.993 269.606L192.548 256.033V222.749L163.365 205.935L149.331 214.021C154.228 229.399 161.086 245.073 165.702 259.209C166.866 262.783 167.951 266.256 168.993 269.606Z" fill="#DEC468"/>
<path d="M147.768 193.321C146.451 193.321 145.214 192.997 144.129 192.426C144.889 197.798 146.169 203.321 147.782 208.916L160.92 201.35V168.067L145.315 159.078C144.223 164.84 143.572 171.402 143.413 178.889C144.657 178.066 146.155 177.582 147.768 177.582C152.123 177.582 155.66 181.106 155.66 185.459C155.653 189.798 152.123 193.321 147.768 193.321Z" fill="#DEC468"/>
<path d="M145.308 159.071C145.474 158.241 145.634 157.425 145.807 156.624C145.634 157.425 145.467 158.241 145.308 159.071Z" fill="#DEC468"/>
<path d="M224.183 201.35V168.067L204.397 156.667L195 151.252L165.817 168.067V201.35L195 218.165L224.183 201.35Z" fill="#DEC468"/>
<path d="M240.727 213.197C240.648 213.436 240.568 213.681 240.489 213.919L240.496 213.926C240.583 213.681 240.655 213.436 240.727 213.197Z" fill="#DEC468"/>
<path d="M197.452 119.947V147.014L208.499 153.382L226.635 163.829L243.578 154.068C242.037 148.025 239.932 143.007 237.378 138.841C239.129 138.942 240.901 138.863 242.681 138.581C242.927 123.391 248.533 107.948 258.068 96.9736C261.728 92.7644 272.109 86.5338 274.779 78C264.239 86.1944 251.101 89.2773 243.093 98.4897C235.41 107.334 231.2 119.247 230.78 130.777C222.041 122.777 210.373 120.214 197.452 119.947Z" fill="#DEC468"/>
<path d="M243.578 154.06C243.766 154.811 243.947 155.569 244.12 156.349C243.954 155.576 243.773 154.811 243.578 154.06Z" fill="#DEC468"/>
<path d="M242.087 208.844C241.972 209.198 241.863 209.566 241.755 209.927C241.856 209.566 241.979 209.205 242.087 208.844Z" fill="#DEC468"/>
<path d="M229.08 201.35L242.073 208.837C243.78 203.061 245.155 197.35 245.929 191.82C244.627 192.758 243.035 193.321 241.306 193.321C236.951 193.321 233.414 189.798 233.414 185.445C233.414 181.098 236.944 177.568 241.306 177.568C243.339 177.568 245.191 178.34 246.587 179.604C246.457 171.821 245.798 165.013 244.677 159.063L229.073 168.052V201.35H229.08Z" fill="#DEC468"/>
<path d="M244.185 156.63C244.359 157.425 244.525 158.248 244.677 159.078L244.684 159.071C244.533 158.24 244.366 157.425 244.185 156.63Z" fill="#DEC468"/>
<path d="M195 260.271L183.454 266.927L170.483 274.4C170.064 273.049 169.637 271.671 169.203 270.277C176.488 293.727 181.494 310.693 195 310.693C207.682 310.693 213.201 295.734 219.683 274.493L195 260.271Z" fill="#DEC468"/>
<path d="M145.873 156.356C146.046 155.576 146.234 154.818 146.43 154.067L146.422 154.06C146.227 154.811 146.046 155.576 145.873 156.356Z" fill="#DEC468"/>
<path d="M221.137 269.678C222.374 265.577 223.662 261.289 225.051 256.856C229.312 243.311 235.758 228.475 240.496 213.92L226.635 205.935L197.452 222.749V256.033L208.767 262.552L221.137 269.678Z" fill="#DEC468"/>
<path d="M192.548 119.947C192.577 119.947 192.606 119.947 192.635 119.947C192.606 119.947 192.577 119.94 192.548 119.947Z" fill="#DEC468"/>
<path d="M259.739 99.5151C250.928 109.659 245.748 123.904 245.473 137.946C251.239 136.35 256.947 132.726 261.895 127.03C270.952 116.604 275.191 101.927 274.063 88.6133C268.934 90.9092 264.029 94.5768 259.739 99.5151Z" fill="#DEC468"/>
<path d="M115.937 88.606C114.809 101.919 119.048 116.597 128.105 127.022C133.061 132.726 138.769 136.35 144.527 137.939C144.252 123.896 139.072 109.652 130.261 99.5078C125.971 94.5767 121.059 90.9091 115.937 88.606Z" fill="#DEC468"/>
<path d="M131.94 96.9736C141.474 107.948 147.081 123.383 147.327 138.581C149.106 138.87 150.879 138.949 152.629 138.841C150.068 143.007 147.971 148.025 146.422 154.068L163.365 163.829L192.548 147.014V119.947C179.627 120.221 167.951 122.784 159.227 130.784C158.815 119.247 154.604 107.334 146.914 98.4897C138.906 89.2773 125.769 86.1944 115.229 78C117.898 86.5338 128.279 92.7572 131.94 96.9736Z" fill="#DEC468"/>
<path d="M123.707 300.881H118.013C111.481 300.881 106.063 305.719 105.166 312H117.572C118.071 307.516 120.35 303.567 123.707 300.881Z" fill="#DEC468"/>
<path d="M137.38 312H149.786C150.285 307.516 152.571 303.567 155.921 300.881H150.228C143.695 300.881 138.277 305.726 137.38 312Z" fill="#DEC468"/>
<path d="M139.817 300.881H134.124C127.592 300.881 122.173 305.719 121.276 312H133.683C134.175 307.516 136.461 303.567 139.817 300.881Z" fill="#DEC468"/>
<path d="M271.987 300.881H266.293C269.643 303.567 271.929 307.516 272.428 312H284.834C283.937 305.726 278.519 300.881 271.987 300.881Z" fill="#DEC468"/>
<path d="M239.765 300.881H234.072C237.421 303.567 239.707 307.516 240.207 312H252.613C251.723 305.726 246.298 300.881 239.765 300.881Z" fill="#DEC468"/>
<path d="M255.876 300.881H250.183C253.532 303.567 255.818 307.516 256.317 312H268.724C267.827 305.726 262.408 300.881 255.876 300.881Z" fill="#DEC468"/>
</g>
<defs>
<linearGradient id="paint0_linear_142_68" x1="195" y1="0" x2="195" y2="390" gradientUnits="userSpaceOnUse">
<stop stop-color="#37C7AB"/>
<stop offset="1" stop-color="#002F46"/>
</linearGradient>
<clipPath id="clip0_142_68">
<rect width="390" height="390" fill="white" transform="translate(390 390) rotate(180)"/>
</clipPath>
</defs>
</svg>
